<?xml version="1.0" encoding="utf-8"?>
<!-- Generator: Adobe Illustrator 21.0.0, SVG Export Plug-In . SVG Version: 6.00 Build 0)  -->
<svg version="1.1" id="Layer_1" xmlns="http://www.w3.org/2000/svg" xmlns:xlink="http://www.w3.org/1999/xlink" x="0px" y="0px"
	 viewBox="0 0 180 95.3" style="enable-background:new 0 0 180 95.3;" xml:space="preserve">
<style type="text/css">
	.st0{fill:none;}
	.st1{fill:#AF8B18;}
	.st2{fill:#FFFFFF;}
	.st3{fill:#383A35;}
</style>
<title>logo-pp-ss</title>
<desc>Created with Sketch.</desc>
<g id="Page-1">
	<g id="logo-pp-ss" transform="translate(-34.000000, -7.000000)">
		<rect id="Rectangle-path" x="34" y="7.2" class="st0" width="180" height="95.3"/>
		<g id="Layer_2" transform="translate(34.000000, 7.000000)">
			<g id="Layer_2-2">
				<path id="Shape" class="st1" d="M74.9,18v28.4c0,1,0.5,2.1,1.2,2.8c0.9,0.9,2.2,1.4,3.5,1.3h21.2c1.3,0.1,2.5-0.4,3.5-1.3
					c0.8-0.8,1.2-1.8,1.2-2.8V18c0-3.2-4.8-10.2-15.2-10.2C79.6,7.8,74.9,14.8,74.9,18"/>
				<path id="Shape_1_" class="st2" d="M92.3,43.8c0.7-1.1,1.5-2.2,2.5-2.9c0.9-0.8,2-1.3,3-1.7c0.9-0.3,2-0.5,3-0.5h4.6v1.4
					c-0.2,0.1-0.5,0.2-0.7,0.3c-1.1,0.3-2.2,0.4-3.3,0.3c0,0.4-0.2,0.8-0.5,1c-0.5,0.5-1,0.8-1.7,0.8c-1.3,0.1-2.7,0.5-4,1
					c-0.8,0.4-1.7,0.8-2.4,1.5c-0.3,0.3-0.6,0.6-0.8,0.8c-0.3,0.4-0.4,0.8-0.6,1c-0.1,0.1-0.3,0.2-0.4,0.3
					C91.3,46.1,91.7,44.9,92.3,43.8"/>
				<path id="Shape_2_" class="st2" d="M90.3,17c0.2,0,0.3-0.9,0.2-1.5c0-0.3,0-0.9,0-1.2c0-0.5,0.3-2.7,0.5-3.3
					c1.5,0.2,2.6,1.4,2.5,2.9c-0.6,1.2-1,2.4-1.4,3.8c-0.5,1.7-0.8,3.4-1.1,5.1c-0.3,1.5-0.4,3.1-0.4,4.6c0,1.6,0.2,2.4,0.2,4.1
					c0,0.4-0.1,0.8-0.2,1s-0.2,0.3-0.3,0.4c-0.1-0.1-0.3-0.3-0.3-0.4c-0.2-0.3-0.2-0.7-0.2-1c0-1.7,0.2-2.5,0.2-4.1
					c0-1.5-0.1-3.1-0.4-4.6c-0.2-1.7-0.6-3.4-1.1-5.1c-0.4-1.3-0.8-2.5-1.4-3.8c0-1.5,1.1-2.7,2.6-2.9c0.1,0.6,0.5,2.8,0.5,3.3
					c0,0.3,0,0.9,0,1.2C90,16.1,90.1,17,90.3,17"/>
				<path id="Shape_3_" class="st2" d="M105.5,34.5c-0.6,0.5-1.1,0.8-1.8,1c-1,0.3-2.1,0.4-3,0.3c0.1,0.4,0,0.8-0.3,1
					c-0.5,0.4-1.1,0.6-1.7,0.7c-1.2,0.1-2.4,0.5-3.6,0.9c-0.8,0.4-1.5,0.8-2.2,1.3c-0.3,0.2-0.5,0.5-0.8,0.8
					c-0.2,0.4-0.4,0.8-0.6,0.9c-0.1,0.1-0.2,0.2-0.4,0.3c0.1-1.1,0.5-2.3,1-3.3c0.6-1,1.4-2,2.4-2.7c0.8-0.7,1.8-1.2,2.8-1.5
					c0.8-0.3,1.8-0.5,2.7-0.5h5.5V34.5"/>
				<path id="Shape_4_" class="st2" d="M88.2,38.5c-0.6-1-1.4-2-2.4-2.7c-0.8-0.7-1.7-1.3-2.8-1.6c-0.8-0.3-1.8-0.5-2.7-0.5h-5.4
					v0.6c0.6,0.5,1.1,0.8,1.8,1c1,0.3,2.1,0.4,3,0.3c-0.1,0.4,0,0.8,0.3,1c0.5,0.4,1.1,0.6,1.7,0.7c1.2,0.1,2.4,0.5,3.6,0.9
					c0.8,0.4,1.5,0.8,2.2,1.3c0.3,0.2,0.5,0.5,0.8,0.8c0.2,0.4,0.4,0.8,0.6,0.9c0.1,0.1,0.2,0.2,0.4,0.3
					C89.2,40.7,88.8,39.6,88.2,38.5"/>
				<path id="Shape_5_" class="st2" d="M88.2,43.8c-0.7-1.1-1.5-2.2-2.5-2.9c-0.9-0.8-2-1.3-3-1.7c-0.9-0.3-2-0.5-3-0.5H75v1.4
					c0.2,0.1,0.5,0.2,0.7,0.3c1.1,0.3,2.2,0.4,3.3,0.3c0,0.4,0.2,0.8,0.5,1c0.5,0.5,1,0.8,1.7,0.8c1.3,0.1,2.7,0.5,4,1
					c0.8,0.4,1.7,0.8,2.4,1.5c0.3,0.3,0.6,0.6,0.8,0.8c0.3,0.4,0.4,0.8,0.6,1c0.1,0.1,0.3,0.2,0.4,0.3
					C89.2,46.1,88.8,44.9,88.2,43.8"/>
				<path id="Shape_6_" class="st2" d="M102,30.6c-0.8,0.2-1.7,0.3-2.6,0.3c0.2,0.4,0.2,0.8-0.2,1.1c-0.5,0.3-1,0.5-1.6,0.5
					c-1,0.1-2.2,0.5-3.1,0.9c-0.7,0.4-1.3,0.8-1.9,1.3c-0.3,0.2-0.5,0.5-0.7,0.8s-0.3,0.8-0.5,0.9c-0.1,0.1-0.2,0.2-0.3,0.3
					c0.1-1.1,0.4-2.2,0.8-3.2c0.5-1,1.1-1.9,2-2.6c0.7-0.7,1.5-1.1,2.4-1.5c0.8-0.3,1.5-0.5,2.4-0.5h5.5
					C103.6,29.8,102.8,30.4,102,30.6"/>
				<path id="Shape_7_" class="st2" d="M78.6,30.6c0.8,0.2,1.7,0.3,2.6,0.3C81,31.4,81,31.8,81.4,32c0.5,0.3,1,0.5,1.6,0.5
					c1,0.1,2.2,0.5,3.1,0.9c0.7,0.4,1.3,0.8,1.9,1.3c0.3,0.2,0.5,0.5,0.7,0.8s0.3,0.8,0.5,0.9c0.1,0.1,0.2,0.2,0.3,0.3
					c-0.1-1.1-0.4-2.2-0.8-3.2c-0.5-1-1.1-1.9-2-2.6c-0.7-0.7-1.5-1.1-2.4-1.5c-0.8-0.3-1.5-0.5-2.4-0.5h-5.5
					C76.9,29.8,77.7,30.4,78.6,30.6"/>
				<path id="Shape_8_" class="st2" d="M89.3,26.9c0-0.7-0.1-1.2-0.2-2s-0.3-1.8-0.5-2.6c-0.2-0.9-0.5-2-0.8-2.9
					c-0.2-0.7-0.4-1.3-0.7-2c-0.4-0.9-0.8-1.9-1.4-2.7c-0.4-0.1-0.8-0.2-1.2-0.1c-0.5,0-0.8,0.2-1.2,0.4c0.3,0.3,0.5,0.6,0.8,0.8
					c0.3,0.4,0.6,0.7,0.7,0.8c0.2,0.3,0.6,0.8,0.8,1.3c0.5,0.8,0.9,1.8,1.2,2.8c-0.5-0.9-0.9-1.8-1.6-2.6c0,0-0.1-0.1-0.1-0.2
					c-0.8-0.8-1.5-1.7-2.4-2.4c-0.4,0.4-0.6,0.8-0.7,1.3s-0.1,1,0.1,1.5c0.8,0.7,1.4,1.3,2.1,2.1c0.9,1,1.8,2.1,2.5,3.3
					c0.4,0.6,0.7,1.2,0.9,1.8c0.2,0.4,0.4,0.8,0.5,1.2s0.2,0.8,0.3,1.2c0,0.3,0,0.6,0,0.8c0,0.4-0.1,0.8,0,1.1
					c0,0.4,0.3,0.8,0.6,0.9c0.1-0.8,0.1-1.3,0.1-2C89.3,28.2,89.3,27.5,89.3,26.9"/>
				<path id="Shape_9_" class="st2" d="M91.1,26.9c0-0.7,0.1-1.2,0.2-2s0.3-1.8,0.5-2.6c0.2-0.9,0.5-2,0.8-2.9
					c0.2-0.7,0.4-1.3,0.7-2c0.4-0.9,0.8-1.9,1.4-2.7c0.4-0.1,0.8-0.2,1.2-0.1c0.5,0,0.8,0.2,1.2,0.4c-0.3,0.3-0.5,0.6-0.8,0.8
					c-0.3,0.4-0.6,0.7-0.7,0.8C95.4,17,95,17.5,94.8,18c-0.5,0.8-0.9,1.8-1.2,2.8c0.5-0.9,0.9-1.8,1.6-2.6c0,0,0.1-0.1,0.1-0.2
					c0.8-0.8,1.5-1.7,2.4-2.4c0.4,0.4,0.6,0.8,0.7,1.3s0.1,1-0.1,1.5c-0.8,0.7-1.4,1.3-2.1,2.1c-0.9,1-1.8,2.1-2.5,3.3
					c-0.4,0.6-0.7,1.2-0.9,1.8c-0.2,0.5-0.4,0.8-0.5,1.2c-0.1,0.4-0.2,0.8-0.3,1.2c0,0.3,0,0.6,0,0.8c0,0.4,0.1,0.8,0,1.1
					c0,0.4-0.3,0.8-0.6,0.9c-0.1-0.8-0.1-1.3-0.1-2C91.1,28.2,91.1,27.5,91.1,26.9"/>
				<path id="Shape_10_" class="st2" d="M88.2,28.5c-0.1-0.6-0.3-1.2-0.5-1.7c-0.3-0.7-0.6-1.3-0.9-1.9c-0.5-0.8-0.9-1.5-1.6-2.2
					c-0.5-0.6-1-1.1-1.7-1.7c-0.6-0.5-1.1-0.8-1.5-1c-0.4,0-0.8,0.1-1.1,0.3c-0.4,0.2-0.7,0.6-0.8,0.9c0.8,0.2,1.5,0.5,2.3,0.9
					c1,0.6,2,1.3,2.8,2.1c-0.9-0.7-1.9-1.1-2.9-1.6c-0.8-0.3-1.5-0.6-2.3-0.8c-0.1,0.5,0,0.9,0.1,1.3s0.3,0.8,0.6,0.9
					c0.6,0.1,1.3,0.2,2,0.4c0.7,0.2,1.3,0.4,2,0.6c0.9,0.4,1.7,1,2.3,1.9c0.2,0.3,0.5,0.8,0.6,1c0,0,0.7,1.4,0.8,0.9
					C88.2,28.9,88.2,28.8,88.2,28.5"/>
				<path id="Shape_11_" class="st2" d="M92.4,28.5c0.1-0.6,0.3-1.2,0.5-1.7c0.3-0.7,0.6-1.3,0.9-1.9c0.5-0.8,0.9-1.5,1.6-2.2
					c0.5-0.6,1-1.1,1.7-1.7c0.6-0.5,1.1-0.8,1.5-1c0.4,0,0.8,0.1,1.1,0.3c0.4,0.2,0.7,0.6,0.8,0.9c-0.8,0.2-1.5,0.5-2.3,0.9
					c-1,0.6-2,1.3-2.8,2.1c0.9-0.7,1.9-1.1,2.9-1.6c0.8-0.3,1.5-0.6,2.4-0.8c0.1,0.5,0,0.9-0.1,1.3s-0.3,0.8-0.6,0.9
					c-0.6,0.1-1.3,0.2-2,0.4c-0.7,0.2-1.3,0.4-2,0.6c-0.9,0.4-1.7,1-2.3,1.9c-0.2,0.3-0.5,0.8-0.6,1c0,0-0.7,1.4-0.8,0.9
					C92.3,28.9,92.3,28.8,92.4,28.5"/>
				<path id="Shape_12_" class="st3" d="M37.8,68.2c0.6,0.2,1.1,0.3,1.7,0.3c2.1,0,3.3-1.1,3.3-2.9c0.1-1.8-1.2-3.3-2.9-3.4
					c-0.1,0-0.3,0-0.4,0h-1.7C37.8,62.2,37.8,68.2,37.8,68.2z M37.8,72.7c0,1.7,0.4,2.2,1.5,2.2v0.3h-4.9v-0.4
					c0.9,0,1.5-0.3,1.5-2.2V64c0-1.7-0.4-2.2-1.5-2.2v-0.4h5c3.8,0,5.3,2,5.3,3.9c0,2.3-1.7,3.6-4.8,3.6c-0.7,0-1.4-0.1-2.1-0.2
					C37.8,68.8,37.8,72.7,37.8,72.7z"/>
				<path id="Shape_13_" class="st3" d="M49.3,64.9l-1.6,4.8h3.2L49.3,64.9z M51.2,70.6h-3.7l-0.8,2.3c-0.4,1.1-0.6,2,0.7,2v0.3
					h-2.9v-0.4c1-0.2,1.3-0.8,1.7-1.8l3.1-9.4h1.1l3.3,9.8c0.4,1,0.7,1.4,1.6,1.4v0.4h-4v-0.4c0.8,0,1.1-0.4,0.9-1.1L51.2,70.6z"/>
				<path id="Shape_14_" class="st3" d="M67.6,75.2h-0.4l-8-9.9v8c0,1.1,0.5,1.6,1.5,1.6v0.4h-3.5v-0.4c0.9,0,1.4-0.3,1.4-2v-6.7
					c0-1.3-0.4-2-1.7-2.1v-0.4h2.9l7.2,8.8v-6.6c0-1.5-0.4-1.9-1.4-1.9v-0.4h3.5v0.6c-1.1,0-1.5,0.5-1.5,1.8V75.2"/>
				<path id="Shape_15_" class="st3" d="M81.7,68.2c0.6,0.2,1.1,0.3,1.7,0.3c2.1,0,3.3-1.1,3.3-2.9c0.1-1.8-1.2-3.3-2.9-3.4
					c-0.1,0-0.3,0-0.4,0h-1.7V68.2z M81.7,72.7c0,1.7,0.4,2.2,1.5,2.2v0.3h-4.9v-0.4c0.9,0,1.5-0.3,1.5-2.2V64
					c0-1.7-0.4-2.2-1.5-2.2v-0.4h5.1c3.8,0,5.3,2,5.3,3.9c0,2.3-1.7,3.6-4.8,3.6c-0.7,0-1.4-0.1-2.1-0.2L81.7,72.7z"/>
				<path id="Shape_16_" class="st3" d="M93.4,64.9l-1.6,4.8H95L93.4,64.9z M95.2,70.6h-3.7l-0.8,2.3c-0.4,1.1-0.6,2,0.7,2v0.3h-2.9
					v-0.4c1-0.2,1.3-0.8,1.7-1.8l3.1-9.4h1.1l3.3,9.8c0.4,1,0.7,1.4,1.6,1.4v0.4h-4v-0.4c0.8,0,1.1-0.4,0.9-1.1L95.2,70.6z"/>
				<path id="Shape_17_" class="st3" d="M110,67.1c-0.6-2.2-1.7-3.1-3.7-3.1c-2.7,0-4.2,2.2-4.2,5.1c0,3.4,1.8,5.6,4.3,5.6
					c1.7,0.1,3.3-0.9,4-2.5l0.3,0.3c-0.8,1.9-2.7,3-4.7,2.9c-3,0.1-5.6-2.3-5.6-5.3c0-0.1,0-0.3,0-0.4c0-3.6,2.4-6.3,5.9-6.3
					c1,0.1,2.2,0.3,3.2,0.5c0.3,0,0.5-0.1,0.7-0.4h0.3v3.4L110,67.1"/>
				<path id="Shape_18_" class="st3" d="M115.6,73c0,1.4,0.4,1.8,1.3,1.8v0.4h-4.1v-0.4c0.9,0,1.3-0.4,1.3-1.8v-7.1
					c0-1.4-0.3-1.8-1.3-1.8v-0.4h4.1v0.5c-0.9,0-1.3,0.5-1.3,1.8V73"/>
				<path id="Shape_19_" class="st3" d="M121.7,73c0,1.4,0.4,1.8,1.3,1.8v0.4h-4.1v-0.4c0.9,0,1.3-0.4,1.3-1.8v-7.1
					c0-1.4-0.4-1.8-1.3-1.8v-0.4h7.8v2.1h-0.3c-0.3-1.4-0.7-1.5-1.9-1.5h-2.9v4.9h2.9c0.8,0,1.1-0.5,1.3-1.3h0.3v3.2h-0.3
					c0-0.8-0.5-1.3-1.2-1.3h-3L121.7,73"/>
				<path id="Shape_20_" class="st3" d="M131.4,73c0,1.4,0.4,1.8,1.3,1.8v0.4h-4.1v-0.4c0.9,0,1.3-0.4,1.3-1.8v-7.1
					c0-1.4-0.3-1.8-1.3-1.8v-0.4h4.1v0.5c-0.9,0-1.3,0.5-1.3,1.8V73"/>
				<path id="Shape_21_" class="st3" d="M145,67.1c-0.6-2.2-1.7-3.1-3.7-3.1c-2.7,0-4.2,2.2-4.2,5.1c0,3.4,1.8,5.6,4.3,5.6
					c1.7,0.1,3.3-0.9,4-2.5l0.3,0.3c-0.8,1.9-2.7,3-4.7,2.9c-3,0.1-5.6-2.3-5.6-5.3c0-0.1,0-0.3,0-0.4c0-3.6,2.4-6.3,5.9-6.3
					c1,0.1,2.2,0.3,3.2,0.5c0.3,0,0.5-0.1,0.7-0.4h0.3v3.4L145,67.1"/>
			</g>
			<g id="Group" transform="translate(14.000000, 74.000000)">
				<path id="Shape_22_" class="st3" d="M37.6,9.2c-0.3-0.9-1.2-1.6-2.2-1.5c-0.9-0.1-1.8,0.6-1.9,1.5v0.1c0,2,3.6,1.5,3.6,3.1
					c0,0.7-0.5,1.1-1.3,1.1s-1.4-0.5-1.6-1.2l-0.8,0.2c0.3,0.9,1.2,1.6,2.2,1.6c1.6,0,2.1-0.9,2.1-1.8c0-2-3.6-1.6-3.6-3
					c0-0.7,0.5-0.9,1.1-0.9c0.7,0,1.3,0.4,1.4,1L37.6,9.2"/>
				<polyline id="Shape_23_" class="st3" points="40,7.9 40,14.1 43.8,14.1 43.8,13.4 40.6,13.4 40.6,11.2 42.8,11.2 42.8,10.4 
					40.6,10.4 40.6,8.4 43.7,8.4 43.7,7.9 40,7.9 				"/>
				<path id="Shape_24_" class="st3" d="M46.6,14.1v-2.8H48l1.2,2.8H50l-1.2-2.9C49.6,11,50,10.4,50,9.6c0-1-0.8-1.6-2.1-1.6h-2v6.3
					L46.6,14.1z M46.6,8.4h1.2c0.8,0,1.4,0.3,1.4,1c0,0.8-0.5,1.1-1.4,1.1h-1.2V8.4z"/>
				<polyline id="Shape_25_" class="st3" points="53.4,14.1 54,14.1 56,7.9 55.2,7.9 53.7,12.9 53.7,12.9 52.2,7.9 51.5,7.9 
					53.4,14.1 				"/>
				<path id="Shape_26_" class="st3" d="M64.6,12.1c-0.2,0.8-0.6,1.5-1.5,1.5c-1,0-1.7-0.8-1.7-2.6s0.7-2.6,1.6-2.6s1.3,0.6,1.5,1.4
					l0.7-0.2c-0.1-1-1-1.8-2.1-1.8c-1.5,0-2.4,1.1-2.4,3.2c0,2.2,0.9,3.2,2.4,3.2c1.1,0,2.1-0.8,2.2-2L64.6,12.1"/>
				<polyline id="Shape_27_" class="st3" points="67.2,7.9 67.2,14.1 71.1,14.1 71.1,13.4 67.9,13.4 67.9,11.2 69.9,11.2 69.9,10.4 
					67.9,10.4 67.9,8.4 70.9,8.4 70.9,7.9 67.2,7.9 				"/>
				<path id="Shape_28_" class="st3" d="M73.1,14.1h1.6c1.9,0,2.8-1.3,2.8-3.1c0-2.1-1.1-3.1-2.8-3.1H73L73.1,14.1z M73.8,8.4h0.9
					c1.2,0,2.2,0.7,2.2,2.5c0,1.7-0.8,2.5-2.2,2.5h-0.9V8.4z"/>
				<path id="Shape_29_" class="st3" d="M86.4,9.2c-0.3-0.8-1.1-1.6-2.1-1.5c-1-0.1-1.9,0.6-2,1.5v0.1c0,2,3.6,1.5,3.6,3.1
					c0,0.7-0.5,1.1-1.3,1.1S83.2,13,83,12.3l-0.7,0.2c0.3,0.9,1.2,1.6,2.2,1.6c1.6,0,2.1-0.9,2.1-1.8c0-2-3.6-1.6-3.6-3
					c0-0.7,0.5-0.9,1.1-0.9s1.3,0.4,1.4,1L86.4,9.2"/>
				<path id="Shape_30_" class="st3" d="M88.9,7.9v4.4c0.1,1.2,1.2,2.1,2.4,2c1-0.1,1.8-0.9,2-2V7.9h-0.7v4.4
					c-0.1,0.8-0.8,1.4-1.7,1.3c-0.7-0.1-1.2-0.7-1.3-1.3V7.9H88.9"/>
				<polyline id="Shape_31_" class="st3" points="103.1,8.4 103.1,7.9 98.6,7.9 98.6,8.4 100.4,8.4 100.4,14.1 101.2,14.1 
					101.2,8.4 103.1,8.4 				"/>
				<rect id="Shape_34_" x="96" y="7.8" class="st3" width="1" height="6.4"/>
				<rect id="Shape_35_" x="58" y="7.8" class="st3" width="1" height="6.4"/>
				<polyline id="Shape_32_" class="st3" points="104.8,7.9 104.8,14.1 108.7,14.1 108.7,13.4 105.4,13.4 105.4,11.2 107.7,11.2 
					107.7,10.4 105.4,10.4 105.4,8.4 108.6,8.4 108.6,7.9 104.8,7.9 				"/>
				<path id="Shape_33_" class="st3" d="M114.4,9.2c-0.3-0.9-1.1-1.6-2.1-1.5c-0.9-0.1-1.8,0.6-1.9,1.5v0.1c0,2,3.6,1.5,3.6,3.1
					c0,0.7-0.5,1.1-1.3,1.1s-1.4-0.5-1.6-1.2l-0.7,0.2c0.3,0.9,1.2,1.6,2.2,1.6c1.6,0,2.1-0.9,2.1-1.8c0-2-3.6-1.6-3.6-3
					c0-0.7,0.5-0.9,1.1-0.9c0.7,0,1.3,0.4,1.4,1L114.4,9.2"/>
			</g>
		</g>
	</g>
</g>
</svg>
