<svg xmlns="http://www.w3.org/2000/svg" viewBox="0 0 209.4816 95.3131"><defs><style>.cls-1{fill-rule:evenodd;}.cls-2{fill:#aa273b;}.cls-3{fill:#575756;}.cls-4{fill:none;}</style></defs><title>si-chuan-dou-hua-log</title><g id="Layer_2" data-name="Layer 2"><g id="Layer_1-2" data-name="Layer 1"><path d="M155.87678,70.86759v-2.7791c.01405-.08626.02662-.17637.04592-.26095.47265-.40787.87281-2.48208.87281-3.27516,0-.42069-.22472-.92061-.27015-1.37515a6.63646,6.63646,0,0,1,.06087-.82856c.16529-.67273.305-1.41311-.51467-1.62526a2.16,2.16,0,0,0-.56158-.05651h-.00287c-.19043.00193-.3813.02078-.56643.0338-.64561.04518-1.29805.02078-1.9442.02078-.38709,0-.28074.28757-.6558.36828a.89256.89256,0,0,1-.90126-.41129,2.38693,2.38693,0,0,1-.43593-1.28162,1.95567,1.95567,0,0,1,.14643-.8641c.89988-1.93164,5.20967-6.41473,6.35456-7.01036v-.13728a1.0195,1.0195,0,0,0,0-.7776.4292.4292,0,0,0-.38852-.22566.827.827,0,0,0-.47315.1503,5.65406,5.65406,0,0,0-.81139.78917c-.50264.49972-1.01637.98638-1.53153,1.473-.99068.93561-1.98429,1.87147-2.89624,2.88778a11.40792,11.40792,0,0,0-2.21485,3.12655,2.30538,2.30538,0,0,0-.14114.49438,2.42426,2.42426,0,0,0-.06379.52773,1.61642,1.61642,0,0,0,.1305.5937,16.72944,16.72944,0,0,1,.49586,1.849,2.66967,2.66967,0,0,1-.02128.77972,2.90961,2.90961,0,0,1-.32429.92813c-.31652.5693-.70846.62754-1.29177.72519-.33735.05626-.42336.35324-.54129.64249-.289.69906-.56445,1.40341-.83366,2.11192-.20439.53931-.417,1.07867-.63261,1.61581l-.00094.00193h-.03192c-.97183,2.4031-2.13607,4.8308-3.21667,4.8308a1.6794,1.6794,0,0,1-1.16369-.50572,4.59245,4.59245,0,0,1-.32185-2.45748,5.66872,5.66872,0,0,1,1.55611-3.51726,15.659,15.659,0,0,1,2.77495-2.918,7.117,7.117,0,0,0,2.0665-1.9106,2.06506,2.06506,0,0,0,.44172-1.15746v-.91314c.00144-.03964.00242-.079.00242-.12011a6.91711,6.91711,0,0,0,.00723-1.229.26979.26979,0,0,0-.00965-.03766c-.17014-.85662-1.18982-.67609-1.80456-.93566a.577.577,0,0,1-.05607-.03766.33185.33185,0,0,1-.14158-.14643v-.34365a1.4404,1.4404,0,0,1,.27109-.47745,3.48978,3.48978,0,0,1,1.43826-.98272c.244-.09017.533-.17474.81238-.28346.65194-.188,1.12168-.41366,1.12168-1.37565a1.75546,1.75546,0,0,0-.17494-.65387c-.05028-.15029-.10536-.29841-.16286-.43588a1.18364,1.18364,0,0,1-.05122-.26462H148.951a2.7205,2.7205,0,0,0-.51175,0h-1.72968a.53889.53889,0,0,1-.22666-.14667.29162.29162,0,0,1-.05409-.109v-.22571a2.2926,2.2926,0,0,1,.37938-.71568c.33923-.50551.73018-1.01637,1.03032-1.56508a3.523,3.523,0,0,0,.60073-1.69657,1.90792,1.90792,0,0,0-.20057-.714,1.334,1.334,0,0,0-.1445-.39462.53481.53481,0,0,0-.17736-.19715.45123.45123,0,0,0-.09229-.036,2.29866,2.29866,0,0,0-.90567,0c-.10392.01524-.19572.03385-.26436.05072a.79112.79112,0,0,0-.42674.34582l-.02849.04325c-.102.15415-.188.32305-.26967.45113q-.61909.97792-1.19416,1.98191c-.7254,1.25337-1.41456,2.5292-2.12113,3.79369a38.16033,38.16033,0,0,1-4.51665,6.77718,18.38554,18.38554,0,0,1-2.11,1.937c-.26385.2218-.51129.389-.51129.75171v1.09728a.436.436,0,0,0,.0232.17083c.03578.081.11793.07517.2861.081a3.77,3.77,0,0,0,1.41117-.081h.11258c.01692-.02633.03434-.05266.05171-.07878a.93148.93148,0,0,0,.31607-.28945c.33539-.49779.63017-1.024,1.012-1.488.22136-.26679.77809-.99583,1.20333-.823a.37615.37615,0,0,1,.073.04518c.40837.6275.45766,1.04458.73216,1.24371a.6599.6599,0,0,0,.52437.19161,4.44678,4.44678,0,0,0,2.12493-1.19492c.02514-.02078.05221-.03939.07928-.06018a2.17254,2.17254,0,0,1,.00966,1.09367.51512.51512,0,0,1-.20395.1259,2.22588,2.22588,0,0,1-.70024.06379c-.12712.00193-.20542.17494-.24264.4098a2.46358,2.46358,0,0,0,0,.68772,1.09084,1.09084,0,0,0,.13921.43757.22533.22533,0,0,0,.072.07709,1.24767,1.24767,0,0,1,.29767.21409,1.59341,1.59341,0,0,1,.0097.18221c0,.04879-1.62862,2.046-2.44635,3.431h-.00094a2.77133,2.77133,0,0,0-.45914,1.08783v1.5443a4.61439,4.61439,0,0,0-.06379,1.63471,3.54721,3.54721,0,0,0,.7868,1.676c.0493.05458.10536.10536.159.15415.66258.59563,1.634.73652,2.91415-.05265.42579-.26486.79067-.58984,1.19754-.87766a2.90231,2.90231,0,0,1,1.77121-.24961,2.15608,2.15608,0,0,0,.96945-.092h.02806a.13.13,0,0,0,.01351-.02272.69683.69683,0,0,0,.24115-.23655,3.549,3.549,0,0,0,.40159-1.27394,1.84427,1.84427,0,0,1,.939-1.47685,2.8252,2.8252,0,0,1,1.91813-.03386,2.76357,2.76357,0,0,1,1.59285,1.07482c.117.17662.0532.109.117.17662.057.05993.03959.07878-.15178.355a.14246.14246,0,0,0-.086.1259c-.6413.93392-.52.8682-.52,1.24757.18657-.139.33829.346.76067.01885a7.83437,7.83437,0,0,0,.61958-.53936,1.4564,1.4564,0,0,1,.43108-.34552,1.00166,1.00166,0,0,1,.70989-.21794A6.19784,6.19784,0,0,1,156.59058,74.15a.944.944,0,0,1,.42628.945,2.15313,2.15313,0,0,1-.088.24239c-.03093.07151-.058.14089-.08215.21022a.60091.60091,0,0,0-.03622.27451c0,.01326-.00341.02439-.00341.03939l.00678.00386a.53564.53564,0,0,0,.15757.25926,3.22236,3.22236,0,0,0,.8979.51106,3.2829,3.2829,0,0,0,1.34689.5937,1.80328,1.80328,0,0,0,1.256-.76839c.12758-.09229.25516-.18221.37694-.26679,0,0,1.01-1.55395,0-1.90531C159.83818,73.93759,157.61561,71.92524,155.87678,70.86759Zm-12.9725-14.4714c.04157-.31944.11407-.64056.24016-.6273a.41892.41892,0,0,0,.09907.261.51547.51547,0,0,0,.28416.13144,3.21951,3.21951,0,0,1-.67268.84188S142.86607,56.70064,142.90428,56.39619Zm-1.2826,3.82561a2.54839,2.54839,0,0,1,1.0028-1.97276,3.30513,3.30513,0,0,0,.91675-1.3754.77408.77408,0,0,1,.5949-.47745c.11163-.02633.22764-.0527.34942-.08457.21458-.03914.43108-.06933.62-.10679C143.86552,57.55167,142.96807,58.96092,141.62168,60.2218Zm6.79049,8.37606c-.61622.08457-1.34882,1.19853-1.03666-.88509v-.31943c.246-.02445.33735-.29677.36343-.541h.67466v.34745A3.1309,3.1309,0,0,1,148.41217,68.59786Zm7.18193-3.77845c-.08413.04325-.11164.152-.30158.25709-.19043.10536-.20879.6222-.03771,1.21422.16821.58984.00144.36611-.16722.87162a2.66032,2.66032,0,0,1-.46488.99212,1.86726,1.86726,0,0,0-.36249.92234c-.07972.25951-.07972.2803-.1638.2803a8.97962,8.97962,0,0,1-1.1821.04276,8.7101,8.7101,0,0,1-.99118-.23269c-.16915-.04325-.42287-.295-.78195-.295a1.16185,1.16185,0,0,1-.92789-.35883c-.29574-.295-.52773-.46414-.29574-1.28716a10.79012,10.79012,0,0,1,1.05546-2.11,8.63977,8.63977,0,0,1,2.13221-2.745c.82154-.46225,1.11732-.61062,1.68756-.40015.56881.21047.7626.25347.73894.46612a6.80587,6.80587,0,0,0,.05458,1.5443C155.60761,64.3383,155.67868,64.77809,155.5941,64.81942Z"/><path class="cls-1" d="M37.742,58.74684c0-.93754.18073-1.91278-.13436-2.187a7.91455,7.91455,0,0,0-2.10464-1.473c-.98058-.376-2.14819.04686-3.093.18968a11.50927,11.50927,0,0,0-3.6618,2.06307,22.98827,22.98827,0,0,0-5.633,7.82542V61.567c-.06958-.96.02949-1.96716-.09516-2.91415-.074-.55045-.63893-.36823-1.0376-.37209a2.87807,2.87807,0,0,0-2.94606,2.47461c-.07874.46033.24649,1.35847.19962,1.88645-.04929.57677-.23487.462-.33636.82109a9.197,9.197,0,0,0,.20009,2.82566,6.19636,6.19636,0,0,0,1.15982,2.00464c1.01538,1.49961,1.92926,2.64376,3.89811,1.37179,1.07526-.69327.40109-2.69062,1.23669-3.45907.58281-.53738,1.9302.79476,2.57393.881-.37986.25758-.79937.25758-1.07046.455-.27257.19721-.30059.53357-.45236.71766a6.983,6.983,0,0,1-1.10718,1.01657,1.35442,1.35442,0,0,0-.61567,1.28889c.00629.107-.0725.28925.043.36269a4.53357,4.53357,0,0,1,.53258.3475c.38273.31919.91582.18968,1.50926.21046a23.0838,23.0838,0,0,0,2.57487.03747,16.89284,16.89284,0,0,0,2.33278-.107c.37937-.08631.35517-.33057.69495-.37769.42524-.06018.87761.18607,1.17869.02078.39724-.21992.2223-.40961.46345-1.02023.97816-2.48594,2.48164-4.80057,3.27323-7.35588.13287-.42841.38852-.65773.45088-1.09367A21.83427,21.83427,0,0,0,37.742,58.74684Zm-9.46542,4.72544c-.22037.15029-.48324-.01692-.70653-.14109-.14014-.07878-.36343-.13148-.44222-.24817a.61482.61482,0,0,1,.04206-.69881c.072-.09012.21651-.10318.33829-.18776,1.40683-.9883,1.97078-1.57839,3.34039-2.61549,0,0,.57217-.57484.70945-.55238.06379.00945,0,.33443-.00678.637a1.54726,1.54726,0,0,1-.01544.58816,4.76473,4.76473,0,0,1-.58915.5937A16.6785,16.6785,0,0,1,28.27656,63.47227Zm7.11379-.41149A15.36784,15.36784,0,0,1,33.522,66.10663a5.91932,5.91932,0,0,1-1.29226,1.52351,4.14661,4.14661,0,0,1-1.7224.04133,10.44547,10.44547,0,0,0,1.56291-3.50038,4.09494,4.09494,0,0,1,.58187-1.306c.43786-.56544,1.11925-1.03107,1.11925-1.25124a10.06133,10.06133,0,0,0,.01984-1.86008c-.14643-.137-.31943-.12589-.42193-.2216a1.4954,1.4954,0,0,1-.05122-1.20432c.12278-.09571,1.56241-.16553,1.74269.07878a3.55235,3.55235,0,0,1,.6901,1.3604A7.6996,7.6996,0,0,1,35.39035,63.06079Z"/><path d="M63.024,54.89322v-.35908c.00144-.05053.00144-.10126.00337-.15029.02756-.49972-.015-.95061.02078-1.518A7.19117,7.19117,0,0,0,63.024,51.4547v-.07126h-.16336a3.00979,3.00979,0,0,0-1.03131,0,.24618.24618,0,0,1-.01742.02633,17.55318,17.55318,0,0,0-1.28454,2.38618v.74013c-.6031,2.23805-.8206,4.47-2.60867,6.73393-.03048.03771-.06092.07735-.09185.11481-.02029.0244-.03964.04879-.06042.07294-.043.0529-.08842.10536-.13287.15608a.16308.16308,0,0,1-.01741.02078c-.0493.05632-.0976.111-.14595.15974l-.02172.02271c-.03627.03914-.073.07685-.10971.11258a1.43367,1.43367,0,0,1-.723.43762.63841.63841,0,0,1-.43687-.1597c-.02415-.05632-.07344-.09957-.18894-.11263a.78674.78674,0,0,0-.174-.06765,5.65932,5.65932,0,0,0-1.07625.06018,5.04792,5.04792,0,0,0-1.04576-.03192c-.01935.00945-.03434.02222-.05414.03192H53.561c-.01306.02054-.0237.04493-.03622.06572a1.49157,1.49157,0,0,0-.36878.92813c-.3813,1.30384-.52387,2.96681-1.50149,3.54744v-.00193c-.12565-.31558-.47607-.54876-.47607-1.00157a16.89411,16.89411,0,0,1,.35908-2.31853c.1445-.46028.30687-.94887.46543-1.46744.013-.03914.02944-.08264.04394-.12179a4.12841,4.12841,0,0,0,.55386-1.13326,9.39257,9.39257,0,0,0,.57123-1.10668,11.92733,11.92733,0,0,0,.865-1.98384,13.8938,13.8938,0,0,0,.02657-2.05758.07038.07038,0,0,0-.02657-.03934v-.01692h-.02657a4.08267,4.08267,0,0,0-1.74512,0,3.434,3.434,0,0,0-.38565.0865,1.55357,1.55357,0,0,0-.66882.54273,14.15665,14.15665,0,0,0-1.11445,1.91471,16.11065,16.11065,0,0,0-.75923,1.706,19.80014,19.80014,0,0,0-1.39083,3.24686v1.518a10.42883,10.42883,0,0,0,0,1.55954c.00771.06958.01642.14084.02849.20488a2.34583,2.34583,0,0,0,.31993.79452,4.44389,4.44389,0,0,0,.924,1.00518A3.4269,3.4269,0,0,0,51.088,69.16885c.04642,0,.087-.00554.1305-.00554a2.17043,2.17043,0,0,0,.71667-.09566c.01836-.00391.03484-.00945.05364-.01525.03142-.0094.06093-.01692.09279-.028.01405-.00584.02514-.01138.03914-.01692.04691-.01885.0928-.03772.13678-.05825.02415-.01114.04835-.02271.07151-.03385a1.66034,1.66034,0,0,0,.15564-.094L52.5021,68.81c.81237-.56732.74571-1.70206.89794-2.58719.00678-.04518.0145-.09036.02415-.13144.001-.01138.00386-.02078.0058-.03192a2.24311,2.24311,0,0,1,.07783-.27446l.00916-.02445c.462-1.257,1.74269-.417,2.76916-.40956l.015.00193c1.75041,0,.89839-1.06729,2.77351-1.96524.03286-.00579.06285-.00772.09229-.01133.00628.83411.37214.51877.477.62943a4.55171,4.55171,0,0,1-.34121,1.011.18592.18592,0,0,1-.02608.02054v.04132a.71519.71519,0,0,0-.04736.11649c0,1.65327-.14643,3.2954-.30207,4.93591a.51066.51066,0,0,0-.01979.17276v.04157c-.17494,1.83909-.35759,3.67675-.35759,5.5255l-.001.01885.001.0094c.0048.434.35759-.09759.35759.35522s-.35858,0-.35858.45286.35858,0,.35858.45281c0,.45454-.35858-.22571-.35279.22715v3.54551c.01643.00945.02707.01885.04256.02806a1.257,1.257,0,0,0,.23437.72924.26335.26335,0,0,0,.11694.05246c.00386.04325.00823.08819.014.1353q.10155-.07319.20349-.1353a2.49756,2.49756,0,0,0,.55382-.20107c.00627-.01133.01013-.02608.015-.03554a.34722.34722,0,0,1,.04543-.01133l.00287-.11674a12.24637,12.24637,0,0,0,.25135-3.11685c.02509-.36076.05508-.851.09422-1.40173.01207-.107.02172-.21047.03622-.32305a24.16717,24.16717,0,0,1,.71766-2.57586V72.0494a2.75667,2.75667,0,0,1,.22185-.47914l.0193-.03939a2.37779,2.37779,0,0,0,.28709-.87761c.08314-.58623.02993-1.21184.10777-1.78669.01064-.079.01737-.1597.02657-.24066.18558-1.5199.202-3.05311.23873-4.58435.0145-.66907.03578-1.33408.07735-1.99928.00628-.111.02466-.21408.03766-.32117.10536.02251.24457.14282.24457-.13891v-1.039c.26481-.91339.63745-1.74948.82832-2.64955.01742-.01113.03479-.0244.05221-.03746v-.25179c.01064-.06572.02608-.12758.03528-.19161A16.1259,16.1259,0,0,0,63.024,54.89322Z"/><path d="M93.621,73.46226a1.72968,1.72968,0,0,0-.11021-.15777c-.83025-1.10867-3.29976-1.83019-4.02905-1.92416-1.43533-.188-2.916.27619-4.24942-.4301-.03335-.01692-.06428-.03023-.09521-.04884a6.4174,6.4174,0,0,0,2.14577-3.19227c.24016-.63116.45088-1.272.69737-1.89972a6.33132,6.33132,0,0,0,.32281-.7909.66507.66507,0,0,0,.00337-.15415c-.02365-.2856-.25515-.47335-.55673-1.02379a2.65565,2.65565,0,0,0-.51952-.80808L87.22,63.01754a.08365.08365,0,0,0-.02078-.00579,1.117,1.117,0,0,0-.44558-.18775c-.47938-.10536-.61952-.25179-.60216-.44341.433-.53936.5403-1.23817,1.15846-1.648v-.77566a2.61189,2.61189,0,0,0,.02221-.34963c0-.92452.02365-.81555.02365-1.74175,0-.26674-.02365-1.16879-.02365-1.43558,0-.32137-.24407-.44316-.57074-1.00518-.11312-.19523-1.51075-.02415-2.01527-.02415-.28172,0-.61374.36051-.97188.7232-.56153.57124-1.1724,1.21566-1.32319,1.06705a.48926.48926,0,0,1-.13436-.27229.86366.86366,0,0,1,.07492-.48863,7.9474,7.9474,0,0,1,1.55227-2.20951,10.52492,10.52492,0,0,1,2.85423-2.09692,17.74166,17.74166,0,0,1,2.08965-.59924.29376.29376,0,0,0,.10778-.1107,1.40376,1.40376,0,0,0,.12614-.26337,1.28866,1.28866,0,0,0,.1933-.60676.84236.84236,0,0,0-.03914-.22541,2.28007,2.28007,0,0,0-.33008-.75537c-.34265-.54466-.43059-.89621-1.04774-.89621-.9124,0-1.026-.01692-1.93792-.01692a1.65193,1.65193,0,0,0-.63115.0621.23016.23016,0,0,0-.15174.12976h-.00337v.00916c-.04934.13169,0,.30618-.42772.46226a36.25757,36.25757,0,0,0-4.74672,2.40671c-.61181.419-1.22169.9076-1.31547,1.47883a.63532.63532,0,0,0-.05606.24426c0,1.51629,2.40477,1.0765,2.91028,1.31137v.48859a4.6849,4.6849,0,0,0-1.85577,2.39,7.58786,7.58786,0,0,0-.89646,1.40366c-.04978.05607-.09907.11263-.15321.16722v1.52742a9.23177,9.23177,0,0,0,0,1.27751,2.50728,2.50728,0,0,0,.96654,1.88452,7.82844,7.82844,0,0,0,1.56485.86988c.56251.22933,1.1666.31366,1.16566.53962,0,.20829.07537.51274-.06864.66857a.16038.16038,0,0,1-.0285.03024A23.50589,23.50589,0,0,1,80.21885,67.215c-.39921.21967-1.15409.75151-1.56682.38684-.09907-.079.15178-.57291-.02414-.74181-.0778-.07151-.30545-.02465-.68239-.02465-.39049,0-.6466.68214-.76646,1.3604a3.39193,3.39193,0,0,0-.03771,1.21546c.31607,1.07867.26872,1.30607,1.45755,1.49961.55965.09012.98494.07873,1.546.14836-.085.03746-.17251.07344-.26045.10728-2.15057.87351-4.709.96555-6.4179,2.71091a.64481.64481,0,0,0-.09565.12783,1.44337,1.44337,0,0,0-.12615,1.039s.129.33082.7331.152a3.5943,3.5943,0,0,1,1.70113.16c.25129.07878.39194-.03771.40014-.06572.16242-.60147.78873-.72152,1.3271-.66526a4.98917,4.98917,0,0,0,.6993-.14475,3.67258,3.67258,0,0,0,.461-.09784,5.19879,5.19879,0,0,1,2.02733-.84548h4.45385a10.35966,10.35966,0,0,1,3.56654.19379c1.00182.37576,1.39326.64056,2.39751,1.00716a5.16265,5.16265,0,0,0,1.128.417,1.23033,1.23033,0,0,0,.693-.17107c.52051-.30806.84768-.21962.91532-.37937A1.379,1.379,0,0,0,93.621,73.46226ZM82.82079,59.18662V59.175h0c.00242-.05607.0053-.107.0053-.1445.22814,0,1.09946-.31583,1.18111.18221a2.07764,2.07764,0,0,1-.18122,1.59141.74121.74121,0,0,1-.288.28757.76666.76666,0,0,0-.04543.2027h-.67174v-.33053A8.236,8.236,0,0,1,82.82079,59.18662Zm-.06863,11.54177a1.715,1.715,0,0,0-1.28406.34968h-1.199c.17736-.41154.77423-.68218,1.16953-.99776.05894-.12976.1155-.2706.18073-.41535.26486-.59177.534-1.17968.82931-1.75863.44558-.87182,1.39089-3.08884,2.59907-3.08884.8061,0,1.0419.37016.97861.89235a1.07661,1.07661,0,0,1,.02756.23125C86.05389,67.25632,83.103,70.01073,82.75216,70.72839Z"/><path d="M125.32468,69.1539c-.08695-1.1386-3.71733-5.82445-3.91062-5.90343a.10222.10222,0,0,0-.08894.06958A1.85488,1.85488,0,0,0,121.387,64.528c.02321.02826,2.21436,3.20385,2.21436,5.38515,0,2.07441-2.37093,4.02831-4.20833,4.02831a3.93041,3.93041,0,0,1-1.734-.47726,19.936,19.936,0,0,1-1.76006-1.30408,1.193,1.193,0,0,1-.07348-.096,8.68435,8.68435,0,0,1-.28417-3.21281,1.15879,1.15879,0,0,1,.04256-.27035,10.83163,10.83163,0,0,1,.88632-1.30775c.05216-.05656.10536-.11283.159-.17108a5.566,5.566,0,0,0,1.2647-1.74175,3.69273,3.69273,0,0,0,.01742-.99964c-.01163-.23848-.0232-.51467-.03-.81718-.00386-.17108.00679-.404.01549-.63309.03188-.731.02608-.91512-.08314-.92259-.08071,0-.12758.12011-.32765.74206-.115.36269-.26.81723-.43108,1.23065a2.98443,2.98443,0,0,1-.92645,1.41118l-.11451.028a1.68093,1.68093,0,0,1-.34072.066.1076.1076,0,0,1-.07293-.01881.09381.09381,0,0,1-.01357-.06963.66308.66308,0,0,1,.03093-.14475.39655.39655,0,0,0,.23779-.37764.77763.77763,0,0,0,.18172-.48839l-.11506-3.01753c0-.49221.2465-1.567.5065-1.567h0a.69133.69133,0,0,0,.15029.015c.5601,0,.94961-.652,1.07526-1.08788.07057-.24793.01356-.28366-.0048-.295a.29338.29338,0,0,0-.1595-.03939,1.77146,1.77146,0,0,0-.19815.02078,2.14035,2.14035,0,0,1-.35472.03192h-.00049a2.01253,2.01253,0,0,1-.22665-.02271,1.14421,1.14421,0,0,0-.202-.02223.37629.37629,0,0,0-.23145.06934l-.00341.00361h-.01257l-.00866.01692a1.95951,1.95951,0,0,0-.51323.80055,7.25609,7.25609,0,0,1-.39243.78917c-.04686.079-.12035.17836-.20973.29866a5.981,5.981,0,0,0-1.3126,3.9138c0,.07685.00772,7.51924.01935,7.9477.04058,1.41647,1.13568,2.24336,2.5043,2.70562a1.17069,1.17069,0,0,0,.53159.32691h.78873a11.78909,11.78909,0,0,0,3.93.04686c1.38313-.33246,3.60524-2.123,3.729-3.959A9.38367,9.38367,0,0,0,125.32468,69.1539Zm-6.92915-15.09119c0-2.219,1.99255-3.1942,1.99255-5.43562v-.11263c-.01113-.32523-.09714-.97331-.81337-.97331-1.92634,0-4.12135,5.97667-5.79926,5.97667-.45286,0-.29722.028-.45528-.11456.28658-1.2739-.57316-2.33926-.7336-3.22246-.00485-.028-.01158-.05632-.01544-.08457h-.03627c-.12515-.15752-.28945-.07705-.71618-.07705a.86563.86563,0,0,0-.33928.07705H111.375c-.015.02826-.03142.0527-.04691.081-.37353.63863-.7239.96777-.95976,1.32829a1.8499,1.8499,0,0,0-.30642,1.10861c0,.43761.84574,2.22836.90087,2.75441a1.02825,1.02825,0,0,1-.15564.48111c-.40738.64249-2.27329,1.79248-2.60965,2.52123a.5183.5183,0,0,0,.34407.7481,2.47519,2.47519,0,0,0,.76453,0h.692c.0527-.034.10922-.0679.16385-.09952.26244-.09427.63646-.31028.99939-.47557a1.9394,1.9394,0,0,1,.622-.13337,1.29751,1.29751,0,0,1,.35373.01113.23283.23283,0,0,1,.03335.03019.42458.42458,0,0,1,.07685.17661v.31366c-.78774.19161-.79452.5-1.45755,1.51268a1.26217,1.26217,0,0,1-.32721-.03578,2.10053,2.10053,0,0,1-.40159,1.03879,10.30622,10.30622,0,0,1-1.15167,1.135,2.03592,2.03592,0,0,0-.28752.32884c-.447.64081-.31994,1.30968-.72974,2.00463-.02657.04518-.0527.08843-.08314.13169-.47265.68579-1.358.838-1.94712,1.38094l-.00144.00218c-.08987.06378-.17593.12956-.25466.19335a3.01878,3.01878,0,0,0-.28079.50719,9.0752,9.0752,0,0,0-.7916,1.877,14.28337,14.28337,0,0,0-.61909,1.77748V71.976h.28129a.50859.50859,0,0,0,.534,0h.03766c.00534-.01113.01113-.02054.01549-.03187a.62608.62608,0,0,0,.22279-.30618,18.59794,18.59794,0,0,1,1.40776-2.311,1.94577,1.94577,0,0,1,1.3174-1.52955c.25179-.09764.40452-1.01078.62779-1.567a1.2808,1.2808,0,0,1,.33924-.39243l.00628.00916a12.33839,12.33839,0,0,0-.37209,2.05367,3.307,3.307,0,0,0-.26243.90373v2.64931c0,.24046-.10293.17281-.19864.12758-.08358-.043-.1643-.0674-.1643.14282a6.71258,6.71258,0,0,0,.21507,1.3754,4.76369,4.76369,0,0,0,.41653,1.18933c.01692.03385.03385.06938.05127.1015.00723.01331.01352.0244.02078.03553.261.48111.59632.83074,1.01874.83074a.84876.84876,0,0,0,.47939-.14861.91189.91189,0,0,0,.24935-.19547c.19958-.231.61424-.29866.58187-.44509-.05463-.24432-.43687-.47532-.74908-.72345-.4881-.38689-.33638-.69713-.33638-1.35268a22.42115,22.42115,0,0,1,.14257-2.595c.09229-.59177.22571-.53159.45043-1.501.16187-.701.00094-.389.17688-1.08783.11213-.44365.20922-.88873.29335-1.33966a5.99064,5.99064,0,0,0,.12179-.95278c.03767-.19716.07636-.41317.11982-.65749-.071-.03765-.128-.06957-.18074-.10145-.015-.109-.03142-.22932-.04443-.37021a3.98908,3.98908,0,0,1,1.27146-2.76386,25.00306,25.00306,0,0,1,6.74506-4.84A6.05073,6.05073,0,0,1,118.39553,54.06272Z"/><path d="M189.32515,48.4485a2.38,2.38,0,0,0-1.04245.449,11.54857,11.54857,0,0,0-1.79678,1.34373c-.97816.82084-1.31062,1.10837-2.22643,1.99884l-.02855.02825c-.29044.27234-.53981.51106-.72731.6952a2.42574,2.42574,0,0,1-.44217.31751,1.05654,1.05654,0,0,1-.22329.05265h-3.25581a4.18238,4.18238,0,0,1-.13193-1.49377,1.85931,1.85931,0,0,1,.2368-.99558c.06285.01668.11115,0,.11357-.14688l.00435-.00534c.35665-.374.13916-2.28878.13916-2.53281a.41622.41622,0,0,0-.14351-.31949,1.64411,1.64411,0,0,0-1.026-.24234c-.49923,0-.79937-.01331-.91873.1974a.52436.52436,0,0,0-.028.05607c-.07492.16-.21606.52437-.37071.91339-.15123.38709-.316.79452-.43925,1.04463a5.34892,5.34892,0,0,0-.4248,2.58912c0,.67441.316,2.33347-.20686,2.79766-.34844.30618-1.52668.87157-1.80648,1.48244a.53638.53638,0,0,0,.04835.5787c.35665.10125.7239.16143,1.0854.23467.87474.173,2.72566.52046,3.25725,1.51456a1.48053,1.48053,0,0,1,.11793.58261c0,.58786-1.42518,2.80875-2.26459,2.80875a.90419.90419,0,0,1-.955-.54292c-.01064-.54491.65818-1.14222.90468-1.53515a1.30626,1.30626,0,0,0,.16093-.80055.31369.31369,0,0,0-.03093-.1597c-.07057-.12011-.24694-.0488-.48181-.0488h-.94338c-.31172,0-.67367.84183-.81189,1.09942a5.25949,5.25949,0,0,0-.94531,2.43863c0,.14277-.03335.41342-.057.69713a2.00571,2.00571,0,0,0,.057.975c.62923.25926,1.04388.41366,1.19467.838a1.734,1.734,0,0,1,.03335.823,10.57471,10.57471,0,0,1-1.68519,3.72411c-.36922.60869-.7578,1.20625-1.17146,1.78669-.17058.24234-.71187.6952-.70173,1.01657.01257.419-.0048.838,0,1.25312,0,.05825-.00193.11476,0,.173.01643.528.94432.2704,1.06516.2704.34844,0,.50017-.14668.519-.54877a7.09109,7.09109,0,0,1,.19914-1.39593,3.40729,3.40729,0,0,1,1.31933-2.06288v3.51171a2.21716,2.21716,0,0,0,.144.36828,2.14521,2.14521,0,0,0,1.52762,1.8432.61558.61558,0,0,0,.4678-.33468,1.46365,1.46365,0,0,0,.05508-.665.26333.26333,0,0,0-.15509-.21992v-.13891a1.302,1.302,0,0,1-.70752-1.00162,9.80858,9.80858,0,0,1,.5403-2.42359,7.06352,7.06352,0,0,1,1.69726-2.81652,2.53775,2.53775,0,0,1,1.95385-.52244h2.51351c.09808,0,.15757.079.19379.20493v1.18933c-.00579.07517-.01064.139-.01306.18607,0,.01495-.00193.03187-.00193.04686-.00193.08071-.00723.16167-.01643.2404-.00579.04519-.014.08844-.02029.13342-.01064.06211-.02415.12589-.03914.18993a3.61318,3.61318,0,0,1-.75824,1.42974c-.97623,1.0371-2.58358,1.52376-3.68447,2.67736.04543.0094.0918.02271.13772.03379-.08071.0677-.12278.124-.116.16554.07007.40377.35423.541.7573.541.6901,0,1.59676-.13535,2.28735-.13535h2.10078c.40688,0,.97475-.1597,1.357.08071a1.15884,1.15884,0,0,0,.92789.31558,6.54422,6.54422,0,0,1,.88147.0191c.47072.02969,1.908.19716,1.908-.592l-.001-.015a.16208.16208,0,0,1,.058-.01692v-.64635c-1.07189-1.11252-2.74545-1.42786-3.95126-2.02927a2.32773,2.32773,0,0,1-.029-.79669V69.3607a2.27794,2.27794,0,0,1,.50165-1.68731,4.16628,4.16628,0,0,1,.89216-.41129c1.18834-.3762,2.53523-.6466,2.85324-1.83593.00435-.01885.01109-.03578.01544-.05439.11115-.49052-.02172-1.51629-.619-1.51629h-.80951a.14107.14107,0,0,0-.10194.05439,1.41143,1.41143,0,0,0-.17736.49606,1.8468,1.8468,0,0,1-.78195.79115h-.00386a.91342.91342,0,0,1-.39629.09734c-.42044,0-.47265.02489-.60459-.09566h-.00337a.38459.38459,0,0,1-.02806-.02806v-1.755a4.42369,4.42369,0,0,1,1.258-3.055v-.82109c-.7186-.34938-.69544-1.08229-.997-1.3075a2.98437,2.98437,0,0,0-.14792.28153.49905.49905,0,0,0-.08408-.09012c-1.01533,1.67792-1.10233,3.89495-1.78377,5.6949-.16672.43979-.17543.81-.31845,1.10114a3.32758,3.32758,0,0,1-2.33278.485c-.92645.41317-1.21447.56925-1.99641.86211-.3808-.52407-.55767-.5016-.62438-.7911a2.67409,2.67409,0,0,1-.01306-.30806,3.14986,3.14986,0,0,1,.45622-.97891q1.033-2.10222,2.1912-4.14114a31.11952,31.11952,0,0,1,2.8716-4.38719,5.7036,5.7036,0,0,1,1.24634-1.21734,5.34594,5.34594,0,0,1,1.43825,0h1.97464a1.58408,1.58408,0,0,0,1.56969-.94145c.06572-.27426.27208-.3286.27208-.49581,0-.20107.11842-1.57454-.30108-1.4525a2.2611,2.2611,0,0,0-1.156.79283,2.02683,2.02683,0,0,1-1.50783.468,3.22408,3.22408,0,0,1-1.33962-.13366c-.07542-.09952,0-.55985,0-.68381a.45078.45078,0,0,1,.03959-.17662c.19721-.48666,1.142-.919,1.57647-1.17992a2.27793,2.27793,0,0,1,1.43726-.3533,3.22578,3.22578,0,0,1,1.04.34023c.06478.04884.0967-.11837.189-.21433.09615-.1015.24694-.13891.24694-.24427l.001-.04711a6.17137,6.17137,0,0,0,.17494-.84163.90072.90072,0,0,0-.145-.72538A2.12521,2.12521,0,0,0,189.32515,48.4485ZM177.48928,67.10023a2.06915,2.06915,0,0,0-.91047.41728,3.49693,3.49693,0,0,1,.01737-.35908v-.571c.22814-.02464.41079-.38708.83416-.36076v.13149c.02123,0,.03766-.00391.05894-.00391Zm3.43753-9.78536c-.01935.05463-.087.15227-.38516.2989a.76648.76648,0,0,1-.75008-.2989,1.25822,1.25822,0,0,0-.20008-.851c-.345-.35521-.01544-.39822.14693-.81723a.4733.4733,0,0,1,.06864-.11476.67183.67183,0,0,0,.03286-.17276h.18657c.33632-.17642.82832-.1786.88919.03939A18.08841,18.08841,0,0,1,180.92682,57.31488Z"/><path class="cls-2" d="M137.9222,46.9569v-.30256a.13776.13776,0,0,0,.073-.12609c0-.05993-.073-.15757-.073-.218,0-.00193-.01593-.05627.07108-.11452V45.386c-.03436-.00366-.04935,0-.07108-.02059v-.29717c0-.05993-.04686.01688-.04686-.04132V44.4185c0-.06018.04686.01861.04686-.04132v-.47364c.02172-.01881.03672-.01495.07108-.01881v-.36828c.00192-.06018.04878-.0638.04878-.124,0-.22348-.16672-.33078-.16672-.55793v-.67465a1.23762,1.23762,0,0,0-.17205-.29866h-1.10576c-.05894,0,.01163-.04712-.04779-.04712h-.59109c-.05894,0,.01163.04712-.04686.04712h-4.31613c-.00871,0-.12951-.04712-.144-.04712-.01158,0-.13579.04712-.14544.04712h-.98781c-.015,0-.0677-.04712-.13292-.04712a.37921.37921,0,0,0-.13337.049h-.35957a.16165.16165,0,0,1-.18266.11842c-.058,0-.03865-.04716-.09665-.04716h-.52293a.31663.31663,0,0,1-.26629.09764c-.00916,0-.12416-.05048-.1348-.05048h-1.199c-.05846,0-.05024-.04716-.07489-.04716-.30836.02252-.42628.04716-.52773.05077-.00391.05825-.01548.094-.04934.09759v.38155c-.00193.06018-.04928-.02464-.04928.03578,0,.05993.04735-.01693.04834.043v.3475c.0628.1015.06671.30083.21314.267-.03721.03553-.07106.109-.16286.079v.03553a.60169.60169,0,0,1-.01212.11669,6.13673,6.13673,0,0,0-.03815.98831c-.02128.02054-.04834.028-.04592.06186.03335.00385.04493-.05077.04686.00916v.59395c.03386.00386.04543.00386.04543.06379a.14654.14654,0,0,1-.01544.06211.30639.30639,0,0,0-.03192.107.32052.32052,0,0,0,.0532.11649v.68189c-.00584.081-.10055.31028-.10055.35715,0,.01885.07348.26288.09327.35522l.00049.00193h-.00049l.00242.02633v.80778c.03385.00386.04543.00386.04543.06379,0,.06018-.04642.02271-.04642.08457,0,.06018.04642-.013.04642.04691,0,.06206-.04642-.01113-.04642.04879,0,.06043.04642,0,.04642.06043,0,.06186-.04642-.01692-.04642.043v.69322c0,.06018-.04736.01163-.04444.04325.03287.00391.04444.03964.04543.06042-.02078.02054-.04835.02805-.04543.06186.03287.00386.04444.03771.04444.06379-.02415.96391,0,.98445-.00579,1.00523-.02994.01692-.03865.07705-.04058.13144-.001.01158-.001.02078-.001.03192a.77421.77421,0,0,0,.00678.128c.02078.09571.0145.19334.04058.6558,0,.04884-.04736.03721-.04736.09571,0,.06186.04736-.01692.04736.043v.29143c-.01979.02078-.04736-.03771-.04736.02247v.37016c0,.06186-.04735.00945-.04735.06938,0,.03964.09471.30252.09471.33443v.75363c0,.00921-.04736.079-.04736.11818,0,.1597.13629.188.26778.27451h.36724c.00391-.05825.05028-.0771.06864-.11842h.79547c.00969.00193.13242.04879.145.04879s.13628-.04686.14543-.04686h.6558c.131,0,.31608.16721.47993.16721h.28465c.06814-.06378.23294-.02993.27738-.05824a1.01693,1.01693,0,0,1,.289-.109h.34022c.05993,0-.01113.04686.04785.04493h.34938c.02806-.05265.029-.04493.08843-.04493a.53638.53638,0,0,1,.24115.11842c.00777-.03578.00391-.05077.02321-.07349h.2755c.0193.02271.01544.03771.0193.06963h1.17725c.00292-.03192,0-.04691.01836-.06963h1.649c.01836.02271.01495.03771.01836.07156h.79838c.01158-.03964.14787-.21413.23-.21413h.43638c.05755,0-.013.04859.04691.04859h.33151c.05894,0-.01158.049.04594.049h.332c.05994,0-.01212.04686.04686.04493h.60746c.15465-.15584.01742-.3569.28851-.31365a2.14162,2.14162,0,0,0-.043-.4678c0-.06211.04736-.13362.04736-.19354,0-.06018-.04736-.0152-.04736-.07512V51.04128c0-.07685.09378-.24239.09378-.32112v-.84549c-.05315-.03024-.04642-.05439-.04642-.11481a2.16728,2.16728,0,0,1,.16436-.65749c-.03436-.00554-.04935-.00386-.07157-.02247V47.86059a.13828.13828,0,0,0,.07349-.128c0-.04112-.01163-.07517-.073-.1259v-.2948c0-.05825-.04686.0186-.04686-.04132v-.27233C137.87534,46.938,137.9222,47.0151,137.9222,46.9569Zm-5.36966-4.70856c.1643,0,.289.1689.4393.1689h.34844c.05943,0,.03865.04711.09764.04711.05994,0,.06136.00727.08937-.04711h.39679c.05894,0-.01158-.04879.04737-.04879h.60987c.03865.079.13343.092.1885.16915h.55866c.07829,0,.23873.09591.31416.09591h.26915c.05849,0-.01207-.04879.04686-.04879h.28416c.05993,0-.01109-.04711.04642-.04711h.65675a.25165.25165,0,0,0,.12327.10125v.25951h-.3045c-.06087.00193.01065-.04686-.0478-.04686-.05948,0,.01158.04879-.04785.04879h-.80466c-.058,0,.01207-.04879-.04785-.04879h-.28272c-.06037,0,.01064-.04884-.04785-.04884h-.55381c-.00772,0-.12857-.049-.145-.049a.26935.26935,0,0,0-.13723.049h-.347c-.05943,0,.01163.04884-.04785.04884h-.331c-.05993,0,.01158.04879-.04642.04879h-.34021c-.01837.01885-.01446.03578-.01837.06765h-1.37441c-.06186.1972-.24551.29287-.40352.53159-.02949.00193-.0527-.04687-.10877-.05072a2.7589,2.7589,0,0,0-.05023-.37016c0-.05993.02558-.05632.04736-.07324-.04493-.11644-.09472-.09784-.09472-.216C131.53479,42.67848,132.48974,42.24834,132.55254,42.24834Zm1.561,1.96524c.01549-.498.13337-.30806.00386-.46587h.46637c.00386.03167.03914.04493.07057.04686v.15974c-.07542.05265-.06671.07126-.06671.07685,0,.128.06958.0923.06958.21795,0,.12421-.06958.10343-.06958.20493a.70026.70026,0,0,0,.13535.42282h.29623c.01979-.02074.0053-.04879.06474-.04879.058,0,.04349.02805.06285.04879h.6698c.05993-.00194-.01013-.04879.04785-.04711h.3518v.59563c-.09714.00584-.17637-.00168-.23922.12421h-.0865c-.00337-.03381.00148-.049-.01979-.07151H135.313a1.90679,1.90679,0,0,1-.52288.16915h-1.0516v-.09229c.12372-.01861.232-.21967.30009-.38689a1.65477,1.65477,0,0,0,.07492-.22734v-.32335c0-.05993.02707-.00168.04835-.02222v-.31221C134.16087,44.223,134.11352,44.238,134.11352,44.21358Zm1.90506-.109a2.07561,2.07561,0,0,1-.45958-.22378v-.2554h.70123c.00627.081.00627.154.00627.22739,0,.05825-.04784.12035-.05028.19913C136.13652,44.05581,136.078,44.10461,136.01858,44.10461Zm-3.25339-.13144c0-.1636.0928-.02657.21844-.22546h.3668c-.04686.04132-.042.05246.00534.46587-.11021.28732-.08363.80971-.38664.95084h-.24986v-.71429a2.64222,2.64222,0,0,0,.09378-.28559C132.813,44.10461,132.76519,44.03116,132.76519,43.97317Zm-1.27489.76067v-.07131h.20686l-.06235.18775c-.02365.18414-.03043.03385-.05844.145h-.31078c-.04879.00193-.12614.09764-.19379.17276a.51929.51929,0,0,1-.04157.04518h-.491c-.058.00193.01207.04691-.04642.04691h-.40693c-.01836.13916-.22086,0-.2851.12223h-.57029a.546.546,0,0,0-.2368.09571h-.41465V45.2676a2.96582,2.96582,0,0,1,.46686-.1015.38537.38537,0,0,0,.22424-.12011h.46685c.05795,0-.01355-.04879.04637-.04879h.506c.06522,0,.24308-.04543.2808-.12035h.35758C131.123,44.87492,131.20471,44.687,131.4903,44.73384Zm-4.30984-.44895c0-.05993-.07052-.15588-.07052-.21606,0-.12951.07052-.01861.07443-.1783h.62968c.02657.07685.09424.12011.16964.17251.00094.1015.04831.21072.04831.27065,0,.22566-.30446.27837-.461.27837a2.25107,2.25107,0,0,1-.45909-.1015V44.3994C127.20272,44.33561,127.18045,44.29261,127.18045,44.28489Zm1.01439,2.86338v.35329c-.03236.00193-.04394.03766-.0478.07344h-.10922c-.11021-.18221-.08022-.36462-.218-.54683C127.9769,47.07116,128.07068,47.12021,128.19484,47.14827Zm2.0897.96579v.11481h-.53016a1.17545,1.17545,0,0,1-.158.04855.9932.9932,0,0,1-.16722-.04855c-.05943,0,.01207.04855-.04785.04686h-.18845v-.11258c.08215-.05078.30059-.10536.33681-.22185h.2025C129.85588,48.052,130.111,48.04255,130.28454,48.11406Zm-.31073-1.19487v-.109h.17979v.3325C130.12074,47.00763,130.00667,46.97551,129.97381,46.91919Zm-.60558.25926c-.04587.03192-.21022-.00193-.27881.05825h-.131v-.30638h.2605V46.859h.42044C129.56688,46.96992,129.44895,47.06587,129.36823,47.17846Zm1.52376-1.19487a.19077.19077,0,0,0-.12852.08626c-.04543.01524-.202-.06379-.203.08289h-.7771c-.05992.00168.01158.05072-.04637.05072h-.3813c-.05755,0,.014.04879-.04592.04493h-.4533c-.00821.07685-.06671.07517-.14985.07517-.09759,0-.05943-.07131-.19908-.07878l.1643-.19355c-.086.00169-.11453.00362-.11453.00169,0,0,.101-.01326.06666-.06379h.30786c.05894-.00361.02321-.01524.02657-.04711.03236-.00554.00821.0435.06671.0435h.50695c.014,0,.19622-.0435.23245-.11842h.36921c.00534.03553,0,.05077.01984.0713.02029-.00192.03187-.03577.03573-.0713h.55094a.44715.44715,0,0,1,.15173,0Zm-2.00557-1.88477v-.30425c.115-.00194.20151.02638.21458-.122h.31222c.058-.002.05023-.05077.07443-.05077.73746,0,.74567-.04711.75582-.04711a.50775.50775,0,0,0,.11258.04711v-.11644h.25179v.37546a5.90252,5.90252,0,0,1-1.18982.39293h-.3141C129.03043,44.223,128.96087,44.15147,128.88643,44.09882Zm-1.65955-1.68158c.10971,0,.21651.16746.27594.16746h.765c.05993,0-.00965-.04711.04835-.04711h.40931c.01984-.02054.01643-.03746.01984-.06958h.464a.76281.76281,0,0,0,.44651.16549h.38709c.05943,0-.01158-.04879.04785-.04879h.6321a2.19736,2.19736,0,0,1,.17207.16336c-.05894.00554-.09472,0-.12273.05458h-.69064a.63518.63518,0,0,0-.33.09764h-.40065c-.01983.01885-.01692.03578-.01983.06958h-.52581c-.05988.00168-.09036.04691-.14158.09764h-.82975c-.01841.02054-.01549.03577-.01841.07126h-.31266c-.05943.00193-.0865.04325-.1155.096h-.41609c-.00435-.03385-.03914-.04686-.07393-.05463C127.03358,43.03172,127.03259,42.41724,127.22687,42.41724Zm.00145,3.40853a3.48378,3.48378,0,0,0-.1638-.35542V45.386c.03285-.00366.04542-.0527.10293-.0527a2.25714,2.25714,0,0,1,.43736.1015v.41535a.49427.49427,0,0,0,.09566.31172v.36269c0,.0621-.0483.064-.0483.124a.32466.32466,0,0,0,.01885.13921h0a.162.162,0,0,0,.09709.07126v.11283c-.11308.015-.28995-.01495-.33244.09571h-.15758c-.00287-.03192.00435-.06933-.04977-.09957Zm-.12322,2.58333h.00142l-.00628-.01495-.00287-.00193h0a.20743.20743,0,0,1-.03285-.09957v-.32889h.1005c.29287,0,.31459.46978.6031.43593v.09012c-.1353.00386-.2803.20493-.2803.25565a1.92571,1.92571,0,0,0,.37407.81723v.1353c-.21943-.1974-.46973.00192-.46973-.34746,0-.0621.0483-.1822.0483-.24263,0-.25175-.22517-.36437-.1643-.64635a.55045.55045,0,0,0-.16237-.02054.09713.09713,0,0,0-.00727-.03192Zm1.14339,1.582c.15614-.00361.42242,0,.42242-.28,0-.11451-.12277-.25372-.15851-.34359a.48806.48806,0,0,0-.05364-.23125c0-.02831.04587-.05077.0493-.08626h.53595a1.60348,1.60348,0,0,1,.17107.32474c0,.05825-.04642.01524-.04735.07517v.53184c-.03094.01692-.059.03187-.088.04686-.06859.03385-.13579.06958-.20537.10343h-.62586Zm-1.01533,1.95024c.043-.17469-.17058-.27426-.17058-.42094,0-.06013.11788-.19354.11788-.25367,0-.1257-.07052-.08992-.07052-.21774,0-.20468.11694-.4342.12179-.7911h.086c.09567.498.72781.513,1.04583.7573a8.50394,8.50394,0,0,0-.73945.44727C127.46174,51.575,127.39795,51.80051,127.23316,51.94135Zm2.09787.50551h-.7399a.71765.71765,0,0,0-.35179.16722H127.774a1.47688,1.47688,0,0,1,1.23332-1.02963V51.511h.25323v.53545c.02222.0191.03766.01524.07053.0191Zm.52485-3.56412c.0575-.00386.10536-.05077.16336-.05077.05993,0,.04394.02638.06473.0486h.35472c.15658.21047.18271.43974.33156.67659a.525.525,0,0,1,.26624.10317c-.0623.1411-.33973.16356-.48181.25566h-.40886c-.21067-.17474-.16044-.50744-.28995-.70851Zm.6128,3.611c-.059.00391.01257.0527-.04736.04884h-.23393v-.59177c-.00193-.05993-.11986-.1786-.11986-.23873a1.062,1.062,0,0,1,.12372-.29845h.19237c.18265-.00194.333.21022.43978.31919v.31365c.02029.0191.03573.01524.06958.0191v.31751a.239.239,0,0,1,.09521.11065Zm1.5977.00391c-.0237,0-.0145-.05077-.07392-.05077h-.4345c-.05988,0-.03574.05077-.0686.04686v-.0865c.04736-.05241.09521-.09952.14064-.1445V51.13719c-.2122-.37744-.77809-.244-1.06566-.48666.08606-.05072.1885-.01134.21651-.13144h.52536c.157,0,.44944-.35131.56253-.49052h.00142a.55031.55031,0,0,1,.04449-.05607v-.56762c-.20636-.06765-.56064.05246-.42678-.34191-.02123-.01885-.05894-.01519-.11694-.01885v-.20656c.04058-.03386.5408-.064.5408-.25931a.46525.46525,0,0,0-.09086-.16915h0a.35936.35936,0,0,1-.07057-.18242c-.09229.00218-.23292-.11817-.29866-.11817-.02949,0-.04592-.013-.08893.06958H130.993c-.00238-.0338.02128-.064.04884-.11862h.303c.05894,0-.01206-.04855.04785-.04662h.33636a3.18835,3.18835,0,0,1,.28417-.33636h.10921a5.0561,5.0561,0,0,0,.19231.73261h0a1.74994,1.74994,0,0,0,.07057.16529v.58068c0,.26867-.27014.57678-.45909.87351h-.00193a.91726.91726,0,0,0-.17593.45671v.622a2.35146,2.35146,0,0,0,.80131,1.35654Zm5.26287-5.48834c.00144.107-.20978.45286-.20978.63117V47.994c0,.06018.04642-.01885.04642.04107v.39674c0,.058-.04642.03721-.04642.09764,0,.05993-.00772.06186.0435.09012v1.22872c.07636.00751.07393.07131.07393.15227a.19042.19042,0,0,1-.00435.028,2.27791,2.27791,0,0,0-.16138.40956v1.17463c0,.22348-.20587.45063-.2658.665-.203-.06186-.19622-.27979-.32528-.43974v-.37021c0-.07686-.47409-.78893-.54416-1.00692v-.58449a5.49707,5.49707,0,0,0,.54416-1.287c0-.05993-.0478.03771-.0478-.02247v-.65749a1.50669,1.50669,0,0,1-.16578-.37021c0-.06018.04736-.03187.04736-.09036v-.50526c-.03721-.0244-.21651-.137-.22665-.13891h-.72588a.53715.53715,0,0,0-.06478.19354c0,.19523.06963.584.16435.63309v.62918a.28507.28507,0,0,0,.057.14668l.00335.00193h-.00335a.44108.44108,0,0,0,.03864.04305v.32136a4.72172,4.72172,0,0,0-.52194,1.10862.54293.54293,0,0,0-.01544.14475h.00193l-.00193.00168.00193.02078h.001a1.64329,1.64329,0,0,0,.06186.22907,1.06517,1.06517,0,0,1-.0493.16915c0,.06042.0493-.01306.04206.0471v.2989a3.04241,3.04241,0,0,0,.53981.89621,1.56751,1.56751,0,0,0,.26872.599v.15608c-.057.00193-.09279-.00386-.12084.04879h-.58668v-.20295a4.37706,4.37706,0,0,0-.51323-.8491,4.54594,4.54594,0,0,0-.173-.71573v-.8496a11.47988,11.47988,0,0,0,.42529-1.2981.9642.9642,0,0,0-.03627-.16915h0a5.57111,5.57111,0,0,0-.50695-1.2739c0-.04686-.029-.20855-.10922-.21047h-.31314c-.00437-.0338,0-.05072-.01837-.07151h-.44271c-.0193.02078-.01544.049-.01544.109a2.469,2.469,0,0,0,.47216,1.05813v.84332c0,.3139-.42381.75755-.42381.92279v.7194a3.65478,3.65478,0,0,0,.31989.91893c.08413.25347.02657.71959.31416.86048v.20849c-.12372.00391-.29773.12421-.36246.12421-.11021,0-.53258-.25372-.53258-.32716,0-.06018.04642-.10872.04642-.16915,0-.462-.63893-.60483-.63893-1.18161,0-.05849.04736-.03212.04736-.092v-.46419a1.56043,1.56043,0,0,1,.1595-.35522h0a4.17755,4.17755,0,0,0,.31608-.65194V49.05c.0338-.00218.0483.00168.07057-.01911V48.2458c-.116-.09235-.02613-.19572-.16578-.2895v-.43593a5.30883,5.30883,0,0,1-.34987-.66882h-.81623c-.01936.06765-.08894.0865-.0928.1689h-.45142a1.04912,1.04912,0,0,1-.27352.34022v-.55044a.54724.54724,0,0,0,.1015-.02247h-.00193l.00821-.00193-.00628.00193h.00628c.38323-.12807.32815-.66526.52145-.96945v.27208c.00579.33275.36536.25011.49487.45113h.84381a2.3175,2.3175,0,0,1,.5451-.17083h.9366c.05993,0-.01158.04879.04737.04879h1.30145c.05849,0-.01207-.04879.04686-.04879h.93224c.05943,0,.07393-.04711.11357-.04543a1.77338,1.77338,0,0,0,.02415-.28732c.03093-.00361.05513.04325.088.04716v.58232c.03286.02608.09373.12976.21265.092Z"/><path class="cls-3" d="M128.92557,14.56448a2.17084,2.17084,0,0,0-.941-.21021c-.403,0-.8781.14475-.8781.66887,0,.96555,2.15878.74206,2.15878,2.39751,0,1.069-.82832,1.49357-1.8335,1.49357a3.45313,3.45313,0,0,1-1.03037-.20469l.0725-.67079a3.07328,3.07328,0,0,0,1.042.24432.89943.89943,0,0,0,.98682-.8211c0-1.1236-2.15829-.81357-2.15829-2.3731,0-.8926.706-1.366,1.61076-1.366a3.35039,3.35039,0,0,1,1.07189.18028Z"/><path class="cls-3" d="M130.98384,14.341h-.76551v-.759h.76551Zm-.721.821h.67754v3.66587h-.67754Z"/><path class="cls-3" d="M137.70569,14.636a2.01971,2.01971,0,0,0-1.03567-.28173,1.86636,1.86636,0,0,0-1.92827,1.96524,1.87392,1.87392,0,0,0,1.89348,1.96355,2.48061,2.48061,0,0,0,1.09317-.24432l.044.6952a3.11184,3.11184,0,0,1-1.14395.18028,2.47268,2.47268,0,0,1-2.64831-2.61719,2.50175,2.50175,0,0,1,2.65509-2.57417,2.78375,2.78375,0,0,1,1.1299.21606Z"/><path class="cls-3" d="M138.56836,13.43534h.67609v2.25083h.01593a1.33908,1.33908,0,0,1,1.17725-.61231c.95011,0,1.37446.58984,1.37446,1.57453v2.17952h-.67565V16.93013c0-.85469-.18751-1.272-.77611-1.30968-.77037,0-1.11589.62-1.11589,1.51263v1.69484h-.67609Z"/><path class="cls-3" d="M146.207,18.82791h-.6563v-.58063h-.01495a1.31616,1.31616,0,0,1-1.20145.66694c-.94674,0-1.37247-.58816-1.37247-1.57454V15.162h.678v1.89952c0,.85494.18464,1.27029.77616,1.308.76646,0,1.113-.61834,1.113-1.51074V15.162h.678Z"/><path class="cls-3" d="M147.52872,15.41943a2.32944,2.32944,0,0,1,1.20724-.34557c1.052,0,1.47447.51858,1.47447,1.518v1.51822a5.63411,5.63411,0,0,0,.02994.71786h-.63359v-.47528h-.01495a1.35919,1.35919,0,0,1-1.13618.56158c-.79016,0-1.344-.34364-1.344-1.14221,0-.92091,1.00523-1.20818,1.706-1.20818.26293,0,.45043,0,.71623.01326,0-.63142-.22908-.95664-.90324-.95664a1.717,1.717,0,0,0-1.06561.376Zm2.00512,1.66292c-.14208,0-.28708-.01326-.42915-.01326-.36873,0-1.27489.05651-1.27489.70292a.64713.64713,0,0,0,.68287.59755.92706.92706,0,0,0,1.02117-.96415Z"/><path class="cls-3" d="M151.35433,15.162h.65432v.58261h.01306a1.32347,1.32347,0,0,1,1.20239-.6708c.9506,0,1.37441.58984,1.37441,1.57453v2.17952H153.921V16.93013c0-.85469-.18657-1.272-.77616-1.30968-.76982,0-1.113.62-1.113,1.51263v1.69484h-.67753Z"/><path class="cls-3" d="M126.60249,22.43895h1.48269a2.45753,2.45753,0,0,1,2.67444,2.46714,2.37209,2.37209,0,0,1-2.67444,2.55141h-1.48269Zm.7191,4.38546h.75389a1.688,1.688,0,0,0,1.92154-1.89007,1.75044,1.75044,0,0,0-1.83261-1.864h-.84282Z"/><path class="cls-3" d="M133.39877,23.70344a1.81005,1.81005,0,0,1,1.86206,1.9203,1.86574,1.86574,0,1,1-3.7299,0A1.80952,1.80952,0,0,1,133.39877,23.70344Zm0,3.29377a1.23039,1.23039,0,0,0,1.14489-1.37347,1.1667,1.1667,0,1,0-2.29655,0A1.23,1.23,0,0,0,133.39877,26.99722Z"/><path class="cls-3" d="M139.41117,27.4575h-.65678v-.58232h-.01258a1.32137,1.32137,0,0,1-1.2019.66862c-.95009,0-1.37248-.58791-1.37248-1.57236V23.788h.6756v1.90145c0,.85488.18751,1.2739.77616,1.30775.76839,0,1.11346-.6179,1.11346-1.5105V23.788h.67852Z"/><path class="cls-3" d="M142.65971,22.43895h.72009V24.5378h2.39993V22.43895h.71959V27.4575h-.71959V25.17089H143.3798V27.4575h-.72009Z"/><path class="cls-3" d="M150.99427,27.4575h-.65432v-.58232h-.01549a1.31567,1.31567,0,0,1-1.2.66862c-.94917,0-1.37391-.58791-1.37391-1.57236V23.788h.67461v1.90145c0,.85488.189,1.2739.7771,1.30775.77131,0,1.11638-.6179,1.11638-1.5105V23.788h.6756Z"/><path class="cls-3" d="M152.31652,24.04728a2.34219,2.34219,0,0,1,1.20818-.34384c1.05017,0,1.475.52051,1.475,1.51822V26.7379a5.985,5.985,0,0,0,.02756.71959h-.63166v-.475h-.0145a1.35888,1.35888,0,0,1-1.13568.56133c-.79259,0-1.34546-.34364-1.34546-1.14226,0-.92229,1.00667-1.20793,1.705-1.20793.26535,0,.4538,0,.71865.01306,0-.63142-.22858-.95614-.90517-.95614a1.7231,1.7231,0,0,0-1.0661.37378Zm2.00705,1.663c-.14356,0-.28807-.01306-.43158-.01306-.36729,0-1.273.05632-1.273.70435a.64333.64333,0,0,0,.68337.59568.92619.92619,0,0,0,1.02117-.96391Z"/><path class="cls-3" d="M126.60249,31.06517h1.23139c.9936,0,1.949.15969,1.949,1.36016a1.16876,1.16876,0,0,1-1.03562,1.14439v.01306c.22324.0865.331.19547.48809.50551l.9511,1.999h-.82159l-.76938-1.74c-.22279-.49027-.461-.49027-.84089-.49027h-.433v2.23029h-.7191Zm.7191,2.15853h.61181c.68238,0,1.08639-.30059,1.08639-.78338,0-.45287-.345-.74039-1.0071-.74039h-.6911Z"/><path class="cls-3" d="M133.78779,35.9351a2.81232,2.81232,0,0,1-1.15744.23847,1.75472,1.75472,0,0,1-1.89879-1.98577,1.70275,1.70275,0,0,1,1.71755-1.85453c1.22268,0,1.61947.89042,1.61947,2.0706h-2.62079a1.20207,1.20207,0,0,0,1.2111,1.22313,2.17091,2.17091,0,0,0,1.1289-.36823Zm-.4388-2.03482a.92569.92569,0,0,0-.91339-1.02018,1.01848,1.01848,0,0,0-.98781,1.02018Z"/><path class="cls-3" d="M134.69925,35.36749a1.7831,1.7831,0,0,0,.84089.25951c.3093,0,.69109-.12951.69109-.52407,0-.66912-1.588-.61255-1.588-1.6405,0-.7626.56836-1.12915,1.29518-1.12915a2.84229,2.84229,0,0,1,.84188.14282l-.058.59a1.97176,1.97176,0,0,0-.71474-.186c-.34457,0-.64808.14252-.64808.44509,0,.7481,1.59092.53184,1.59092,1.70423a1.15359,1.15359,0,0,1-1.27969,1.14414,2.0873,2.0873,0,0,1-1.00716-.201Z"/><path class="cls-3" d="M139.71948,32.96468h-.9704v2.00651a.58163.58163,0,0,0,.56688.6558.84479.84479,0,0,0,.461-.12951v.57677a2.19886,2.19886,0,0,1-.5741.09931c-.70024,0-1.1294-.33052-1.1294-1.06511V32.96468h-.82837v-.543h.82837v-.84935l.6756-.218v1.06734h.9704Z"/><path class="cls-3" d="M140.73872,32.681a2.31685,2.31685,0,0,1,1.21061-.3477c1.05017,0,1.473.51684,1.473,1.51624v1.518a6.04976,6.04976,0,0,0,.028.71984h-.63209v-.47721h-.01258a1.35735,1.35735,0,0,1-1.13766.56345c-.78966,0-1.3454-.34358-1.3454-1.14414,0-.92234,1.0071-1.20793,1.70547-1.20793.26674,0,.45231,0,.7186.01306,0-.63141-.22908-.95446-.90567-.95446a1.7386,1.7386,0,0,0-1.067.37209Zm2.008,1.6591c-.14594,0-.28609-.015-.43252-.015-.36487,0-1.27148.05825-1.27148.70434a.6465.6465,0,0,0,.68381.59757.92666.92666,0,0,0,1.02018-.96386Z"/><path class="cls-3" d="M147.80951,36.08733h-.65387v-.58063h-.015a1.31886,1.31886,0,0,1-1.20047.66688c-.95011,0-1.37342-.58983-1.37342-1.57423V32.42171h.67461v1.89566c0,.85682.18706,1.2739.77809,1.30963.768,0,1.11348-.62,1.11348-1.5107V32.42171h.67659Z"/><path class="cls-3" d="M148.95876,32.42171h.63309v.56544h.01495a1.11836,1.11836,0,0,1,.95639-.65387,1.94593,1.94593,0,0,1,.44608.04879v.60508a.99366.99366,0,0,0-.37259-.064c-.607,0-1.00088.57316-1.00088,1.49377v1.67044h-.677Z"/><path class="cls-3" d="M151.93086,32.681a2.29809,2.29809,0,0,1,1.20724-.3477c1.05061,0,1.47492.51684,1.47492,1.51624v1.518a6.35633,6.35633,0,0,0,.02613.71984H154.008v-.47721h-.01549a1.35622,1.35622,0,0,1-1.13469.56345c-.7916,0-1.346-.34358-1.346-1.14414,0-.92234,1.00766-1.20793,1.704-1.20793.2658,0,.4533,0,.721.01306,0-.63141-.231-.95446-.9076-.95446a1.71189,1.71189,0,0,0-1.06175.37209Zm2.00606,1.6591c-.1445,0-.28851-.015-.433-.015-.36581,0-1.27341.05825-1.27341.70434a.64769.64769,0,0,0,.6848.59757.92809.92809,0,0,0,1.02161-.96386Z"/><path class="cls-3" d="M155.755,32.42171h.65383v.58039h.01356a1.322,1.322,0,0,1,1.2014-.66882c.94818,0,1.37446.58984,1.37446,1.57642v2.17764h-.67659V34.18781c0-.85682-.18751-1.272-.7771-1.3077-.76844,0-1.11539.61617-1.11539,1.50877v1.69845H155.755Z"/><path class="cls-3" d="M162.098,32.96468h-.97138v2.00651a.58257.58257,0,0,0,.56787.6558.84446.84446,0,0,0,.46058-.12951v.57677a2.18918,2.18918,0,0,1-.57559.09931c-.69737,0-1.128-.33052-1.128-1.06511V32.96468h-.82881v-.543h.82881v-.84935l.6751-.218v1.06734h.97138Z"/><rect class="cls-4" width="209.4816" height="95.3131"/></g></g></svg>