<?xml version="1.0" encoding="utf-8"?>
<!-- Generator: Adobe Illustrator 21.0.0, SVG Export Plug-In . SVG Version: 6.00 Build 0)  -->
<svg version="1.1" id="Layer_1" xmlns="http://www.w3.org/2000/svg" xmlns:xlink="http://www.w3.org/1999/xlink" x="0px" y="0px"
	 viewBox="0 0 180 95.3" style="enable-background:new 0 0 180 95.3;" xml:space="preserve">
<style type="text/css">
	.st0{fill:#D8003B;}
	.st1{fill:#261C02;}
	.st2{fill:none;}
</style>
<title>PR-hd</title>
<g id="Layer_2">
	<g id="Layer_1-2">
		<rect x="12.4" y="55.2" class="st0" width="155.8" height="1.3"/>
		<path class="st1" d="M135,43.4l2.9-6.9l2.9,6.9H135z M162.9,45.6L162.9,45.6c-0.8,1.7-1.6,2.7-2.4,3.1c-0.8,0.4-2.4,0.6-4.8,0.6
			c-0.6,0-1,0-1.3,0c-0.2,0-0.4,0-0.6-0.1c-0.2,0-0.4-0.1-0.6-0.3c-0.1-0.2-0.1-0.4-0.1-0.6v-13c-0.1-0.6,0.1-1.2,0.5-1.6
			c0.6-0.3,1.3-0.5,1.9-0.5l0.1,0v-0.8h-8v0.8l0.1,0c0.7,0,1.3,0.1,1.9,0.5c0.3,0.5,0.5,1.2,0.4,1.8v12.1c0,1.7-0.7,2.3-1.9,2.3
			c-0.5,0-1-0.1-1.4-0.4c-0.5-0.5-0.8-1.2-1-1.8l-6.7-15.2h-1l-7.6,18l-0.1,0.2h1.7l0-0.1l2.3-5.8h6.9c0.2,0.5,1.4,3.3,1.7,4.1
			c0.3,1,1.2,1.7,2.3,1.8h17.1l0-0.1l1.3-4.7l0.1-0.2L162.9,45.6z M127.2,49.4c-0.2-0.2-0.5-0.6-0.5-1.8v-5.2l6.4-9.7l0.2-0.2h-1.8
			l0,0.1l-5.3,8.2c-0.7-1-3.7-5.4-4.1-6.1l-0.1-0.1c-0.6-0.8-1.4-2-2.8-2h-3.2v0.8l0.1,0c0.6,0,1.3,0.3,1.7,0.8
			c0.9,1.1,1.8,2.2,2.6,3.4l3.5,5.2v4.7c0,1.4-0.2,1.9-0.4,2.1c-0.2,0.2-0.7,0.4-2.2,0.5l-0.1,0v0.8h8.6v-0.8l-0.1,0
			C128.6,49.9,127.9,49.7,127.2,49.4 M112.7,47.8c-1,1.2-2.4,1.9-4,1.9c-1.6,0-3.1-0.7-4-2c-1.1-1.3-1.7-3.4-1.7-6.2
			c0-2.8,0.6-4.9,1.7-6.2c1-1.3,2.4-2,4-2c1.5,0,3,0.7,4,1.9c1.1,1.3,1.7,3.4,1.7,6.3C114.4,44.4,113.8,46.5,112.7,47.8 M108.7,32
			c-2.3-0.1-4.6,0.8-6.3,2.4c-1.9,1.9-2.9,4.4-2.8,7.1c-0.1,2.5,0.8,5,2.6,6.9c1.7,1.7,4,2.7,6.4,2.6c2.3,0,4.5-0.8,6.2-2.4
			c1.9-1.9,3-4.5,2.9-7.1c0.1-2.6-0.9-5.2-2.8-7.1C113.3,32.8,111.1,32,108.7,32 M89.2,41v-6.6c0-0.3,0.1-0.6,0.2-0.7
			c0.4-0.1,0.9-0.2,1.3-0.1c0.9,0,1.8,0.1,2.7,0.5c1.2,0.5,2,1.8,1.9,3.1c0.1,1.4-0.7,2.7-2.1,3.2C91.9,40.8,90.6,41,89.2,41
			 M69.6,41.1L69.6,41.1L69.6,41.1C69.6,41.1,69.6,41.1,69.6,41.1 M52.2,41v-6.6c0-0.3,0.1-0.6,0.2-0.7c0.4-0.1,0.9-0.2,1.3-0.1
			c0.9,0,1.8,0.1,2.7,0.5c1.2,0.5,2,1.8,1.9,3.1c0.1,1.4-0.7,2.7-2.1,3.2C54.9,40.8,53.6,41,52.2,41 M34.7,43.4l2.9-6.9l2.9,6.9
			L34.7,43.4z M100.2,49.5c-0.4-0.2-0.7-0.5-1-0.9l-5.5-6.7c1.2-0.2,2.4-0.7,3.4-1.4c0.9-0.8,1.4-2,1.4-3.2c0.1-2-1.2-3.7-3.1-4.3
			c-1.3-0.4-2.6-0.6-4-0.6h-7.7v0.8l0.1,0c0.6,0,1.3,0.2,1.8,0.5c0.3,0.5,0.5,1.2,0.4,1.8v11.8c0,1.4-0.2,1.9-0.4,2.1
			c-0.6,0.4-1.4,0.6-2.1,0.6c-0.9,0.1-1.7-0.1-2.5-0.6c-0.8-0.7-1.6-1.5-2.4-2.3l-6.4-6.9c0,0,3.8-3.6,5.2-4.8
			c1.2-1.3,2.9-2,4.7-2.1v-0.8h-7.5l0,0.8c1.1,0,2.1,0.2,1.9,1c-0.1,0.5-0.9,1.2-2.9,3.1c-1.1,1-2.5,2.3-4.2,3.8v-5.5
			c-0.1-0.6,0.1-1.3,0.4-1.8c0.6-0.4,1.3-0.5,2-0.5l0.1,0v-0.8h-8v0.8l0.1,0c0.7,0,1.3,0.1,1.9,0.5c0.2,0.2,0.4,0.6,0.4,1.8v11.8
			c0,1.4-0.2,1.9-0.4,2.1c-0.3,0.4-0.6,0.5-1.5,0.5c-0.5,0-1-0.1-1.5-0.4c-0.4-0.2-0.7-0.5-1-0.9l-5.5-6.7c1.2-0.2,2.4-0.7,3.4-1.4
			c0.9-0.8,1.4-2,1.4-3.2c0.1-2-1.2-3.7-3.1-4.3c-1.3-0.4-2.6-0.6-4-0.6h-7.7v0.8l0.1,0c0.6,0,1.3,0.2,1.8,0.5
			c0.3,0.5,0.5,1.2,0.4,1.8v11.8c0,2-0.5,2.6-1.5,2.6c-0.4,0-0.8-0.2-1.1-0.4c-0.4-0.6-0.8-1.2-1-1.8l-6.7-15.1h-1l-7.6,18l-0.1,0.2
			h1.7l0-0.1l2.3-5.8h6.9c0.2,0.5,1.4,3.3,1.7,4.1c0.3,1,1.2,1.7,2.3,1.8h9.5v-0.8l-0.1,0c-0.7,0-1.3-0.2-1.9-0.5
			c-0.2-0.2-0.4-0.6-0.4-1.8v-5.2l1-0.1c0.5,0.6,5.2,6.4,5.7,7c0.7,0.8,1.7,1.3,2.8,1.4h10.4v-0.7l-0.1,0c-0.7,0-1.3-0.2-1.9-0.5
			c-0.2-0.2-0.4-0.6-0.4-1.8v-4.8l0.7-0.6c0.8,0.8,5.5,6,6.1,6.5c0.6,0.6,2,2,3.7,2h11.6v-0.8l-0.1,0c-0.7,0-1.3-0.2-1.9-0.5
			c-0.2-0.2-0.4-0.6-0.4-1.8v-5.2l1-0.1c0.5,0.6,5.2,6.4,5.7,7c0.7,0.8,1.7,1.3,2.8,1.4h2.9v-0.8l-0.1,0
			C101.1,49.8,100.6,49.7,100.2,49.5 M22.9,34.1c0-0.3,0-0.5,0.2-0.7c0.3-0.2,0.7-0.2,1.1-0.2c1,0,2,0.1,3,0.5
			c1.4,0.6,2.3,2,2.2,3.5c0,1.8-0.7,3-2,3.7c-1,0.4-2,0.6-3,0.5c-0.1,0-0.3,0-0.4,0c-0.2,0-0.5,0-1-0.1L22.9,34.1z M22.9,47.5v-5
			c0.2,0,0.6,0,1.1,0c0.5,0,0.9,0,1.2,0c1.9,0.1,3.8-0.4,5.6-1.3c1.4-0.8,2.3-2.4,2.1-4.1c0-1.5-0.7-2.8-1.9-3.6
			c-1.7-1-3.8-1.5-5.8-1.4h-7.9v0.5c0.7,0,1.4,0.2,2,0.6c0.4,0.6,0.5,1.2,0.5,1.9v12c0.1,0.8-0.1,1.5-0.4,2.2
			c-0.6,0.4-1.3,0.7-2,0.6v0.7h8.4V50c-0.8,0-1.5-0.2-2.2-0.5C23.1,49.2,22.9,48.5,22.9,47.5"/>
		<polygon class="st1" points="36,64 36,61.3 36.7,61.3 36.7,67.9 36,67.9 36,64.7 32.6,64.7 32.6,67.9 31.8,67.9 31.8,61.3 
			32.6,61.3 32.6,64 		"/>
		<path class="st1" d="M41.1,64.6c0,1.5,1.2,2.7,2.7,2.7c1.5,0,2.7-1.2,2.7-2.7c0-1.5-1.2-2.7-2.7-2.7
			C42.3,61.9,41.1,63.1,41.1,64.6 M47.3,64.6c0,1.9-1.5,3.5-3.4,3.5c-1.9,0-3.5-1.5-3.5-3.4c0-1.9,1.5-3.5,3.4-3.5c0,0,0,0,0,0
			C45.7,61.2,47.2,62.7,47.3,64.6C47.3,64.6,47.3,64.6,47.3,64.6"/>
		<polygon class="st1" points="52.6,67.9 51.9,67.9 51.9,62 50.3,62 50.3,61.3 54.2,61.3 54.2,62 52.6,62 		"/>
		<polygon class="st1" points="57.6,61.3 61.1,61.3 61.1,62 58.4,62 58.4,64 61,64 61,64.7 58.4,64.7 58.4,67.2 61.1,67.2 
			61.1,67.9 57.6,67.9 		"/>
		<polygon class="st1" points="65.7,67.2 67.5,67.2 67.5,67.9 64.9,67.9 64.9,61.3 65.7,61.3 		"/>
		<path class="st1" d="M73.9,62.6c-0.2-0.4-0.6-0.7-1.1-0.7c-0.6,0-1.1,0.4-1.1,1c0,0,0,0,0,0c0,0.6,0.6,0.8,1,1l0.4,0.2
			c0.9,0.4,1.6,0.8,1.6,1.9c0,1.2-1,2.1-2.1,2c-1,0-1.8-0.7-2-1.7l0.7-0.2c0.1,0.7,0.6,1.2,1.3,1.2c0.7,0,1.3-0.6,1.4-1.3
			c0-0.8-0.6-1-1.2-1.3l-0.4-0.2c-0.8-0.4-1.4-0.7-1.4-1.7c0-1,0.8-1.7,1.8-1.7c0,0,0,0,0.1,0c0.7,0,1.4,0.4,1.7,1L73.9,62.6z"/>
		<path class="st1" d="M85.8,63.6c0.4-0.3,0.8-0.5,0.8-1.1c0-0.4-0.3-0.7-0.7-0.7c0,0,0,0,0,0c-0.4,0-0.7,0.3-0.7,0.7c0,0,0,0,0,0
			c0,0.3,0.2,0.6,0.4,0.8L85.8,63.6L85.8,63.6z M85.2,64.8c-0.5,0.3-1.1,0.7-1.1,1.4c0,0.6,0.5,1.2,1.2,1.2c0.7-0.1,1.3-0.4,1.7-0.9
			l-1.5-1.9L85.2,64.8z M87.4,67c-0.6,0.6-1.3,1-2.1,1c-1,0-1.9-0.8-1.9-1.8c0-1.1,0.8-1.6,1.6-2.2l0.1-0.1
			c-0.4-0.4-0.6-0.9-0.7-1.4c0-0.8,0.6-1.4,1.3-1.4c0,0,0.1,0,0.1,0c0.7,0,1.4,0.5,1.4,1.3c0,0,0,0,0,0c0,0.8-0.6,1.2-1.2,1.6
			l1.4,1.8l0.7-0.9l0.5,0.4l-0.8,1l1.1,1.4h-0.9L87.4,67z"/>
		<path class="st1" d="M98.5,64.4h0.2c0.8,0,1.7-0.2,1.7-1.2c0-1.1-0.8-1.2-1.7-1.2h-0.2L98.5,64.4z M98.5,67.9h-0.7v-6.6h1
			c1.3,0,2.4,0.3,2.4,1.8c0.1,1-0.7,1.8-1.6,1.8c0,0,0,0,0,0l2.1,3h-0.9l-2-2.9h-0.2L98.5,67.9z"/>
		<polygon class="st1" points="105.1,61.3 108.6,61.3 108.6,62 105.9,62 105.9,64 108.5,64 108.5,64.7 105.9,64.7 105.9,67.2 
			108.6,67.2 108.6,67.9 105.1,67.9 		"/>
		<path class="st1" d="M115.5,62.6c-0.2-0.4-0.6-0.7-1.1-0.7c-0.6,0-1.1,0.4-1.1,1c0,0,0,0,0,0c0,0.6,0.6,0.8,1,1l0.4,0.2
			c0.9,0.4,1.6,0.8,1.6,1.9c0,1.2-1,2.1-2.1,2c-1,0-1.8-0.7-2-1.7l0.7-0.2c0.1,0.7,0.6,1.2,1.3,1.2c0.7,0,1.3-0.6,1.4-1.3
			c0-0.8-0.6-1-1.2-1.3l-0.4-0.2c-0.8-0.4-1.4-0.7-1.4-1.7c0-1,0.8-1.7,1.8-1.7c0,0,0,0,0.1,0c0.7,0,1.4,0.4,1.7,1L115.5,62.6z"/>
		<path class="st1" d="M120.4,64.6c0,1.5,1.2,2.7,2.7,2.7s2.7-1.2,2.7-2.7c0-1.5-1.2-2.7-2.7-2.7C121.6,61.9,120.4,63.1,120.4,64.6
			 M126.5,64.6c0,1.9-1.5,3.5-3.4,3.5c-1.9,0-3.5-1.5-3.5-3.4c0-1.9,1.5-3.5,3.4-3.5c0,0,0,0,0,0C125,61.2,126.5,62.7,126.5,64.6
			C126.5,64.6,126.5,64.6,126.5,64.6"/>
		<path class="st1" d="M130.9,64.4h0.2c0.8,0,1.7-0.2,1.7-1.2c0-1.1-0.8-1.2-1.7-1.2h-0.2L130.9,64.4z M130.9,67.9h-0.7v-6.6h1
			c1.3,0,2.4,0.3,2.4,1.8c0.1,1-0.7,1.8-1.6,1.8c0,0,0,0,0,0l2.1,3h-0.9l-2-2.9h-0.2V67.9z"/>
		<polygon class="st1" points="139.1,67.9 138.4,67.9 138.4,62 136.8,62 136.8,61.3 140.7,61.3 140.7,62 139.1,62 		"/>
		<path class="st1" d="M147.1,62.6c-0.2-0.4-0.6-0.7-1.1-0.7c-0.6,0-1.1,0.4-1.1,1c0,0,0,0,0,0c0,0.6,0.6,0.8,1,1l0.4,0.2
			c0.9,0.4,1.6,0.8,1.6,1.9c0,1.2-1,2.1-2.1,2c-1,0-1.8-0.7-2-1.7l0.7-0.2c0.1,0.7,0.6,1.2,1.3,1.2c0.7,0,1.3-0.6,1.4-1.3
			c0-0.8-0.6-1-1.2-1.3l-0.4-0.2c-0.8-0.4-1.4-0.7-1.4-1.7c0-1,0.8-1.7,1.8-1.7c0,0,0,0,0.1,0c0.7,0,1.4,0.4,1.7,1L147.1,62.6z"/>
	</g>
	<rect x="2.8" y="8" class="st2" width="177.2" height="80.6"/>
</g>
</svg>
