<?xml version="1.0" encoding="utf-8"?>
<!-- Generator: Adobe Illustrator 21.0.0, SVG Export Plug-In . SVG Version: 6.00 Build 0)  -->
<svg version="1.1" id="Layer_1" xmlns="http://www.w3.org/2000/svg" xmlns:xlink="http://www.w3.org/1999/xlink" x="0px" y="0px"
	 viewBox="0 0 180 95.3" style="enable-background:new 0 0 180 95.3;" xml:space="preserve">
<style type="text/css">
	.st0{fill:none;}
	.st1{fill:#474C3E;}
	.st2{fill:#B58E18;}
	.st3{fill:none;stroke:#B58E18;stroke-width:1.16;stroke-miterlimit:3.86;}
	.st4{fill:#FFFFFF;}
</style>
<title>PP-hd-cn</title>
<g id="Layer_1-2">
	<rect class="st0" width="180" height="95.3"/>
	<g id="Layer_1-2-2">
		<path class="st1" d="M37.7,68c0.6,0.2,1.1,0.2,1.7,0.2c2,0,3.4-1.1,3.4-3c0.1-1.8-1.2-3.4-3-3.4c-0.1,0-0.2,0-0.4,0h-1.7L37.7,68
			 M37.7,72.5c0,1.7,0.5,2.2,1.6,2.2v0.5h-4.8v-0.5c1,0,1.6-0.4,1.6-2.1V64c0-1.7-0.5-2.2-1.6-2.2v-0.5h5c3.7,0,5.3,2,5.3,3.9
			c0,2.2-1.7,3.5-4.7,3.5c-0.7,0-1.4,0-2.1-0.1L37.7,72.5z"/>
		<path class="st1" d="M49.3,64.8L49.3,64.8l-1.7,4.8h3.3L49.3,64.8 M51.1,70.3h-3.6l-0.7,2.3c-0.4,1.1-0.6,2,0.7,2V75h-3v-0.4
			c1.1-0.1,1.3-0.7,1.7-1.8l3.1-9.4h1.2l3.4,9.8c0.4,1.1,0.7,1.3,1.7,1.3v0.4h-4v-0.3c0.7,0,1.1-0.4,0.9-1.1L51.1,70.3z"/>
		<path class="st1" d="M67.5,75h-0.4l-8-9.9l0,0v8c0,1.1,0.5,1.6,1.4,1.6v0.4H57v-0.4c1,0,1.4-0.4,1.4-2v-6.6c0-1.2-0.4-2-1.7-2.1
			v-0.4h2.9l7.1,8.8l0,0v-6.6c0-1.4-0.5-1.9-1.4-1.9v-0.4h3.5V64c-1.1,0-1.4,0.5-1.4,1.8V75"/>
		<path class="st1" d="M81.6,68c0.6,0.2,1.1,0.2,1.7,0.2c2,0,3.4-1.1,3.4-3c0.1-1.8-1.2-3.4-3-3.4c-0.1,0-0.2,0-0.4,0h-1.7V68
			 M81.6,72.5c0,1.7,0.5,2.2,1.6,2.2v0.5h-4.8v-0.5c1,0,1.6-0.4,1.6-2.1V64c0-1.7-0.5-2.2-1.6-2.2v-0.5h5c3.7,0,5.3,2,5.3,3.9
			c0,2.2-1.8,3.5-4.7,3.5c-0.7,0-1.4,0-2.1-0.1L81.6,72.5z"/>
		<path class="st1" d="M93.3,64.8L93.3,64.8l-1.7,4.8h3.3L93.3,64.8 M95,70.3h-3.6l-0.7,2.3c-0.4,1.1-0.6,2,0.7,2V75h-2.9v-0.4
			c1.1-0.1,1.3-0.7,1.7-1.8l3.1-9.4h1.2l3.4,9.8c0.4,1.1,0.7,1.3,1.7,1.3v0.4h-4v-0.3c0.7,0,1.1-0.4,0.9-1.1L95,70.3z"/>
		<path class="st1" d="M109.9,66.8c-0.6-2.1-1.8-3.1-3.6-3.1c-2.8,0-4.2,2.2-4.2,5.1c0,3.4,1.8,5.7,4.3,5.7c1.7,0,3.4-0.9,4-2.5
			l0.4,0.4c-0.7,1.9-2.7,3-4.7,3c-3,0.1-5.5-2.2-5.7-5.2c0-0.1,0-0.2,0-0.5c-0.2-3.3,2.3-6.1,5.5-6.3c0.1,0,0.2,0,0.4,0
			c1.1,0.1,2.1,0.2,3.3,0.5c0.2,0,0.6-0.1,0.7-0.4h0.4v3.4L109.9,66.8"/>
		<path class="st1" d="M115.4,72.8c0,1.4,0.4,1.8,1.3,1.8V75h-4.1v-0.4c0.9,0,1.3-0.4,1.3-1.8v-7.1c0-1.4-0.4-1.8-1.3-1.8v-0.4h4.1
			V64c-1,0-1.3,0.5-1.3,1.8V72.8"/>
		<path class="st1" d="M121.6,72.8c0,1.4,0.4,1.8,1.3,1.8V75h-4.1v-0.4c1,0,1.3-0.5,1.3-1.8v-7.1c0-1.4-0.4-1.8-1.3-1.8v-0.4h7.7v2
			h-0.2c-0.4-1.4-0.7-1.4-1.9-1.4h-2.9v4.7h3c0.9,0,1.2-0.5,1.2-1.3h0.4v3.3h-0.4c0-0.7-0.5-1.3-1.2-1.3h-3L121.6,72.8"/>
		<path class="st1" d="M131.3,72.8c0,1.4,0.4,1.8,1.3,1.8V75h-4.1v-0.4c0.9,0,1.3-0.4,1.3-1.8v-7.1c0-1.4-0.4-1.8-1.3-1.8v-0.4h4.1
			V64c-1,0-1.3,0.5-1.3,1.8V72.8"/>
		<path class="st1" d="M144.8,66.8c-0.6-2.1-1.8-3.1-3.6-3.1c-2.8,0-4.2,2.2-4.2,5.1c0,3.4,1.8,5.7,4.3,5.7c1.7,0,3.4-0.9,4-2.5
			l0.4,0.4c-0.7,1.9-2.7,3-4.7,3c-3,0.1-5.5-2.2-5.7-5.2c0-0.1,0-0.2,0-0.5c-0.2-3.3,2.3-6.1,5.5-6.3c0.1,0,0.2,0,0.4,0
			c1.1,0.1,2.1,0.2,3.3,0.5c0.2,0,0.6-0.1,0.7-0.4h0.4v3.4L144.8,66.8"/>
		<polyline class="st1" points="44.1,81.6 44.1,87.6 43.4,87.6 43.4,84.8 40.5,84.8 40.5,87.6 39.9,87.6 39.9,81.6 40.5,81.6 
			40.5,84.1 43.4,84.1 43.4,81.6 44.1,81.6 		"/>
		<path class="st1" d="M48.4,87.1c1.1,0,1.7-0.7,1.7-2.5s-0.7-2.5-1.7-2.5c-1,0-1.7,0.7-1.7,2.5S47.3,87.1,48.4,87.1 M48.4,81.4
			c1.4,0,2.3,1.1,2.3,3.1c0,2-0.8,3.2-2.3,3.2c-1.4,0-2.3-1.1-2.3-3.1C46,82.6,47,81.4,48.4,81.4L48.4,81.4z"/>
		<polyline class="st1" points="54.5,82.2 54.5,87.6 53.9,87.6 53.9,82.2 52.1,82.2 52.1,81.6 56.3,81.6 56.3,82.2 54.5,82.2 		"/>
		<polyline class="st1" points="61.8,81.6 61.8,82.2 58.8,82.2 58.8,84.1 60.9,84.1 60.9,84.8 58.8,84.8 58.8,87 61.9,87 61.9,87.6 
			58.1,87.6 58.1,81.6 61.8,81.6 		"/>
		<polyline class="st1" points="63.9,87.6 63.9,81.6 64.6,81.6 64.6,87 67.5,87 67.5,87.6 63.9,87.6 		"/>
		<path class="st1" d="M72,83.1c-0.1-0.7-0.7-1.1-1.4-1c-0.7,0-1.1,0.4-1.1,0.9c0,1.3,3.4,1,3.4,2.9c0,0.9-0.5,1.8-2,1.8
			c-1,0-1.9-0.7-2.1-1.6l0.6-0.2c0.2,0.7,0.9,1.2,1.6,1.2c0.9,0,1.3-0.5,1.3-1.1c0-1.6-3.4-1.1-3.4-3c0-0.9,0.7-1.6,1.7-1.6h0.1
			c0.9,0,1.8,0.6,2,1.4L72,83.1"/>
		<path class="st1" d="M79.8,85.1h1.8l-0.9-3.1h-0.1L79.8,85.1 M78.5,87.6l1.9-6h1l1.9,6h-0.7l-0.6-1.9h-2.1l-0.7,1.9H78.5z"/>
		<polyline class="st1" points="84.9,87.6 84.9,81.6 85.8,81.6 88.4,86.3 88.5,86.3 88.5,81.6 89.1,81.6 89.1,87.6 88.5,87.6 
			85.5,82.2 85.5,82.2 85.5,87.6 84.9,87.6 		"/>
		<path class="st1" d="M91.9,87h0.9c1.3,0,2.1-0.7,2.1-2.4c0-1.8-0.9-2.4-2.1-2.4h-0.9V87 M91.2,81.6h1.6c1.7,0,2.7,1,2.7,3
			c0.2,1.4-0.9,2.8-2.3,3c-0.1,0-0.4,0-0.5,0h-1.6L91.2,81.6z"/>
		<path class="st1" d="M102.1,84.3h1.2c0.9,0,1.4-0.4,1.4-1.1c0-0.7-0.6-1-1.4-1h-1.2V84.3 M101.5,87.6v-6h1.9c1.3,0,2,0.6,2,1.6
			c0,0.7-0.5,1.4-1.2,1.6l1.2,2.9h-0.7l-1.2-2.8h-1.4v2.8L101.5,87.6L101.5,87.6z"/>
		<polyline class="st1" points="111.2,81.6 111.2,82.2 108.3,82.2 108.3,84.1 110.3,84.1 110.3,84.8 108.3,84.8 108.3,87 111.4,87 
			111.4,87.6 107.7,87.6 107.7,81.6 111.2,81.6 		"/>
		<path class="st1" d="M116.2,83.1c-0.1-0.7-0.7-1.1-1.4-1c-0.7,0-1.1,0.4-1.1,0.9c0,1.3,3.4,1,3.4,2.9c0,0.9-0.5,1.8-2,1.8
			c-1,0-1.9-0.7-2.1-1.6l0.6-0.2c0.2,0.7,0.9,1.2,1.6,1.2c0.9,0,1.3-0.5,1.3-1.1c0-1.6-3.4-1.1-3.4-3c0-0.9,0.7-1.6,1.7-1.6h0.1
			c0.9,0,1.8,0.6,2,1.4L116.2,83.1"/>
		<path class="st1" d="M121,87.1c1.1,0,1.7-0.7,1.7-2.5s-0.7-2.5-1.7-2.5s-1.7,0.7-1.7,2.5S120,87.1,121,87.1 M121,81.4
			c1.4,0,2.3,1.1,2.3,3.1c0,2-0.9,3.1-2.3,3.1s-2.3-1.1-2.3-3.1C118.7,82.5,119.5,81.4,121,81.4L121,81.4z"/>
		<path class="st1" d="M125.9,84.3h1.2c0.9,0,1.4-0.4,1.4-1.1c0-0.7-0.6-1-1.4-1h-1.2V84.3 M125.3,87.6v-6h1.9c1.3,0,2,0.6,2,1.6
			c0,0.7-0.5,1.4-1.2,1.6l1.2,2.9h-0.7l-1.2-2.8h-1.4v2.8L125.3,87.6L125.3,87.6z"/>
		<polyline class="st1" points="132.9,82.2 132.9,87.6 132.3,87.6 132.3,82.2 130.5,82.2 130.5,81.6 134.7,81.6 134.7,82.2 
			132.9,82.2 		"/>
		<path class="st1" d="M139.4,83.1c-0.1-0.7-0.7-1.1-1.4-1c-0.7,0-1.1,0.4-1.1,0.9c0,1.3,3.4,1,3.4,2.9c0,0.9-0.5,1.8-2,1.8
			c-1,0-1.9-0.7-2.1-1.6l0.6-0.2c0.2,0.7,0.9,1.2,1.6,1.2c0.9,0,1.3-0.5,1.3-1.1c0-1.6-3.4-1.1-3.4-3c0-0.9,0.7-1.6,1.7-1.6h0.1
			c0.9,0,1.8,0.6,2,1.4L139.4,83.1"/>
		<path class="st2" d="M74.9,17.8v28.4c0,1.1,0.5,2.1,1.2,2.8c0.9,0.9,2.2,1.4,3.4,1.3h21.1c1.3,0.1,2.5-0.4,3.4-1.3
			c0.7-0.7,1.2-1.8,1.2-2.8V17.8c0-3.3-4.7-10.2-15.3-10.2C79.6,7.7,74.9,14.7,74.9,17.8z"/>
		<path class="st3" d="M74.9,17.8v28.4c0,1.1,0.5,2.1,1.2,2.8c0.9,0.9,2.2,1.4,3.4,1.3h21.1c1.3,0.1,2.5-0.4,3.4-1.3
			c0.7-0.7,1.2-1.8,1.2-2.8V17.8c0-3.3-4.7-10.2-15.3-10.2C79.6,7.7,74.9,14.7,74.9,17.8z"/>
		<path class="st4" d="M92.1,43.5c0.7-1.1,1.4-2.1,2.5-2.9c0.9-0.7,2-1.3,3.1-1.7c1-0.4,2-0.5,3-0.5h4.7v1.4
			c-0.2,0.1-0.5,0.2-0.7,0.4c-1.1,0.2-2.2,0.4-3.4,0.4c0,0.5-0.2,0.7-0.6,1.1c-0.5,0.5-1.1,0.7-1.7,0.7c-1.3,0.1-2.7,0.5-3.9,1.1
			c-0.9,0.4-1.7,0.9-2.4,1.4c-0.4,0.2-0.6,0.6-0.7,0.9s-0.5,0.7-0.6,1.1c-0.1,0.1-0.2,0.2-0.5,0.2C91.2,45.8,91.5,44.6,92.1,43.5"/>
		<path class="st4" d="M90.1,17c0.2,0,0.2-0.9,0.2-1.4c0-0.2,0-0.9,0-1.2c0-0.5,0.4-2.8,0.5-3.4c1.4,0.2,2.5,1.4,2.5,3
			c-0.6,1.2-1,2.4-1.4,3.7c-0.6,1.7-0.9,3.4-1.1,5.1c-0.2,1.6-0.5,3.1-0.4,4.7c0,1.6,0.2,2.4,0.2,4.2c0,0.4,0,0.7-0.2,1.1
			c-0.1,0.1-0.2,0.4-0.4,0.5c-0.1-0.1-0.2-0.2-0.4-0.5c-0.1-0.4-0.2-0.7-0.2-1.1c0-1.7,0.2-2.5,0.2-4.2c0-1.6-0.1-3.1-0.4-4.7
			c-0.2-1.8-0.6-3.4-1.1-5.1c-0.4-1.2-0.9-2.5-1.4-3.7c0-1.4,1.1-2.8,2.5-3c0.1,0.6,0.5,2.9,0.5,3.4c0,0.4,0,1,0,1.2
			C89.8,15.9,89.9,17,90.1,17"/>
		<path class="st4" d="M105.4,34.4c-0.6,0.5-1.1,0.7-1.8,1c-1,0.2-2,0.4-3.1,0.4c0.1,0.5,0,0.7-0.4,1.1c-0.5,0.4-1.1,0.6-1.7,0.7
			c-1.2,0.1-2.4,0.5-3.6,1c-0.7,0.4-1.6,0.7-2.2,1.3c-0.2,0.2-0.6,0.5-0.7,0.7c-0.2,0.4-0.4,0.7-0.6,1c-0.1,0.1-0.2,0.2-0.4,0.2
			c0.1-1.1,0.5-2.2,1-3.4c0.6-1,1.3-2,2.3-2.7c0.9-0.7,1.8-1.2,2.8-1.6c0.9-0.4,1.8-0.5,2.8-0.5h5.4L105.4,34.4"/>
		<path class="st4" d="M88.1,38.5c-0.6-1-1.3-2-2.3-2.7c-0.9-0.7-1.8-1.2-2.8-1.6c-0.9-0.4-1.8-0.5-2.8-0.5h-5.4v0.6
			c0.6,0.5,1.1,0.7,1.8,1c1,0.2,2,0.4,3.1,0.4c-0.1,0.5,0,0.7,0.4,1.1c0.5,0.4,1.1,0.6,1.7,0.7c1.2,0.1,2.4,0.5,3.6,1
			c0.7,0.4,1.6,0.7,2.2,1.3c0.2,0.2,0.6,0.5,0.7,0.7c0.2,0.4,0.4,0.7,0.6,1c0.1,0.1,0.2,0.2,0.4,0.2C89.1,40.5,88.7,39.4,88.1,38.5"
			/>
		<path class="st4" d="M88,43.5c-0.7-1.1-1.4-2.1-2.5-2.9c-0.9-0.7-2-1.3-3.1-1.7c-1-0.4-2-0.5-3-0.5h-4.7v1.4
			c0.2,0.1,0.5,0.2,0.7,0.4c1.1,0.2,2.2,0.4,3.4,0.4c0,0.5,0.2,0.7,0.6,1.1c0.5,0.5,1.1,0.7,1.7,0.7c1.3,0.1,2.7,0.5,3.9,1.1
			c0.9,0.4,1.7,0.9,2.4,1.4c0.4,0.2,0.6,0.6,0.7,0.9c0.2,0.4,0.5,0.7,0.6,1.1c0.1,0.1,0.2,0.2,0.5,0.2C89.1,45.8,88.7,44.6,88,43.5"
			/>
		<path class="st4" d="M101.8,30.5c-0.9,0.2-1.8,0.4-2.7,0.4c0.2,0.4,0.2,0.9-0.1,1.1c-0.5,0.4-1,0.5-1.6,0.6
			c-1.1,0.1-2.1,0.5-3.1,1c-0.7,0.4-1.3,0.7-1.9,1.3c-0.2,0.2-0.5,0.5-0.7,0.7c-0.2,0.4-0.4,0.7-0.5,1c-0.1,0.1-0.2,0.2-0.4,0.2
			c0.1-1.1,0.4-2.2,0.9-3.3c0.5-1,1.1-1.9,2-2.7c0.7-0.7,1.6-1.1,2.4-1.4c0.7-0.4,1.6-0.5,2.3-0.5h5.4
			C103.5,29.7,102.7,30.2,101.8,30.5"/>
		<path class="st4" d="M78.5,30.5c0.9,0.2,1.8,0.4,2.7,0.4C81,31.2,81,31.8,81.2,32c0.5,0.4,1,0.5,1.6,0.6c1.1,0.1,2.1,0.5,3.1,1
			c0.7,0.4,1.3,0.7,1.9,1.3c0.2,0.2,0.5,0.5,0.7,0.7c0.2,0.4,0.4,0.7,0.5,1c0.1,0.1,0.2,0.2,0.4,0.2c-0.1-1.1-0.4-2.2-0.9-3.3
			c-0.5-1-1.1-1.9-2-2.7c-0.7-0.7-1.6-1.1-2.4-1.4c-0.7-0.4-1.6-0.5-2.3-0.5h-5.4C76.8,29.7,77.5,30.2,78.5,30.5"/>
		<path class="st4" d="M89.2,26.8c0-0.7-0.1-1.2-0.1-1.9c-0.1-0.9-0.2-1.8-0.5-2.7c-0.2-1-0.5-2-0.7-3c-0.2-0.7-0.5-1.3-0.7-2
			c-0.4-1-0.9-1.9-1.4-2.8c-0.4-0.1-0.7-0.1-1.2-0.1c-0.5,0-0.9,0.1-1.2,0.4c0.2,0.4,0.5,0.6,0.7,0.9c0.4,0.4,0.6,0.7,0.7,0.9
			c0.2,0.2,0.6,0.9,0.9,1.2c0.6,0.9,0.9,1.9,1.2,2.8c-0.5-0.9-1-1.8-1.6-2.7c0,0-0.1-0.1-0.1-0.2c-0.7-0.9-1.6-1.7-2.4-2.4
			c-0.4,0.4-0.6,0.9-0.7,1.3c-0.1,0.4-0.1,1,0,1.4c0.7,0.7,1.4,1.3,2.1,2c1,1,1.8,2.1,2.5,3.4c0.4,0.6,0.7,1.2,0.9,1.8
			c0.2,0.5,0.4,0.7,0.5,1.2c0.1,0.5,0.2,0.7,0.2,1.2c0,0.4,0,0.6,0,0.9c0,0.4,0,0.7,0,1.1c0,0.4,0.2,0.7,0.6,0.9
			c0-0.7,0.1-1.3,0.1-2C89,27.7,89.2,27.4,89.2,26.8"/>
		<path class="st4" d="M91,26.8c0-0.7,0.1-1.2,0.1-1.9c0.1-0.9,0.2-1.8,0.5-2.7c0.2-1,0.5-2,0.7-3c0.2-0.7,0.5-1.3,0.7-2
			c0.4-1,0.7-1.9,1.4-2.8c0.4-0.1,0.7-0.1,1.2-0.1c0.5,0,0.9,0.1,1.2,0.4c-0.2,0.4-0.5,0.6-0.7,0.9c-0.4,0.4-0.6,0.7-0.7,0.9
			c-0.2,0.2-0.6,0.9-0.9,1.2c-0.6,0.9-0.9,1.9-1.2,2.8c0.5-0.9,1-1.8,1.6-2.7c0,0,0.1-0.1,0.1-0.2c0.7-0.9,1.6-1.7,2.4-2.4
			c0.4,0.4,0.6,0.9,0.7,1.3c0.1,0.4,0.1,1,0,1.4c-0.7,0.7-1.4,1.3-2.1,2c-1,1-1.8,2.1-2.5,3.4c-0.4,0.6-0.7,1.2-0.9,1.8
			c-0.2,0.5-0.4,0.9-0.5,1.2c-0.1,0.5-0.2,0.7-0.2,1.2c0,0.4,0,0.6,0,0.9c0,0.4,0,0.7,0,1.1c0,0.4-0.2,0.7-0.6,0.9
			c0-0.7-0.1-1.3-0.1-2C91.3,27.7,91,27.4,91,26.8"/>
		<path class="st4" d="M88,28.3L88,28.3c-0.1-0.6-0.2-1.2-0.5-1.8c-0.2-0.7-0.6-1.3-0.9-1.9c-0.5-0.7-1-1.6-1.6-2.2
			c-0.6-0.6-1.1-1.1-1.7-1.7c-0.6-0.5-1.1-0.7-1.4-1.1c-0.4,0-0.7,0.1-1.1,0.4c-0.4,0.2-0.7,0.6-0.7,0.9c0.7,0.2,1.6,0.6,2.2,0.9
			c1,0.6,2,1.3,2.9,2c-0.9-0.7-1.9-1.2-3-1.7c-0.7-0.4-1.6-0.6-2.3-0.7c0,0.5,0,0.9,0.1,1.3c0.1,0.4,0.2,0.7,0.6,1
			c0.6,0.1,1.3,0.2,2,0.4c0.7,0.1,1.3,0.4,2,0.6c0.9,0.4,1.8,1,2.2,1.9c0.2,0.4,0.5,0.9,0.6,1.1c0,0,0.7,1.4,0.7,1
			C88,28.7,88,28.6,88,28.3"/>
		<path class="st4" d="M92.1,28.3L92.1,28.3c0.1-0.6,0.2-1.2,0.5-1.8c0.2-0.7,0.6-1.3,0.9-1.9c0.5-0.7,1-1.6,1.6-2.2
			c0.6-0.6,1.1-1.2,1.7-1.7c0.6-0.5,1.1-0.7,1.4-1.1c0.4,0,0.7,0.1,1.1,0.4c0.4,0.2,0.7,0.6,0.9,0.9c-0.7,0.2-1.6,0.6-2.2,0.9
			c-1,0.6-2,1.3-2.9,2c0.9-0.7,1.9-1.2,3-1.7c0.7-0.4,1.6-0.6,2.3-0.7c0,0.5,0,0.9-0.1,1.3c-0.1,0.4-0.2,0.7-0.6,1
			c-0.6,0.1-1.2,0.2-2,0.4c-0.7,0.1-1.3,0.4-2,0.6c-0.9,0.4-1.8,1-2.2,1.9c-0.2,0.4-0.5,0.9-0.6,1.1c0,0-0.7,1.4-0.7,1
			C92.1,28.7,92.1,28.6,92.1,28.3"/>
	</g>
</g>
</svg>
