<?xml version="1.0" encoding="utf-8"?>
<!-- Generator: Adobe Illustrator 21.0.0, SVG Export Plug-In . SVG Version: 6.00 Build 0)  -->
<svg version="1.1" id="Layer_1" xmlns="http://www.w3.org/2000/svg" xmlns:xlink="http://www.w3.org/1999/xlink" x="0px" y="0px"
	 viewBox="0 0 180 95.3" style="enable-background:new 0 0 180 95.3;" xml:space="preserve">
<style type="text/css">
	.st0{fill:none;}
	.st1{fill:#D8003B;}
	.st2{fill:#261C02;}
</style>
<title>logo-pr-ss</title>
<desc>Created with Sketch.</desc>
<g id="Page-1">
	<g id="logo-pr-ss" transform="translate(-11.000000, -22.000000)">
		<rect id="Rectangle-path" x="11" y="28.6" class="st0" width="179.4" height="81.6"/>
		<rect id="Rectangle-path_1_" x="21.8" y="74.6" class="st1" width="157.8" height="1.4"/>
		<path id="Shape" class="st2" d="M145.9,62.6l2.9-7l2.9,7H145.9z M174.2,64.8c-0.8,1.7-1.6,2.7-2.5,3.1c-0.8,0.4-2.5,0.6-4.9,0.6
			c-0.6,0-1,0-1.3,0c-0.2,0-0.4,0-0.6-0.1c-0.2,0-0.4-0.1-0.6-0.3c-0.1-0.2-0.1-0.4-0.1-0.6v-13c-0.1-0.6,0.1-1.2,0.5-1.7
			c0.6-0.3,1.3-0.5,1.9-0.5h0.1v-0.8h-8.1v0.8h0.1c0.7,0,1.3,0.2,1.9,0.5c0.3,0.5,0.5,1.2,0.4,1.8v12.2c0,1.7-0.7,2.3-1.9,2.3
			c-0.5,0-1-0.1-1.4-0.4c-0.5-0.6-0.8-1.2-1.1-1.9l-6.8-15.4h-1l-7.7,18.3l-0.1,0.2h1.7v-0.1l2.4-5.8h7c0.2,0.5,1.4,3.4,1.8,4.1
			c0.3,1,1.3,1.8,2.4,1.8h17.3v-0.1l1.3-4.8l0.1-0.2H174.2z M138,68.7c-0.2-0.2-0.5-0.6-0.5-1.9v-5.3l6.4-9.8l0.2-0.2h-1.9v0.1
			l-5.4,8.3c-0.7-1-3.7-5.5-4.2-6.2l-0.1-0.1c-0.6-0.8-1.4-2-2.8-2h-3.3v0.8h0.1c0.7,0,1.3,0.3,1.7,0.8c0.9,1.1,1.8,2.3,2.6,3.5
			l3.6,5.2v4.7c0,1.4-0.2,2-0.4,2.1c-0.2,0.2-0.7,0.4-2.2,0.5h-0.1V70h8.7v-0.8h-0.1C139.5,69.2,138.7,69.1,138,68.7z M123.4,67.1
			c-1,1.2-2.5,2-4,2c-1.6,0-3.1-0.7-4.1-2c-1.1-1.3-1.7-3.5-1.7-6.3s0.6-5,1.7-6.3c1-1.3,2.5-2,4.1-2s3,0.7,4,1.9
			c1.1,1.3,1.7,3.4,1.7,6.4C125,63.7,124.5,65.8,123.4,67.1z M119.3,51c-2.4-0.1-4.6,0.8-6.3,2.5c-1.9,1.9-2.9,4.5-2.8,7.2
			c-0.1,2.6,0.9,5.1,2.6,7c1.7,1.8,4.1,2.7,6.5,2.7c2.3,0,4.6-0.8,6.3-2.4c2-1.9,3-4.5,2.9-7.2c0.1-2.7-0.9-5.3-2.8-7.1
			C124,52,121.7,51,119.3,51z M99.6,60.2v-6.6c0-0.4,0.1-0.6,0.2-0.7c0.4-0.1,0.9-0.2,1.4-0.1c0.9,0,1.9,0.1,2.7,0.5
			c1.2,0.5,2,1.8,1.9,3.1c0.1,1.4-0.7,2.8-2.1,3.2C102.3,60,100.9,60.2,99.6,60.2z M62.1,60.2v-6.6c0-0.4,0.1-0.6,0.2-0.7
			c0.4-0.1,0.9-0.2,1.4-0.1c0.9,0,1.9,0.1,2.7,0.5c1.2,0.5,2,1.8,1.9,3.1c0.1,1.4-0.7,2.8-2.1,3.2C64.8,60,63.4,60.2,62.1,60.2z
			 M44.3,62.6l2.9-7l2.9,7H44.3z M110.7,68.8c-0.4-0.2-0.7-0.5-1-0.9l-5.5-6.8c1.3-0.2,2.5-0.7,3.5-1.4c0.9-0.8,1.5-2,1.4-3.3
			c0.1-2-1.2-3.8-3.1-4.4c-1.3-0.4-2.7-0.7-4-0.6h-7.8v0.8h0.1c0.7,0,1.3,0.2,1.8,0.5c0.3,0.5,0.5,1.2,0.4,1.8v12
			c0,1.4-0.2,1.9-0.4,2.1c-0.6,0.4-1.4,0.7-2.2,0.6c-0.9,0.1-1.8-0.1-2.5-0.6c-0.9-0.7-1.7-1.5-2.4-2.3l-6.4-7c0,0,3.9-3.6,5.2-4.8
			c1.3-1.3,3-2.1,4.8-2.2v-0.8H85v0.8c1.2,0,2.1,0.2,1.9,1c-0.1,0.5-0.9,1.2-2.9,3.2c-1.1,1-2.5,2.3-4.3,3.8v-5.6
			c-0.1-0.6,0.1-1.3,0.4-1.8c0.6-0.4,1.3-0.5,2-0.5h0.1v-0.8h-8.1v0.8h0.1c0.7,0,1.4,0.1,1.9,0.5c0.2,0.2,0.4,0.6,0.4,1.8v11.9
			c0,1.4-0.2,1.9-0.4,2.1c-0.3,0.4-0.6,0.5-1.5,0.5c-0.5,0-1-0.1-1.5-0.4c-0.4-0.2-0.7-0.5-1-0.9l-5.5-6.8c1.3-0.2,2.5-0.7,3.5-1.4
			c0.9-0.8,1.5-2,1.4-3.3c0.1-2-1.2-3.8-3.1-4.4c-1.3-0.4-2.7-0.7-4-0.6h-7.8v0.8h0.1c0.7,0,1.3,0.2,1.8,0.5
			c0.3,0.5,0.5,1.2,0.4,1.8v12c0,2.1-0.5,2.6-1.5,2.6c-0.4,0-0.8-0.2-1.2-0.5c-0.5-0.6-0.8-1.2-1.1-1.9l-6.6-15.2h-1l-7.7,18.3
			L39.7,70h1.7v-0.1l2.4-5.8h7c0.2,0.5,1.4,3.4,1.8,4.1c0.3,1,1.3,1.8,2.4,1.8h9.7v-0.8h-0.1c-0.7,0-1.4-0.2-1.9-0.5
			c-0.2-0.2-0.4-0.6-0.4-1.8v-5.3l1-0.1c0.5,0.7,5.3,6.5,5.8,7.1c0.7,0.8,1.8,1.3,2.9,1.4h10.5v-0.8h-0.1c-0.7,0-1.3-0.2-1.9-0.5
			c-0.2-0.2-0.4-0.6-0.4-1.8V62l0.7-0.6c0.8,0.9,5.6,6.1,6.1,6.6c0.6,0.6,2,2,3.8,2h11.8v-0.8h-0.1c-0.7,0-1.4-0.2-1.9-0.5
			c-0.2-0.2-0.4-0.6-0.4-1.8v-5.3l1-0.1c0.5,0.7,5.3,6.5,5.8,7.1c0.7,0.8,1.8,1.3,2.9,1.4h2.9v-0.8h-0.1
			C111.5,69.1,111.1,68.9,110.7,68.8z M32.4,53.2c0-0.3,0-0.5,0.2-0.8c0.3-0.2,0.7-0.2,1.1-0.2c1,0,2.1,0.1,3,0.5
			c1.4,0.6,2.3,2,2.2,3.5c0,1.8-0.7,3.1-2,3.7c-1,0.4-2,0.6-3.1,0.5c-0.1,0-0.3,0-0.5,0s-0.5,0-1-0.1L32.4,53.2z M32.4,66.8v-5.1
			c0.2,0,0.6,0,1.1,0s0.9,0,1.2,0c2,0.1,3.9-0.4,5.6-1.3c1.4-0.9,2.3-2.5,2.2-4.1c0-1.5-0.7-2.8-2-3.6c-1.8-1-3.8-1.5-5.8-1.4h-8
			v0.5c0.7,0,1.4,0.2,2,0.6c0.4,0.6,0.5,1.2,0.5,1.9v12.1c0.1,0.8-0.1,1.5-0.4,2.2c-0.6,0.4-1.3,0.7-2.1,0.6v0.7h8.5v-0.7
			c-0.8,0-1.6-0.2-2.3-0.5C32.6,68.4,32.4,67.8,32.4,66.8z"/>
		<g id="Group" transform="translate(38.000000, 52.000000)">
			<path id="Shape_1_" class="st2" d="M14.5,30c-0.2-0.5-0.7-0.7-1.2-0.7c-0.6,0-1.1,0.4-1.1,1s0.6,0.8,1,1l0.4,0.2
				c0.9,0.4,1.6,0.8,1.6,1.9c0,1.2-1,2.1-2.2,2.1c-1,0-1.9-0.7-2-1.7l0.7-0.2c0.1,0.7,0.6,1.2,1.3,1.2s1.4-0.6,1.4-1.3
				c0-0.8-0.6-1-1.2-1.3L12.8,32c-0.6-0.4-1.3-0.8-1.3-1.7c0-1,0.8-1.7,1.8-1.7c0,0,0,0,0.1,0c0.7,0,1.4,0.4,1.7,1L14.5,30z"/>
			<polygon id="Shape_2_" class="st2" points="18.9,28.8 22.4,28.8 22.4,29.5 19.6,29.5 19.6,31.5 22.3,31.5 22.3,32.2 19.6,32.2 
				19.6,34.8 22.4,34.8 22.4,35.5 18.9,35.5 			"/>
			<path id="Shape_3_" class="st2" d="M26.9,31.9h0.2c0.8,0,1.7-0.2,1.7-1.2c0-1.1-0.8-1.2-1.7-1.2h-0.2V31.9z M26.9,35.5h-0.7v-6.7
				h1c1.3,0,2.4,0.3,2.4,1.8c0.1,1-0.7,1.8-1.6,1.8l2.1,3h-0.9l-2-2.9H27L26.9,35.5z"/>
			<polygon id="Shape_4_" class="st2" points="35.5,33.8 37.4,28.8 38.2,28.8 35.5,35.8 32.8,28.8 33.6,28.8 			"/>
			<polygon id="Shape_5_" class="st2" points="54.9,28.8 58.4,28.8 58.4,29.5 55.6,29.5 55.6,31.5 58.3,31.5 58.3,32.2 55.6,32.2 
				55.6,34.8 58.4,34.8 58.4,35.5 54.9,35.5 			"/>
			<path id="Shape_6_" class="st2" d="M63.4,34.8c0.8,0.1,1.5-0.2,2.1-0.7c1.1-1.1,1.1-2.8,0.1-3.9L65.5,30
				c-0.6-0.5-1.3-0.7-2.1-0.6h-0.5v5.3L63.4,34.8L63.4,34.8z M62.1,28.8h1.3c0.9-0.1,1.9,0.2,2.6,0.8c1.4,1.3,1.5,3.5,0.2,4.9
				c-0.1,0.1-0.1,0.1-0.2,0.2c-0.7,0.6-1.7,0.9-2.6,0.8h-1.2v-6.7H62.1z"/>
			<path id="Shape_7_" class="st2" d="M78.9,30c-0.2-0.5-0.7-0.7-1.2-0.7c-0.6,0-1.1,0.4-1.1,1s0.6,0.8,1,1l0.4,0.2
				c0.9,0.4,1.6,0.8,1.6,1.9c0,1.2-1,2.1-2.2,2.1c-1,0-1.9-0.7-2-1.7l0.7-0.2c0.1,0.7,0.6,1.2,1.3,1.2c0.7,0,1.4-0.6,1.4-1.3
				c0-0.8-0.6-1-1.2-1.3L77.2,32c-0.8-0.4-1.5-0.8-1.5-1.7c0-1,0.8-1.7,1.8-1.7c0,0,0,0,0.1,0c0.7,0,1.4,0.4,1.7,1L78.9,30z"/>
			<path id="Shape_8_" class="st2" d="M84,32.8c-0.1,0.5,0,1,0.3,1.5c0.3,0.4,0.8,0.6,1.3,0.6s1-0.2,1.3-0.6c0.3-0.5,0.4-1,0.3-1.5
				v-4h0.7V33c0.1,0.7-0.1,1.3-0.6,1.9c-0.5,0.5-1.1,0.8-1.8,0.8c-0.6,0-1.3-0.2-1.7-0.7c-0.5-0.5-0.7-1.2-0.7-1.9v-4.2h0.7L84,32.8
				z"/>
			<path id="Shape_9_" class="st2" d="M49.1,28.6c-1.9,0-3.4,1.6-3.4,3.5c0,1.9,1.6,3.4,3.5,3.4c0.7,0,1.4-0.3,2-0.7V34
				c-0.5,0.6-1.2,0.9-2,0.9c-1.5,0-2.7-1.2-2.7-2.7s1.2-2.8,2.7-2.8c0.7,0,1.5,0.3,2,0.9v-0.9C50.6,28.9,49.9,28.6,49.1,28.6
				L49.1,28.6z"/>
			<polygon id="Shape_10_" class="st2" points="98.2,35.5 97.5,35.5 97.5,29.5 95.9,29.5 95.9,28.8 99.9,28.8 99.9,29.5 98.2,29.5 
							"/>
			<polygon id="Shape_15_" class="st2" points="92.5,35.5 91.5,35.5 91.5,28.5 92.5,28.5 			"/>
			<polygon id="Shape_13_" class="st2" points="42.5,35.5 41.5,35.5 41.5,28.5 42.5,28.5 			"/>
			<polygon id="Shape_11_" class="st2" points="103.1,28.8 106.6,28.8 106.6,29.5 103.9,29.5 103.9,31.5 106.5,31.5 106.5,32.2 
				103.9,32.2 103.9,34.8 106.6,34.8 106.6,35.5 103.1,35.5 			"/>
			<path id="Shape_12_" class="st2" d="M113.4,30c-0.2-0.5-0.7-0.7-1.2-0.7c-0.6,0-1.1,0.4-1.1,1s0.6,0.8,1,1l0.4,0.2
				c0.9,0.4,1.6,0.8,1.6,1.9c0,1.2-1,2.1-2.2,2.1c-1,0-1.9-0.7-2-1.7l0.7-0.2c0.1,0.7,0.6,1.2,1.3,1.2c0.7,0,1.4-0.6,1.4-1.3
				c0-0.8-0.6-1-1.2-1.3l-0.4-0.2c-0.8-0.4-1.5-0.8-1.5-1.7c0-1,0.8-1.7,1.8-1.7c0,0,0,0,0.1,0c0.7,0,1.4,0.4,1.7,1L113.4,30z"/>
		</g>
	</g>
</g>
</svg>
