<?xml version="1.0" encoding="utf-8"?>
<!-- Generator: Adobe Illustrator 23.0.1, SVG Export Plug-In . SVG Version: 6.00 Build 0)  -->
<svg version="1.1" xmlns="http://www.w3.org/2000/svg" xmlns:xlink="http://www.w3.org/1999/xlink" x="0px" y="0px"
	 viewBox="0 0 170 80" style="enable-background:new 0 0 170 80;" xml:space="preserve">
<style type="text/css">
	.st0{opacity:0.68;fill:#FFFFFF;fill-opacity:0;}
	.st1{fill-rule:evenodd;clip-rule:evenodd;fill:#454E3F;}
	.st2{fill:#454E3F;}
	.st3{clip-path:url(#SVGID_2_);fill:#A7852E;}
	.st4{clip-path:url(#SVGID_2_);fill:#FFFFFF;}
</style>
<g id="master-artboard">
	<rect id="ee-background_22_" class="st0" width="170" height="80"/>
	<g>
		<path class="st1" d="M45.53,34.85h1.71c2.53,0,3.35,1.98,3.35,3.45c0,1.88-1.3,2.99-3.35,2.99c-0.72,0-1.09-0.02-1.71-0.24V34.85
			 M45.53,41.68c1.01,0.12,1.52,0.15,2.12,0.15c3.14,0,4.87-1.28,4.87-3.57c0-1.91-1.54-3.94-5.35-3.94h-5.04v0.41
			c1.16,0,1.57,0.51,1.57,2.2v8.67c0,1.84-0.6,2.15-1.57,2.15v0.41h4.97v-0.41c-1.16,0-1.57-0.48-1.57-2.2V41.68z"/>
		<path class="st1" d="M58.86,42.81h-3.24l1.61-4.89h0.04L58.86,42.81 M60.17,46.72c0.26,0.78-0.12,1.13-0.9,1.13v0.34h4.06v-0.34
			c-1.03,0-1.31-0.32-1.65-1.39l-3.34-9.92h-1.19l-3.18,9.5c-0.36,1.07-0.62,1.65-1.71,1.81v0.34h2.97v-0.34
			c-1.21-0.02-1.01-0.89-0.62-2.01l0.78-2.31h3.72L60.17,46.72z"/>
		<path class="st2" d="M75.73,38.81c0-1.35,0.36-1.81,1.49-1.81v-0.34h-3.48V37c1.01,0,1.41,0.38,1.41,1.89v6.74H75.1l-7.2-8.98
			h-2.95V37c1.37,0.12,1.71,0.85,1.71,2.13v6.74c0,1.67-0.46,1.97-1.43,1.97v0.34h3.5v-0.34c-1.05,0-1.51-0.42-1.51-1.59v-8.09h0.04
			l8.12,10.02h0.34V38.81"/>
		<path class="st1" d="M90.03,34.85h1.71c2.53,0,3.35,1.98,3.35,3.45c0,1.88-1.3,2.99-3.35,2.99c-0.72,0-1.09-0.02-1.71-0.24V34.85
			 M90.03,41.68c1.01,0.12,1.52,0.15,2.12,0.15c3.14,0,4.87-1.28,4.87-3.57c0-1.91-1.54-3.94-5.35-3.94h-5.04v0.41
			c1.16,0,1.57,0.51,1.57,2.2v8.67c0,1.84-0.6,2.15-1.57,2.15v0.41h4.97v-0.41c-1.16,0-1.57-0.48-1.57-2.2V41.68z"/>
		<path class="st1" d="M103.36,42.81h-3.24l1.61-4.89h0.04L103.36,42.81 M104.67,46.72c0.26,0.78-0.12,1.13-0.9,1.13v0.34h4.06
			v-0.34c-1.03,0-1.31-0.32-1.65-1.39l-3.34-9.92h-1.19l-3.18,9.5c-0.36,1.07-0.62,1.65-1.71,1.81v0.34h2.98v-0.34
			c-1.21-0.02-1.01-0.89-0.62-2.01l0.78-2.31h3.72L104.67,46.72z"/>
		<path class="st2" d="M119,39.94v-3.44h-0.32c-0.12,0.24-0.32,0.36-0.62,0.36c-0.68,0-1.77-0.48-3.22-0.48
			c-3.44,0-5.95,2.7-5.95,6.36c0,3.84,2.89,5.74,5.67,5.74c2.21,0,4.04-1.15,4.8-2.98l-0.3-0.28c-0.86,1.69-2.21,2.54-4.02,2.54
			c-2.59,0-4.38-2.27-4.38-5.74c0-2.96,1.49-5.19,4.26-5.19c1.99,0,3.18,0.95,3.74,3.12H119"/>
		<path class="st2" d="M124.21,38.83c0-1.39,0.34-1.83,1.31-1.83v-0.34h-4.14V37c0.99,0,1.31,0.38,1.31,1.83v7.18
			c0,1.47-0.36,1.83-1.31,1.83v0.34h4.14v-0.34c-0.96,0-1.31-0.42-1.31-1.83V38.83"/>
		<path class="st2" d="M130.4,42.61h3.04c0.8,0,1.21,0.48,1.25,1.31H135v-3.24h-0.32c-0.1,0.93-0.42,1.37-1.29,1.37h-3v-4.83h2.93
			c1.25,0,1.59,0.08,1.87,1.49h0.26v-2.05h-7.9V37c0.96,0,1.31,0.38,1.31,1.83v7.18c0,1.43-0.34,1.83-1.31,1.83v0.34h4.14v-0.34
			c-0.96,0-1.31-0.42-1.31-1.83V42.61"/>
		<path class="st2" d="M140.23,38.83c0-1.39,0.34-1.83,1.31-1.83v-0.34h-4.14V37c0.99,0,1.31,0.38,1.31,1.83v7.18
			c0,1.47-0.36,1.83-1.31,1.83v0.34h4.14v-0.34c-0.97,0-1.31-0.42-1.31-1.83V38.83"/>
		<path class="st2" d="M154.22,39.94v-3.44h-0.32c-0.12,0.24-0.32,0.36-0.62,0.36c-0.68,0-1.77-0.48-3.22-0.48
			c-3.44,0-5.95,2.7-5.95,6.36c0,3.84,2.89,5.74,5.67,5.74c2.21,0,4.04-1.15,4.8-2.98l-0.3-0.28c-0.86,1.69-2.21,2.54-4.02,2.54
			c-2.59,0-4.38-2.27-4.38-5.74c0-2.96,1.49-5.19,4.26-5.19c1.99,0,3.18,0.95,3.74,3.12H154.22"/>
	</g>
	<g>
		<path class="st2" d="M45.61,56.84c-0.32-1.01-1.07-1.51-2.01-1.51c-1.1,0-1.84,0.69-1.84,1.58c0,1.93,3.44,1.47,3.44,3.03
			c0,0.63-0.45,1.1-1.35,1.1c-0.9,0-1.35-0.59-1.6-1.24l-0.62,0.22c0.32,0.73,0.85,1.59,2.18,1.59c1.56,0,2.06-0.91,2.06-1.8
			c0-1.97-3.45-1.63-3.44-2.97c0.01-0.61,0.43-0.95,1.14-0.95c0.79,0,1.27,0.47,1.42,1.07L45.61,56.84"/>
		<path class="st1" d="M47.49,58.48c0,2.04,0.89,3.14,2.39,3.14c1.5,0,2.39-1.1,2.39-3.14s-0.89-3.14-2.39-3.14
			C48.38,55.33,47.49,56.43,47.49,58.48 M48.17,58.48c0-1.74,0.63-2.57,1.71-2.57c1.07,0,1.71,0.83,1.71,2.57s-0.63,2.57-1.71,2.57
			C48.8,61.04,48.17,60.21,48.17,58.48z"/>
		<polyline class="st2" points="54.9,61.54 54.9,56.08 54.92,56.08 58.02,61.54 58.58,61.54 58.58,55.42 57.97,55.42 57.97,60.13 
			57.93,60.13 55.27,55.42 54.29,55.42 54.29,61.54 54.9,61.54 		"/>
		<path class="st1" d="M61.08,61.54l0.58-1.92h2.19l0.58,1.92h0.71l-1.88-6.12h-1.01l-1.88,6.12H61.08 M62.7,55.89h0.09l0.88,3.15
			h-1.85L62.7,55.89z"/>
		<path class="st1" d="M67.53,61.54v-2.78h1.43l1.24,2.78h0.74l-1.29-2.91c0.72-0.24,1.22-0.73,1.22-1.59
			c0-1.02-0.72-1.61-2.04-1.61h-1.96v6.12H67.53 M67.53,55.99h1.22c0.87,0,1.43,0.25,1.43,1.07c0,0.77-0.49,1.12-1.42,1.12h-1.23
			V55.99z"/>
		<path class="st2" d="M75.24,58.6v0.58h1.38v0.52c0,0.75-0.47,1.36-1.46,1.36c-0.9,0-1.74-0.61-1.74-2.57s0.85-2.57,1.74-2.57
			c0.71,0,1.22,0.37,1.52,1.35l0.64-0.13c-0.37-1.3-1.17-1.8-2.2-1.8c-1.39,0-2.39,1-2.39,3.14c0,2.14,1,3.14,2.39,3.14
			c0.68,0,1.29-0.21,1.6-0.64h0.02v0.56h0.56V58.6H75.24"/>
		<path class="st1" d="M79.57,61.54l0.58-1.92h2.19l0.58,1.92h0.71l-1.88-6.12h-1.01l-1.88,6.12H79.57 M81.19,55.89h0.09l0.88,3.15
			h-1.85L81.19,55.89z"/>
		<path class="st1" d="M84.93,58.48c0,2.04,0.89,3.14,2.39,3.14s2.39-1.1,2.39-3.14s-0.89-3.14-2.39-3.14S84.93,56.43,84.93,58.48
			 M85.61,58.48c0-1.74,0.63-2.57,1.71-2.57s1.71,0.83,1.71,2.57s-0.63,2.57-1.71,2.57S85.61,60.21,85.61,58.48z"/>
		<polyline class="st2" points="92.34,61.54 92.34,56.08 92.36,56.08 95.46,61.54 96.02,61.54 96.02,55.42 95.41,55.42 95.41,60.13 
			95.37,60.13 92.71,55.42 91.73,55.42 91.73,61.54 92.34,61.54 		"/>
		<path class="st1" d="M101.7,61.54h1.61c1.83,0,2.79-1.26,2.79-3.06c0-2.01-1.1-3.06-2.76-3.06h-1.64V61.54 M102.38,55.99h0.95
			c1.25,0,2.1,0.69,2.1,2.48c0,1.64-0.73,2.48-2.13,2.48h-0.91V55.99z"/>
		<polyline class="st2" points="111.7,55.42 111.7,58.04 108.77,58.04 108.77,55.42 108.09,55.42 108.09,61.54 108.77,61.54 
			108.77,58.62 111.7,58.62 111.7,61.54 112.38,61.54 112.38,55.42 111.7,55.42 		"/>
		<path class="st1" d="M114.88,61.54l0.58-1.92h2.19l0.58,1.92h0.71l-1.88-6.12h-1.01l-1.88,6.12H114.88 M116.5,55.89h0.09
			l0.88,3.15h-1.85L116.5,55.89z"/>
		<polyline class="st2" points="121.47,59.49 122.46,58.28 124.28,61.54 125.05,61.54 122.92,57.72 124.82,55.42 124.02,55.42 
			121.49,58.6 121.47,58.6 121.47,55.42 120.79,55.42 120.79,61.54 121.47,61.54 121.47,59.49 		"/>
		<path class="st1" d="M127.05,61.54l0.58-1.92h2.19l0.58,1.92h0.71l-1.88-6.12h-1.01l-1.88,6.12H127.05 M128.67,55.89h0.09
			l0.88,3.15h-1.85L128.67,55.89z"/>
	</g>
	<g>
		<defs>
			<path id="SVGID_1_" d="M0,65.1 M0,17.83V65.1h170V17.83H0z"/>
		</defs>
		<clipPath id="SVGID_2_">
			<use xlink:href="#SVGID_1_"  style="overflow:visible;"/>
		</clipPath>
		<path class="st3" d="M0.03,28.61v28.57C0.1,58.24,0.39,59.14,1.25,60c1.02,1.04,2.05,1.29,3.49,1.29h21.24
			c1.44,0,2.47-0.26,3.5-1.29c0.85-0.86,1.15-1.77,1.22-2.83V28.61c0-3.21-4.84-10.26-15.34-10.26C4.75,18.35,0.03,25.4,0.03,28.61"
			/>
		<path class="st4" d="M17.46,54.49c0.58-1.06,1.38-2.02,2.54-2.94c1.02-0.82,2.04-1.33,3.07-1.67c0.96-0.32,1.92-0.49,3-0.49h4.68
			v1.46c-0.21,0.1-0.44,0.2-0.67,0.28c-0.94,0.35-2.55,0.32-3.34,0.32c-0.06,0.36-0.12,0.71-0.51,1.06
			c-0.41,0.36-0.99,0.71-1.71,0.82c-1.58,0.24-2.51,0.39-3.94,1.06c-0.85,0.4-1.65,0.85-2.41,1.49c-0.26,0.22-0.58,0.55-0.8,0.86
			c-0.26,0.36-0.42,0.79-0.6,1.07c-0.11,0.16-0.28,0.23-0.42,0.26C16.44,56.72,16.9,55.51,17.46,54.49"/>
		<path class="st4" d="M15.37,27.66c0.18,0,0.25-0.92,0.22-1.48c-0.02-0.24-0.03-0.93-0.02-1.22c0.01-0.49,0.33-2.75,0.44-3.36
			c1.61,0.16,2.63,1.65,2.6,2.96c-0.59,1.26-0.95,2.28-1.42,3.75c-0.62,1.95-0.78,3.09-1.1,5.11c-0.29,1.88-0.37,2.8-0.37,4.64
			c0,1.62,0.18,2.47,0.19,4.19c0.01,0.34-0.05,0.75-0.22,1.06c-0.09,0.18-0.19,0.31-0.32,0.4c-0.13-0.09-0.23-0.22-0.32-0.4
			c-0.17-0.31-0.23-0.72-0.22-1.06c0.01-1.72,0.18-2.58,0.19-4.19c0-1.84-0.08-2.76-0.37-4.64c-0.32-2.02-0.49-3.16-1.1-5.11
			c-0.47-1.46-0.83-2.49-1.42-3.75c-0.03-1.3,1-2.79,2.61-2.96c0.12,0.61,0.42,2.87,0.43,3.36c0.01,0.3-0.01,0.98-0.02,1.22
			C15.12,26.74,15.2,27.66,15.37,27.66"/>
		<path class="st4" d="M30.71,45.2c-0.58,0.46-1.11,0.77-1.77,1.01c-0.86,0.32-2.34,0.3-3.07,0.3c0.12,0.35,0.03,0.76-0.32,1.08
			c-0.38,0.34-1.05,0.54-1.71,0.64c-1.45,0.22-2.3,0.36-3.62,0.98c-0.78,0.36-1.51,0.78-2.21,1.37c-0.24,0.2-0.54,0.51-0.73,0.78
			c-0.24,0.33-0.38,0.73-0.55,0.98c-0.1,0.15-0.26,0.21-0.38,0.24c0.09-1.25,0.5-2.36,1.02-3.3c0.53-0.98,1.26-1.86,2.32-2.71
			c0.94-0.75,1.87-1.21,2.82-1.53c0.88-0.29,1.77-0.45,2.75-0.45h5.45V45.2"/>
		<path class="st4" d="M13.4,49.29c-0.54-0.98-1.26-1.86-2.33-2.71c-0.93-0.75-1.87-1.21-2.82-1.53c-0.88-0.29-1.77-0.45-2.75-0.45
			H0.05v0.59c0.58,0.46,1.11,0.77,1.77,1.02c0.86,0.32,2.34,0.3,3.07,0.3c-0.12,0.35-0.04,0.76,0.32,1.08
			c0.38,0.34,1.05,0.54,1.71,0.64c1.45,0.22,2.3,0.36,3.62,0.98c0.78,0.36,1.51,0.78,2.21,1.36c0.24,0.2,0.53,0.51,0.73,0.78
			c0.23,0.33,0.38,0.73,0.55,0.98c0.1,0.15,0.25,0.21,0.38,0.24C14.33,51.34,13.91,50.23,13.4,49.29"/>
		<path class="st4" d="M13.31,54.49c-0.58-1.06-1.38-2.02-2.54-2.94c-1.02-0.82-2.04-1.33-3.07-1.67c-0.96-0.32-1.93-0.49-3-0.49
			H0.02v1.46c0.21,0.1,0.45,0.2,0.67,0.28c0.94,0.35,2.55,0.32,3.34,0.32c0.06,0.36,0.12,0.71,0.51,1.06
			c0.41,0.36,0.99,0.71,1.71,0.82c1.58,0.24,2.5,0.39,3.94,1.06c0.85,0.4,1.65,0.85,2.41,1.49c0.26,0.22,0.58,0.55,0.8,0.86
			c0.26,0.36,0.42,0.79,0.6,1.07c0.11,0.16,0.28,0.23,0.42,0.26C14.32,56.72,13.87,55.51,13.31,54.49"/>
		<path class="st4" d="M27.12,41.32c-0.75,0.28-2,0.29-2.62,0.29c0.25,0.36,0.15,0.85-0.15,1.17c-0.33,0.33-1.03,0.42-1.59,0.51
			c-1.24,0.21-1.97,0.35-3.1,0.95c-0.67,0.36-1.29,0.77-1.89,1.34c-0.21,0.19-0.46,0.49-0.62,0.76c-0.2,0.33-0.33,0.71-0.47,0.96
			c-0.09,0.14-0.22,0.2-0.32,0.24c0.07-1.23,0.43-2.31,0.87-3.23c0.46-0.95,1.08-1.81,1.99-2.64c0.8-0.72,1.6-1.18,2.41-1.48
			c0.76-0.29,1.52-0.44,2.36-0.44h5.45C29.18,40.25,27.98,41,27.12,41.32"/>
		<path class="st4" d="M3.64,41.32c0.75,0.28,2,0.29,2.62,0.29c-0.25,0.36-0.15,0.85,0.15,1.17c0.33,0.33,1.03,0.42,1.59,0.51
			c1.24,0.21,1.97,0.35,3.1,0.95c0.67,0.36,1.29,0.77,1.89,1.34c0.21,0.19,0.46,0.49,0.62,0.76c0.21,0.33,0.33,0.71,0.47,0.96
			c0.09,0.14,0.22,0.2,0.32,0.24c-0.07-1.23-0.43-2.31-0.87-3.23c-0.46-0.95-1.08-1.81-1.99-2.64c-0.8-0.72-1.6-1.18-2.41-1.48
			c-0.76-0.29-1.51-0.44-2.36-0.44H1.34C1.58,40.25,2.78,41,3.64,41.32"/>
		<path class="st4" d="M14.44,37.65c-0.03-0.64-0.07-1.27-0.15-1.94c-0.09-0.81-0.23-1.68-0.44-2.66c-0.22-0.99-0.46-2-0.74-2.96
			c-0.2-0.69-0.42-1.35-0.67-1.96c-0.48-1.21-0.97-2.12-1.41-2.75c-0.2-0.07-0.69-0.16-1.2-0.11c-0.44,0.05-0.91,0.16-1.27,0.36
			c0.26,0.29,0.5,0.57,0.74,0.85c0.29,0.36,0.55,0.68,0.69,0.87c0.18,0.25,0.6,0.87,0.86,1.28c0.7,1.1,1.14,2.53,1.27,2.82
			c-0.42-0.8-1.09-2.05-1.58-2.67c-0.02-0.03-0.1-0.13-0.14-0.17C9.15,27.11,8,26.18,8,26.18s-0.54,0.51-0.68,1.36
			c-0.08,0.48-0.09,1.04,0.05,1.5c0.6,0.53,1.28,1.15,2.1,2.04c0.91,1,1.87,2.19,2.55,3.31c0.35,0.6,0.67,1.21,0.93,1.8
			c0.19,0.44,0.36,0.85,0.49,1.24c0.1,0.32,0.2,0.76,0.26,1.23c0.03,0.26,0.05,0.64,0.04,0.88c-0.02,0.36-0.07,0.82-0.04,1.16
			c0.03,0.44,0.3,0.76,0.61,0.91c0.05-0.72,0.1-1.35,0.13-2.01C14.47,38.92,14.47,38.23,14.44,37.65"/>
		<path class="st4" d="M16.3,37.65c0.03-0.64,0.07-1.27,0.15-1.94c0.09-0.81,0.23-1.68,0.44-2.66c0.22-0.99,0.46-2,0.74-2.96
			c0.2-0.69,0.42-1.35,0.67-1.96c0.48-1.21,0.97-2.12,1.41-2.75c0.2-0.07,0.69-0.16,1.2-0.11c0.44,0.05,0.91,0.16,1.27,0.36
			c-0.26,0.29-0.5,0.57-0.74,0.85c-0.29,0.36-0.55,0.68-0.69,0.87c-0.18,0.25-0.6,0.87-0.86,1.28c-0.69,1.1-1.14,2.53-1.27,2.82
			c0.42-0.8,1.09-2.05,1.59-2.67c0.02-0.03,0.1-0.13,0.14-0.17c1.25-1.52,2.4-2.46,2.4-2.46s0.54,0.51,0.68,1.36
			c0.08,0.48,0.09,1.04-0.06,1.5c-0.6,0.53-1.28,1.15-2.1,2.04c-0.91,1-1.87,2.19-2.55,3.31c-0.35,0.6-0.67,1.21-0.93,1.8
			c-0.19,0.44-0.36,0.85-0.49,1.24c-0.1,0.32-0.2,0.76-0.27,1.23c-0.03,0.26-0.05,0.64-0.04,0.88c0.02,0.36,0.07,0.82,0.04,1.16
			c-0.03,0.44-0.3,0.76-0.61,0.91c-0.05-0.72-0.1-1.35-0.13-2.01C16.27,38.92,16.27,38.23,16.3,37.65"/>
		<path class="st4" d="M13.3,39.23C13.3,39.23,13.3,39.23,13.3,39.23c-0.06-0.42-0.21-1.11-0.47-1.75c-0.22-0.56-0.54-1.24-0.92-1.9
			c-0.54-0.91-1.09-1.66-1.57-2.21c-0.46-0.53-1.11-1.2-1.7-1.67c-0.58-0.46-1.15-0.83-1.49-1.06c-0.41,0.03-0.76,0.14-1.1,0.32
			c-0.38,0.2-0.69,0.61-0.84,0.93c0.69,0.19,1.44,0.45,2.25,0.91c0.91,0.52,2.33,1.59,2.85,2.04c-1.27-0.86-1.95-1.16-2.96-1.62
			c-0.81-0.43-2.32-0.75-2.32-0.75c-0.08,0.21-0.01,0.95,0.11,1.36c0.14,0.47,0.35,0.82,0.56,0.96c0.61,0.09,1.29,0.21,2.01,0.37
			c0.73,0.17,1.54,0.41,2.01,0.61c1.16,0.5,1.78,1.15,2.23,1.92c0.18,0.32,0.46,0.88,0.54,1.06c0,0,0.65,1.44,0.83,0.98
			C13.32,39.73,13.36,39.58,13.3,39.23"/>
		<path class="st4" d="M17.46,39.23L17.46,39.23c0.06-0.42,0.21-1.11,0.46-1.75c0.22-0.56,0.54-1.24,0.92-1.9
			c0.54-0.91,1.09-1.66,1.57-2.21c0.46-0.53,1.1-1.2,1.69-1.67c0.58-0.46,1.16-0.83,1.49-1.06c0.41,0.03,0.77,0.14,1.1,0.32
			c0.38,0.2,0.69,0.61,0.84,0.93c-0.69,0.19-1.44,0.45-2.25,0.91c-0.91,0.52-2.33,1.59-2.85,2.04c1.27-0.86,1.96-1.16,2.96-1.62
			c0.81-0.43,2.32-0.75,2.32-0.75c0.08,0.21,0.01,0.95-0.11,1.36c-0.14,0.47-0.34,0.82-0.57,0.96c-0.61,0.09-1.29,0.21-2.01,0.37
			c-0.73,0.17-1.54,0.41-2.01,0.61c-1.16,0.5-1.78,1.15-2.23,1.92c-0.18,0.32-0.46,0.88-0.54,1.06c0,0-0.65,1.44-0.83,0.98
			C17.45,39.73,17.4,39.58,17.46,39.23"/>
	</g>
</g>
<g id="guides">
</g>
</svg>
