<?xml version="1.0" encoding="utf-8"?>
<!-- Generator: Adobe Illustrator 25.0.1, SVG Export Plug-In . SVG Version: 6.00 Build 0)  -->
<svg version="1.1" id="Layer_1" xmlns="http://www.w3.org/2000/svg" xmlns:xlink="http://www.w3.org/1999/xlink" x="0px" y="0px"
	 width="180px" height="95.3px" viewBox="0 0 180 95.3" style="enable-background:new 0 0 180 95.3;" xml:space="preserve">
<style type="text/css">
	.st0{fill:none;}
	.st1{fill:#231F20;}
	.st2{fill:#D71E3E;}
</style>
<g>
	<rect class="st0" width="180" height="95.3"/>
	<g>
		<path class="st1" d="M26.8,32.6c-0.5,0-1.7,0-2.7,0c-1,0-2.1,0-2.7,0v-0.2c1.1-0.2,1.3-0.5,1.3-2.8V17.9c0-2.4-0.3-2.7-1.3-2.9
			v-0.2c0.6,0,1.7,0,2.6,0c1.3,0,2.4,0,3.1,0c4.6,0,6.6,2.2,6.6,4.9c0,2.6-2,4.8-5.4,4.8c-1,0-1.8-0.2-2.3-0.6l0.2-0.2
			c0.5,0.2,1.1,0.3,1.6,0.3c2.2,0,3.1-1.7,3.1-4.1c0-2.8-1.4-4.5-3.8-4.5c-0.5,0-1.1,0.1-1.6,0.2v13.9c0,2.4,0.2,2.7,1.3,2.8V32.6z"
			/>
		<path class="st1" d="M48.6,32.4c-0.8-0.2-1.1-0.6-1.9-2.8l-5.1-15.1l0-0.1h-0.6l-5.1,12.7c-1.6,4.1-2.1,4.8-3.6,5.2l0,0v0.2l0.1,0
			c0.5,0,1.3,0,2.2,0c1,0,1.6,0,2.2,0l0,0v-0.2l0,0c-0.7-0.1-1-0.5-1-1.2c0-0.7,0.4-1.7,1-3.4l0.6-1.4c0.8,0,1.6,0,2.6,0
			c1,0,1.9,0,2.9,0l0.9,2.6c0.5,1.4,0.7,2.1,0.7,2.5c0,0.5-0.3,0.8-1.1,0.9l0,0v0.2l0,0c0.5,0,1.7,0,2.7,0c0.9,0,2.2,0,2.7,0l0,0
			L48.6,32.4L48.6,32.4z M42.4,25.4c-0.9,0-1.8,0-2.5,0c-0.9,0-1.6,0-2.2,0l2.6-6.6L42.4,25.4z"/>
		<path class="st1" d="M146.7,32.4c-0.8-0.2-1.1-0.6-1.9-2.8l-5.1-15.1l0-0.1h-0.6L134,27.2c-1.6,4.1-2.1,4.8-3.6,5.2l0,0v0.2l0.1,0
			c0.5,0,1.3,0,2.2,0c1,0,1.6,0,2.2,0l0,0v-0.2l0,0c-0.7-0.1-1-0.5-1-1.2c0-0.7,0.4-1.7,1-3.4l0.6-1.4c0.8,0,1.6,0,2.6,0
			c1,0,1.9,0,2.9,0l0.9,2.6c0.5,1.4,0.7,2.1,0.7,2.5c0,0.5-0.3,0.8-1.1,0.9l0,0v0.2l0,0c0.5,0,1.7,0,2.7,0c0.9,0,2.2,0,2.7,0l0,0
			L146.7,32.4L146.7,32.4z M140.5,25.4c-0.9,0-1.8,0-2.5,0c-0.9,0-1.6,0-2.2,0l2.6-6.6L140.5,25.4z"/>
		<path class="st1" d="M64.5,32.9c0,0-0.3,0.1-1.2,0.1c-0.7,0-1.8-0.1-2.7-0.8c-0.9-0.7-1.9-2.2-3.3-4.8c-0.2-0.4-0.5-0.9-0.8-1.4
			c-0.3-0.4-0.5-0.9-0.8-1.3h-1.2V29c0,2.9,0.1,3.2,1.3,3.4v0.2c-0.5,0-1.7,0-2.6,0c-0.9,0-2.1,0-2.6,0v-0.2
			c1.2-0.2,1.3-0.5,1.3-3.4V18.4c0-2.7-0.1-3.3-1.3-3.5v-0.2c0.7,0,1.7,0,2.8,0c1.1,0,2.3,0,3,0c4.3,0,6.4,2.1,6.4,4.9
			c0,2.2-1.3,3.9-4.3,4.7c1,1.5,4.2,7.8,6.1,8.4V32.9z M55.6,24.1c3.1,0,4.1-1.5,4.1-4.1c0-2.8-1.2-4.6-3.8-4.6
			c-0.5,0-1,0.1-1.5,0.2v8.4H55.6z"/>
		<path class="st1" d="M98.4,32.9c0,0-0.3,0.1-1.2,0.1c-0.7,0-1.8-0.1-2.7-0.8c-0.9-0.7-1.9-2.2-3.3-4.8c-0.2-0.4-0.5-0.9-0.8-1.4
			c-0.3-0.4-0.5-0.9-0.8-1.3h-1.2V29c0,2.9,0.1,3.2,1.3,3.4v0.2c-0.5,0-1.7,0-2.6,0c-0.9,0-2.1,0-2.6,0v-0.2
			c1.2-0.2,1.3-0.5,1.3-3.4V18.4c0-2.7-0.1-3.3-1.3-3.5v-0.2c0.7,0,1.7,0,2.8,0c1.1,0,2.3,0,3,0c4.3,0,6.4,2.1,6.4,4.9
			c0,2.2-1.3,3.9-4.3,4.7c1,1.5,4.2,7.8,6.1,8.4V32.9z M89.6,24.1c3.1,0,4.1-1.5,4.1-4.1c0-2.8-1.2-4.6-3.8-4.6
			c-0.5,0-1,0.1-1.5,0.2v8.4H89.6z"/>
		<path class="st1" d="M81.8,32.6c-0.5,0-1.9,0-2.8,0c-1,0-2.2,0-2.8,0v-0.2c0.5-0.1,0.6-0.2,0.6-0.5c0-0.5-0.9-1.4-1.8-2.6
			l-4.3-5.5V29c0,2.9,0.1,3.2,1.3,3.4v0.2c-0.5,0-1.7,0-2.6,0c-0.9,0-2.1,0-2.6,0v-0.2c1.2-0.2,1.3-0.5,1.3-3.4V18.4
			c0-2.9-0.1-3.2-1.3-3.4v-0.2c0.6,0,1.7,0,2.6,0c0.9,0,2.1,0,2.6,0V15c-1.2,0.2-1.3,0.5-1.3,3.4v5c4.1-4.7,6.1-7.2,6.1-7.8
			c0-0.4-0.3-0.5-0.9-0.6v-0.2c0.7,0,1.6,0,2.5,0c0.8,0,2.1,0,2.5,0V15c-1.9,0.4-3.8,2.2-8.3,7.3l5.5,6.9c1.4,1.9,2.4,2.9,3.5,3.2
			V32.6z"/>
		<path class="st1" d="M108.2,14.3c-5,0-8.8,4.1-8.8,9.5c0,5.3,3.8,9.3,8.8,9.3c5.1,0,8.9-4,8.9-9.4C117,18.3,113.2,14.3,108.2,14.3
			 M108.1,32.2c-3.8,0-5.6-2.8-5.6-8.5c0-5.7,1.9-8.6,5.6-8.6c3.7,0,5.7,3,5.7,8.6C113.8,29.4,111.9,32.2,108.1,32.2"/>
		<path class="st1" d="M127.5,32.6c-0.5,0-1.6,0-2.5,0s-2,0-2.5,0v-0.2c1-0.2,1.2-0.5,1.2-2.8v-3l-4.7-9.3c-0.9-1.7-1.3-2.2-2-2.3
			v-0.2c0.5,0,1.8,0,2.7,0c0.9,0,2.2,0,2.7,0V15c-0.7,0.1-1.1,0.2-1.1,0.8c0,0.3,0.1,0.8,0.6,1.7l3.7,7.6l2.9-5.9
			c0.9-1.7,1.2-2.4,1.2-3.1c0-0.6-0.2-0.9-1.1-1v-0.2c0.5,0,1.1,0,2,0c0.9,0,1.5,0,2,0V15c-1.2,0.4-1.5,0.8-3.4,4.6l-3.2,6.3v3.6
			c0,2.4,0.2,2.7,1.2,2.8V32.6z"/>
		<path class="st1" d="M159.2,28.9c0,1.4-0.1,2.4-0.1,3.8c-2-0.1-4.2,0-6.8,0c-1.4,0-3.3,0-3.9,0v-0.2c1.1-0.2,1.3-0.6,1.3-2.8V17.8
			c0-2.4-0.2-2.7-1.2-2.8v-0.2c0.5,0,1.6,0,2.5,0c0.9,0,2,0,2.5,0V15c-1,0.2-1.2,0.5-1.2,2.8v13.9c0.5,0.1,1.6,0.1,2.3,0.1
			c3,0,3.8-0.3,4.3-3H159.2z"/>
	</g>
	<g>
		<path class="st1" d="M44.5,39.3c-4.5,0-7.9,3.7-7.9,8.5c0,4.8,3.4,8.4,7.9,8.4c4.6,0,8-3.5,8-8.4C52.5,42.9,49,39.3,44.5,39.3
			 M44.5,55.2c-3.3,0-4.9-2.4-4.9-7.5c0-5,1.7-7.6,4.9-7.6c3.3,0,5,2.6,5,7.6C49.5,52.7,47.8,55.2,44.5,55.2"/>
		<path class="st1" d="M63.2,52.3c-0.4,2.3-1.1,2.6-3.8,2.6c-0.4,0-1.5,0-2-0.1V42.5c0-2.1,0.2-2.3,1-2.5l0.1,0v-0.4l-0.1,0
			c-0.5,0-1.4,0-2.2,0c-0.8,0-1.7,0-2.2,0l-0.1,0V40l0.1,0c0.8,0.1,1,0.4,1,2.5v10.4c0,2-0.1,2.3-1.1,2.5l-0.1,0v0.4l0.1,0
			c0.5,0,2.2,0,3.4,0c0.5,0,0.9,0,1.4,0c1.7,0,3.2,0,4.6,0l0.1,0v-0.1c0-0.6,0-1.2,0.1-1.8c0-0.5,0-1,0.1-1.6l0-0.1L63.2,52.3
			L63.2,52.3z"/>
		<path class="st1" d="M87,52.1L87,52.1c-0.7,2.5-1.4,2.6-3.8,2.6c-0.6,0-1.4,0-1.9-0.1V48h1.4c1.6,0,2.3,0.1,2.6,1.5l0,0.1h0.4
			l0-0.2c0-0.2,0-0.3,0-0.5l0-0.1c0-0.3,0-0.6,0-1c0-0.1,0-0.3,0-0.4c0-0.2,0-0.3,0-0.4c0-0.4,0-0.7,0-1l0,0c0-0.2,0-0.3,0-0.5
			l0-0.2h-0.3l0,0.1c-0.3,1.4-0.8,1.5-2.6,1.5h-1.4v-6.1c0.2,0,0.7-0.1,1.8-0.1c2.3,0,3.2,0.1,3.7,2.3l0,0.1h0.3l0-0.2
			c0-0.6,0.1-1.4,0.1-2.1c0-0.7,0-1.1,0-1.1l0-0.2l-0.2,0c-1.2,0-3.6,0-6.3,0h-0.4c-1.2,0-2.2,0-2.6,0l-0.2,0V40l0.1,0
			c0.9,0.2,1,0.2,1,2.7v9.9c0,2.3-0.1,2.5-1,2.7l-0.1,0v0.4l0.2,0c0.3,0,1.4,0,2.3,0l2.1,0c2,0,3.3,0,4.9,0l0.2,0v-0.2
			c0-0.6,0-1,0-1.6c0-0.5,0-1.1,0.1-1.9l0-0.2h-0.3L87,52.1z"/>
		<path class="st1" d="M112,39.9c-3.9,0-4.8-0.3-5.2-0.5c-0.1,0-0.1,0-0.1-0.1l-0.2-0.1l0,0.2c0,0.7-0.1,1.4-0.3,2l0,0
			c0,0.3-0.1,0.6-0.1,0.9l0,0.2h0.4l0-0.1c0.4-1.2,0.8-1.7,3.6-1.7h0.9v11.6c0,2.6-0.1,2.6-1,2.8l-0.1,0v0.4l0.2,0
			c0.4,0,1.4,0,2.3,0c0.9,0,1.8,0,2.2,0l0.2,0v-0.4l-0.1,0c-0.8-0.1-1-0.1-1-2.8V41c3.4,0,4.1,0.1,4.2,1.5l0,0.2h0.4l0-0.2
			c0-0.4,0.3-2.2,0.5-2.8l0.1-0.3l-0.3,0.1C117.2,39.9,116.2,39.9,112,39.9"/>
		<path class="st1" d="M159.6,39.7c-0.4,0-1,0-1.7,0c-0.7,0-1.3,0-1.9,0l-0.2,0V40l0.1,0c1.3,0.4,1.4,1.2,1.4,10.1v1.2
			c-3.1-3.2-7.6-7.8-11.5-11.9l-0.3-0.3v0.7c0,3.1,0,6.3,0,10.1c0,4.3-0.2,5.1-1.2,5.4l-0.1,0v0.3l0.2,0c0.6,0,1.1,0,1.8,0
			c0.7,0,1.2,0,1.9,0l0.2,0v-0.3l-0.1,0c-1.4-0.4-1.4-1.5-1.4-10.1V44c4,4,8.4,8.7,11.5,11.9l0.3,0.3v-0.7c-0.1-2.5-0.1-5.1-0.1-9.9
			c0-4.3,0.2-5.3,1.2-5.6l0.1,0v-0.3L159.6,39.7z"/>
		<path class="st1" d="M34.5,51.6L34.5,51.6c-0.7,2.1-2.9,3.6-5.3,3.6c-3.9,0-5.9-3.9-5.9-7.5c0-4.4,2.5-7.5,6-7.5
			c2.5,0,4.5,1.5,5,3.6l0,0.1h0.4l0-0.2c0-0.4,0-0.8,0-1.5c0-0.7,0-1.6,0.1-2.1l0-0.2l-0.1,0c-0.2,0-0.4-0.1-0.7-0.1l0,0
			c-1.3-0.3-3-0.6-4.7-0.6c-3.4,0-5.5,1.5-6.7,2.7c-1.4,1.5-2.2,3.6-2.2,5.7c0,2.1,0.8,4.2,2.3,5.8c1.2,1.2,3.2,2.7,6.5,2.7
			c1.8,0,3.8-0.4,5.5-1.2l0.1,0v-0.1c0-1,0.1-2.2,0.2-3l0-0.2L34.5,51.6L34.5,51.6z"/>
		<path class="st1" d="M75.2,52.3c-0.4,2.3-1.1,2.6-3.8,2.6c-0.4,0-1.5,0-2-0.1V42.5c0-2.1,0.2-2.3,1-2.5l0.1,0v-0.4l-0.1,0
			c-0.5,0-1.4,0-2.2,0c-0.8,0-1.7,0-2.2,0l-0.1,0V40l0.1,0c0.8,0.1,1,0.4,1,2.5v10.4c0,2-0.1,2.3-1.1,2.5l-0.1,0v0.4l0.1,0
			c0.5,0,2.2,0,3.4,0c0.5,0,0.9,0,1.4,0c1.7,0,3.2,0,4.6,0l0.1,0v-0.1c0-0.6,0-1.2,0.1-1.8c0-0.5,0-1,0.1-1.6l0-0.1L75.2,52.3
			L75.2,52.3z"/>
		<path class="st1" d="M103.7,51.6L103.7,51.6c-0.7,2.1-2.9,3.6-5.3,3.6c-3.9,0-5.9-3.9-5.9-7.5c0-4.4,2.5-7.5,6-7.5
			c2.5,0,4.5,1.5,5,3.6l0,0.1h0.4l0-0.2c0-0.4,0-0.8,0-1.5c0-0.7,0-1.6,0.1-2.1l0-0.2l-0.1,0c-0.2,0-0.4-0.1-0.7-0.1l0,0
			c-1.3-0.3-3-0.6-4.7-0.6c-3.4,0-5.5,1.5-6.7,2.7c-1.4,1.5-2.2,3.6-2.2,5.7c0,2.1,0.8,4.2,2.3,5.8c1.2,1.2,3.2,2.7,6.5,2.7
			c1.8,0,3.8-0.4,5.5-1.2l0.1,0v-0.1c0-1,0.1-2.2,0.2-3l0-0.2L103.7,51.6L103.7,51.6z"/>
		<path class="st1" d="M123.1,39.7c-0.8,0-1.8,0-2.2,0l-0.2,0V40l0.1,0c0.7,0.1,0.9,0.7,0.9,2.8v9.7c0,2-0.2,2.7-0.9,2.8l-0.1,0v0.4
			l0.2,0c0.4,0,1.3,0,2.2,0c0.8,0,1.8,0,2.2,0l0.2,0v-0.4l-0.1,0c-0.7-0.1-0.9-0.8-0.9-2.8v-9.7c0-2,0.2-2.7,0.9-2.8l0.1,0v-0.4
			l-0.2,0C124.9,39.7,123.9,39.7,123.1,39.7"/>
		<path class="st1" d="M135.5,39.3c-4.5,0-7.9,3.7-7.9,8.5c0,4.8,3.4,8.4,7.9,8.4c4.6,0,8-3.5,8-8.4C143.4,42.9,140,39.3,135.5,39.3
			 M135.4,55.2c-3.3,0-4.9-2.4-4.9-7.5c0-5,1.7-7.6,4.9-7.6c3.3,0,5,2.6,5,7.6C140.4,52.7,138.8,55.2,135.4,55.2"/>
	</g>
	<rect x="22.8" y="64.6" class="st2" width="135.7" height="1.5"/>
	<g>
		<g>
			<path class="st1" d="M56.7,74.9v6.1H56v-2.7h-3.4v2.7h-0.8v-6l0.8-0.1v2.6H56V75L56.7,74.9z"/>
			<path class="st1" d="M58.2,77.9c0-1.7,1.4-3.1,3.2-3.1c1.8,0,3.2,1.4,3.2,3.1c0,1.7-1.4,3.1-3.2,3.1C59.6,81,58.2,79.7,58.2,77.9
				z M63.7,77.9c0-1.3-1-2.4-2.4-2.4c-1.3,0-2.4,1-2.4,2.4c0,1.3,1,2.4,2.4,2.4C62.7,80.3,63.7,79.2,63.7,77.9z"/>
			<path class="st1" d="M67.5,75.6v5.3h-0.8v-5.3H65l0.1-0.7h3.9l0.1,0.7H67.5z"/>
			<path class="st1" d="M73.8,80.2l-0.1,0.7h-3.3v-6h3.2l0.1,0.7h-2.6v1.8h2.1v0.7h-2.1v2H73.8z"/>
			<path class="st1" d="M78.6,80.2l-0.1,0.7h-3.2v-6l0.8-0.1v5.3H78.6z"/>
			<path class="st1" d="M79.5,80.4l0.2-0.8c0.4,0.4,1,0.8,1.7,0.8c0.7,0,1.1-0.4,1.1-1c0-0.4-0.2-0.8-0.9-1l-0.4-0.1
				c-1.1-0.4-1.5-1-1.5-1.8c0-0.9,0.7-1.6,1.7-1.6c0.5,0,1.1,0.2,1.6,0.5l-0.1,0.8c-0.5-0.4-1-0.5-1.4-0.5c-0.6,0-1,0.4-1,0.9
				c0,0.4,0.2,0.8,1,1l0.4,0.1c1,0.3,1.4,1,1.4,1.7c0,1-0.7,1.7-1.9,1.7C80.6,81,79.9,80.7,79.5,80.4z"/>
			<path class="st1" d="M90.7,81l-0.8-0.8c-0.5,0.5-1.1,0.8-1.8,0.8c-1,0-1.7-0.7-1.7-1.6c0-0.8,0.6-1.3,1.2-1.7
				c-0.4-0.5-0.7-0.9-0.7-1.5c0-0.8,0.7-1.5,1.6-1.5c0.9,0,1.5,0.6,1.5,1.4c0,0.8-0.6,1.2-1.3,1.6l1.1,1.2c0.2-0.4,0.4-0.8,0.6-1.2
				l0.7,0.2c-0.2,0.5-0.4,1-0.8,1.5l0.8,0.9L90.7,81z M89.4,79.7l-1.3-1.4c-0.5,0.3-0.9,0.6-0.9,1.2c0,0.5,0.4,0.9,1,0.9
				C88.6,80.3,89,80.1,89.4,79.7z M87.7,76.3c0,0.3,0.2,0.6,0.6,1.1c0.5-0.3,1-0.6,1-1.1c0-0.4-0.4-0.7-0.8-0.7
				C88,75.5,87.7,75.8,87.7,76.3z"/>
			<path class="st1" d="M97.2,80.9l-1.9-2.5v2.5h-0.8v-6h1.3c1.3,0,2.1,0.8,2.1,1.9c0,0.9-0.6,1.6-1.6,1.8l1.9,2.3H97.2z M95.3,78
				h0.5c0.9,0,1.4-0.5,1.4-1.2c0-0.7-0.5-1.2-1.4-1.2h-0.5V78z"/>
			<path class="st1" d="M103,80.2l-0.1,0.7h-3.3v-6h3.2l0.1,0.7h-2.6v1.8h2.1v0.7h-2.1v2H103z"/>
			<path class="st1" d="M104,80.4l0.2-0.8c0.4,0.4,1,0.8,1.7,0.8c0.7,0,1.1-0.4,1.1-1c0-0.4-0.2-0.8-0.9-1l-0.4-0.1
				c-1.1-0.4-1.5-1-1.5-1.8c0-0.9,0.7-1.6,1.7-1.6c0.5,0,1.1,0.2,1.6,0.5l-0.1,0.8c-0.5-0.4-1-0.5-1.4-0.5c-0.6,0-1,0.4-1,0.9
				c0,0.4,0.2,0.8,1,1l0.4,0.1c1,0.3,1.4,1,1.4,1.7c0,1-0.7,1.7-1.9,1.7C105.1,81,104.4,80.7,104,80.4z"/>
			<path class="st1" d="M108.8,77.9c0-1.7,1.4-3.1,3.2-3.1c1.8,0,3.2,1.4,3.2,3.1c0,1.7-1.4,3.1-3.2,3.1
				C110.2,81,108.8,79.7,108.8,77.9z M114.3,77.9c0-1.3-1-2.4-2.4-2.4c-1.3,0-2.4,1-2.4,2.4c0,1.3,1,2.4,2.4,2.4
				C113.3,80.3,114.3,79.2,114.3,77.9z"/>
			<path class="st1" d="M119.3,80.9l-1.9-2.5v2.5h-0.8v-6h1.3c1.3,0,2.1,0.8,2.1,1.9c0,0.9-0.6,1.6-1.6,1.8l1.9,2.3H119.3z
				 M117.4,78h0.5c0.9,0,1.4-0.5,1.4-1.2c0-0.7-0.5-1.2-1.4-1.2h-0.5V78z"/>
			<path class="st1" d="M123.4,75.6v5.3h-0.8v-5.3h-1.7l0.1-0.7h3.9l0.1,0.7H123.4z"/>
			<path class="st1" d="M125.8,80.4l0.2-0.8c0.4,0.4,1,0.8,1.7,0.8c0.7,0,1.1-0.4,1.1-1c0-0.4-0.2-0.8-0.9-1l-0.4-0.1
				c-1.1-0.4-1.5-1-1.5-1.8c0-0.9,0.7-1.6,1.7-1.6c0.5,0,1.1,0.2,1.6,0.5l-0.1,0.8c-0.5-0.4-1-0.5-1.4-0.5c-0.6,0-1,0.4-1,0.9
				c0,0.4,0.2,0.8,1,1l0.4,0.1c1,0.3,1.4,1,1.4,1.7c0,1-0.7,1.7-1.9,1.7C126.9,81,126.3,80.7,125.8,80.4z"/>
		</g>
	</g>
</g>
</svg>
