<svg xmlns="http://www.w3.org/2000/svg" viewBox="0 0 209.4816 95.3131"><defs><style>.cls-1,.cls-2,.cls-3{fill:#007885;}.cls-1{stroke:#007885;stroke-miterlimit:3.86369;stroke-width:0.5178px;}.cls-3{fill-rule:evenodd;}.cls-4{fill:#1d1d1b;}.cls-5{fill:none;}</style></defs><title>Asset 45</title><g id="Layer_2" data-name="Layer 2"><g id="Layer_1-2" data-name="Layer 1"><path class="cls-1" d="M104.707,5.25417A35.29347,35.29347,0,0,1,109.17347,22.394a35.72421,35.72421,0,0,1-4.46649,17.4331h0a36.27582,36.27582,0,0,1-4.5824-17.52366,35.2476,35.2476,0,0,1,4.4081-17.16655l.17431.1173Z"/><path class="cls-1" d="M104.831,59.13493c1.18134-16.37154,13.6826-29.13935,28.93154-28.987a27.45569,27.45569,0,0,1,4.0294.34122,15.23,15.23,0,0,0-3.8399-.62579c-13.03568-.64606-23.601,5.78575-29.32325,20.15253C98.90569,35.53454,88.515,28.89348,75.47817,29.27871a15.08276,15.08276,0,0,0-3.83984.54937,27.2757,27.2757,0,0,1,4.0294-.26059C90.9158,29.72009,103.65,42.73965,104.831,59.13493Z"/><path class="cls-2" d="M125.318,13.309a29.73463,29.73463,0,0,0-11.42256,9.942,30.691,30.691,0,0,0-5.22962,14.57938h0a30.56959,30.56959,0,0,0,11.69106-10.15632,30.29,30.29,0,0,0,5.1416-14.36227L125.318,13.309Z"/><path class="cls-2" d="M84.37454,12.89977a30.61567,30.61567,0,0,1,11.422,10.17047,31.26753,31.26753,0,0,1,5.22991,14.684h0A31.47582,31.47582,0,0,1,89.33565,27.3644a30.85691,30.85691,0,0,1-5.14189-14.46548l.18078.00086Z"/><path class="cls-2" d="M73.95081,65.85615l.53638.44132a3.77414,3.77414,0,0,1,.90359,1.002,2.08976,2.08976,0,0,1,.28959,1.07219,1.78308,1.78308,0,0,1-.15675.72,1.61483,1.61483,0,0,1-.6337.71941,2.531,2.531,0,0,1-1.35478.32742,2.58648,2.58648,0,0,1-.96533-.20082,2.21916,2.21916,0,0,0-.8046-.201,3.38978,3.38978,0,0,0-.09362-.6289,3.33225,3.33225,0,0,1-.09391-.62885q-.00165-.09434.00676-.21577a.80064.80064,0,0,1,.04685-.22588H71.752a2.77626,2.77626,0,0,0-.0268.33446,2.284,2.284,0,0,0,.02172.32459.89437.89437,0,0,0,.07219.26429,2.2324,2.2324,0,0,0,.20446.23068,3.07172,3.07172,0,0,0,.42555.37137,1.71251,1.71251,0,0,0,.399.23749,1.89773,1.89773,0,0,0,.7406.13757,1.55014,1.55014,0,0,0,1.0392-.37813,1.31552,1.31552,0,0,0,.43571-1.00033,1.62857,1.62857,0,0,0-.20844-.78057,2.8866,2.8866,0,0,0-.47684-.62919q-.27714-.27662-.52148-.47718l-.54961-.46811a6.23275,6.23275,0,0,1-.907-.865,1.41723,1.41723,0,0,1-.31327-.91485,1.30436,1.30436,0,0,1,.176-.63734,1.43432,1.43432,0,0,1,.51518-.52367,1.62226,1.62226,0,0,1,.83758-.218,1.92313,1.92313,0,0,1,.56825.07721q.28009.08084.83954.29785a1.89355,1.89355,0,0,1,.077.31442,2.14608,2.14608,0,0,1,.01692.31471,2.043,2.043,0,0,1-.09391.64242h-.13422q.01317-.08118.03864-.25777a2.64363,2.64363,0,0,0,.02847-.31782.86205.86205,0,0,0-.14889-.24587,1.7398,1.7398,0,0,0-.43513-.40018,1.2971,1.2971,0,0,0-.70306-.21012,1.11387,1.11387,0,0,0-.72079.24564.81946.81946,0,0,0-.29837.63734.87484.87484,0,0,0,.06313.343,1.933,1.933,0,0,0,.352.53638,7.50515,7.50515,0,0,0,.88551.83364Z"/><path class="cls-3" d="M78.96217,69.03215V63.73738a.29325.29325,0,0,0-.09391-.21069.31447.31447,0,0,0-.21462-.08825H77.60791a.71591.71591,0,0,0-.23432.09813,1.79783,1.79783,0,0,0-.40724.32465,1.8593,1.8593,0,0,0-.37731.59616l-.06712-.01328a1.376,1.376,0,0,1,.06035-.28173,2.83636,2.83636,0,0,1,.165-.36831q.12059-.23348.36467-.67736A8.70029,8.70029,0,0,0,78.6,63.21059q.17812-.00043.57363-.01045T80.04,63.177q.47042-.01317.87367-.02316.40311-.00971.59616-.0104a.48631.48631,0,0,1,.32349.09726.44549.44549,0,0,1,.13255.35872,1.03946,1.03946,0,0,1-.08912.32517,2.06752,2.06752,0,0,1-.38044.58657l-.09391-.06711a1.93932,1.93932,0,0,0,.15934-.20671c.0454-.0685.082-.12181.1091-.16016v-.10858q-.016-.39089-.20809-.4755a.73092.73092,0,0,0-.3686-.06821h-.8046a.96993.96993,0,0,0-.46759.07132.34828.34828,0,0,0-.13561.33643v5.56044a.70174.70174,0,0,0,.08513.35278.79339.79339,0,0,0,.19631.22253c.0499.00676.1046.01294.16443.01831s.10771.0082.14381.00849a.45841.45841,0,0,0,.24136-.0536v.16073a.62269.62269,0,0,1-.28144.04032q-.46609-.02027-.99207-.04032-.0829.00131-.26822.01046c-.12377.00676-.24592.01294-.36663.01946s-.20416.00988-.25014.0104a1.23779,1.23779,0,0,1-.181-.01017,1.31225,1.31225,0,0,1-.14076-.03015v-.16073a1.66389,1.66389,0,0,0,.36184.04031,2.25964,2.25964,0,0,0,.36207-.04031.91308.91308,0,0,0,.16079-.35451,2.66214,2.66214,0,0,0,.04031-.555Z"/><path class="cls-2" d="M82.27268,69.74053a.45259.45259,0,1,1,.13255.3232.45428.45428,0,0,1-.13255-.3232Z"/><path class="cls-2" d="M93.91864,65.30227h-.10748c.02622-.15345.0443-.25551.05389-.30685a.71154.71154,0,0,0,.01323-.13561,1.20115,1.20115,0,0,0-.27891-.54828,2.8397,2.8397,0,0,0-.80962-.709,2.55729,2.55729,0,0,0-1.29812-.352,2.4098,2.4098,0,0,0-1.49068.50086,3.10238,3.10238,0,0,0-.94281,1.25157,4.153,4.153,0,0,0-.3288,1.62664,3.775,3.775,0,0,0,.77132,2.427,2.54649,2.54649,0,0,0,2.018.93853,2.48583,2.48583,0,0,0,1.33953-.2871,1.119,1.119,0,0,0,.49352-.72195,4.1395,4.1395,0,0,0,.07081-.9487,1.54875,1.54875,0,0,0-.07388-.57334q-.09227-.28892-.51639-.31159l-.26794.01351v-.1475c.05527-.00647.09871-.0104.13087-.01155q.04739-.00251.15057-.002c.05556.00087.14976.00537.2826.01409q.19882.01274.39569.0257c.13139.00872.22248.01322.27382.0138q.11548-.00337.38211-.02679t.38211-.0268c.09362-.00087.16073.00116.20111.00508a.97315.97315,0,0,1,.161.03523v.14751a2.25128,2.25128,0,0,0-.29525-.04031.41057.41057,0,0,0-.41711.2614,1.233,1.233,0,0,0-.06544.4628v.75071a2.87553,2.87553,0,0,0,.00849.31333.57015.57015,0,0,0,.05862.18274,1.68387,1.68387,0,0,1-.19458.20953,2.7002,2.7002,0,0,1-.35531.25973,3.9762,3.9762,0,0,1-.75071.39055,4.05918,4.05918,0,0,1-3.29561-.24361A3.55906,3.55906,0,0,1,88.30633,68.485a3.33119,3.33119,0,0,1-.48873-1.73493,3.62794,3.62794,0,0,1,.55584-1.94585,3.83475,3.83475,0,0,1,1.36916-1.29674,3.576,3.576,0,0,1,1.73551-.47123,2.84685,2.84685,0,0,1,.60182.06515,3.8637,3.8637,0,0,1,.47094.136q.3947.14546.533.18274a.76021.76021,0,0,0,.2312.03188,1.55,1.55,0,0,0,.29161-.02033.98443.98443,0,0,0,.19123-.06007q.01014.12778.06145.41821.05163.29144.10044.57981a3.40234,3.40234,0,0,1,.05245.40978,1.36524,1.36524,0,0,1-.0268.29161,1.97417,1.97417,0,0,1-.06682.23125Z"/><path class="cls-3" d="M97.54982,66.37475V69.392a.57384.57384,0,0,0,.44275.60327,2.89564,2.89564,0,0,0,.36207-.0268v.14745a2.42835,2.42835,0,0,1-.322.0268q-.12856-.00425-.42046-.03356-.2923-.0292-.53159-.03356-.16668.00425-.41879.03356c-.16836.01946-.30091.03073-.399.03356a1.41473,1.41473,0,0,1-.32153-.0268v-.161a2.1738,2.1738,0,0,0,.28144.02709,2.57414,2.57414,0,0,0,.32182-.02709.9916.9916,0,0,0,.238-.34515,1.43625,1.43625,0,0,0,.057-.48618v-5.189a.98069.98069,0,0,0-.07219-.434q-.085-.20809-.42388-.22276-.151.00632-.28173.01323V63.1302c.07306-.00676.12833-.0104.16611-.01184.03754-.00167.10269-.002.196-.00167q.1167.00251.3872.02.26986.01775.377.02027l1.05924-.04031q.27835-.00677.53638-.01328a2.37412,2.37412,0,0,1,1.54682.48423,1.59133,1.59133,0,0,1,.57167,1.25862,1.46864,1.46864,0,0,1-.53638,1.12976,2.572,2.572,0,0,1-1.54208.54654q.25132.28.4211.50167.17.22083.3824.56121.21277.33969.59107.97521.21407.36333.4464.70474a2.79551,2.79551,0,0,0,.49721.56543.90868.90868,0,0,0,.57161.23154.71742.71742,0,0,0,.21295-.02847,2.17591,2.17591,0,0,0,.20278-.079v.10748a1.393,1.393,0,0,1-.3001.097,2.55428,2.55428,0,0,1-.49127.037,1.40055,1.40055,0,0,1-.709-.15456,2.0876,2.0876,0,0,1-.63763-.61619,14.44289,14.44289,0,0,1-.82515-1.30766q-.12225-.209-.339-.55249t-.43121-.64242a1.60919,1.60919,0,0,0-.32938-.37368,2.51531,2.51531,0,0,0-.2733-.0871,1.83714,1.83714,0,0,1-.26337-.08744Zm0-2.61456V66.1201a2.12749,2.12749,0,0,0,.39736.18442,1.94424,1.94424,0,0,0,.60828.08375,1.70788,1.70788,0,0,0,.692-.15282,1.48013,1.48013,0,0,0,.59645-.48053,1.421,1.421,0,0,0,.25355-.84156,1.67931,1.67931,0,0,0-.11817-.59136,1.46613,1.46613,0,0,0-.50565-.663,1.85766,1.85766,0,0,0-1.119-.31419,1.25653,1.25653,0,0,0-.70387.1221.318.318,0,0,0-.101.29328Z"/><path class="cls-2" d="M106.38294,63.17028l.68389-.01328c.02084.055.0581.14439.11279.26874q.0817.18574.16328.36975.08169.18357.11279.26a1.1557,1.1557,0,0,1,.08207.26481,1.574,1.574,0,0,1,.01184.24448h-.10714a.87061.87061,0,0,0-.41821-.71941,2.53267,2.53267,0,0,0-.93345-.35335,5.39457,5.39457,0,0,0-1.00847-.09391,1.02024,1.02024,0,0,0-.2967.037.22874.22874,0,0,0-.18586.21825v2.69461h1.17967a.88563.88563,0,0,0,.63028-.19429.44525.44525,0,0,0,.14751-.315,1.76943,1.76943,0,0,0-.06711-.34856l.08063-.0536a.50745.50745,0,0,1,.08519.196,3.30589,3.30589,0,0,1,.03523.36692q.02625.3909.04713.54794a1.59378,1.59378,0,0,0,.0871.33729,1.69159,1.69159,0,0,1,.08039.6032h-.09391a.94623.94623,0,0,0-.207-.6404,1.02921,1.02921,0,0,0-.663-.22958q-.47337-.03639-1.34213-.01525v2.86949a.42175.42175,0,0,0,.15906.34405.571.571,0,0,0,.35029.11193h.68383a2.961,2.961,0,0,0,.44253-.04,3.37762,3.37762,0,0,0,.925-.28173,2.3458,2.3458,0,0,0,.65738-.40724.56256.56256,0,0,0,.13394-.357h.134a1.7698,1.7698,0,0,1-.06884.31356,1.29464,1.29464,0,0,1-.15907.30316q-.08031.11514-.27128.37536a3.59193,3.59193,0,0,0-.25153.37564q-.29871-.03335-.90076-.0544-.60192-.02027-1.21968-.03015-.61805-.00936-.96337-.00936-.4894.01993-.97885.04037a1.25613,1.25613,0,0,1-.30853-.02709v-.16073a1.66375,1.66375,0,0,0,.25493.0268.88871.88871,0,0,0,.19573-.02345.63409.63409,0,0,0,.20642-.08375,1.11944,1.11944,0,0,0,.24113-.84462V64.07889a1.2132,1.2132,0,0,0-.08039-.53274q-.09557-.22967-.4825-.24166c-.06884-.00028-.11932.00029-.15092.00168-.03182.00144-.07554.00537-.13082.01155v-.14745a1.57725,1.57725,0,0,1,.38887-.04008q.121.00087.40527.01328.28425.01222.56624.02224.28173.01022.39626.00456Z"/><path class="cls-2" d="M115.27279,65.30227h-.10714c.02593-.15345.044-.25551.05412-.30685a.68228.68228,0,0,0,.01242-.13561,1.1941,1.1941,0,0,0-.27861-.54828,2.82885,2.82885,0,0,0-.81-.709,2.55532,2.55532,0,0,0-1.29726-.352,2.40988,2.40988,0,0,0-1.49126.50086,3.11061,3.11061,0,0,0-.943,1.25157,4.16718,4.16718,0,0,0-.32829,1.62664,3.77511,3.77511,0,0,0,.77162,2.427,2.54388,2.54388,0,0,0,2.017.93853,2.48969,2.48969,0,0,0,1.34011-.2871,1.11891,1.11891,0,0,0,.494-.72195,4.093,4.093,0,0,0,.06994-.9487,1.55291,1.55291,0,0,0-.07329-.57334c-.062-.19262-.23351-.29663-.51663-.31159l-.26851.01351v-.1475c.05643-.00647.09928-.0104.132-.01155.03159-.00167.08126-.00225.15-.002.05643.00087.15.00537.28312.01409.132.00849.264.01721.39482.0257q.198.01308.27412.0138.115-.00337.3824-.02679.26571-.0233.38246-.0268c.09362-.00087.16016.00116.20076.00508a.98147.98147,0,0,1,.16131.03523v.14751a2.2825,2.2825,0,0,0-.29554-.04031.411.411,0,0,0-.4174.2614,1.23311,1.23311,0,0,0-.06544.4628v.75071a3.01964,3.01964,0,0,0,.00791.31333.591.591,0,0,0,.05978.18274,1.77806,1.77806,0,0,1-.19516.20953,2.63781,2.63781,0,0,1-.35531.25973,3.94921,3.94921,0,0,1-.75013.39055,4.06035,4.06035,0,0,1-3.29613-.24361,3.554,3.554,0,0,1-1.31083-1.25469,3.32343,3.32343,0,0,1-.48844-1.73493,3.62951,3.62951,0,0,1,.555-1.94585,3.83957,3.83957,0,0,1,1.36939-1.29674,3.57819,3.57819,0,0,1,1.73608-.47123,2.84292,2.84292,0,0,1,.60124.06515,3.93007,3.93007,0,0,1,.47152.136c.26285.097.43993.1579.53245.18274a.76187.76187,0,0,0,.23125.03188,1.56356,1.56356,0,0,0,.29219-.02033.98006.98006,0,0,0,.19059-.06007c.00681.08519.02708.2245.06208.41821.03379.19429.06763.38748.10038.57981a3.36622,3.36622,0,0,1,.05186.40978,1.31279,1.31279,0,0,1-.027.29161,1.96155,1.96155,0,0,1-.06659.23125Z"/><path class="cls-3" d="M124.53631,66.58937a3.6634,3.6634,0,0,1-.41174,1.60971,3.81331,3.81331,0,0,1-1.2194,1.41571,3.46823,3.46823,0,0,1-2.00344.60828,4.1528,4.1528,0,0,1-2.06882-.49548,3.165,3.165,0,0,1-1.24314-1.27046,3.64119,3.64119,0,0,1,.08236-3.526,3.88825,3.88825,0,0,1,1.31984-1.35871,3.58872,3.58872,0,0,1,1.88382-.53615,4.07114,4.07114,0,0,1,1.9019.43825,3.16768,3.16768,0,0,1,1.28593,1.22818,3.74035,3.74035,0,0,1,.47267,1.88665Zm-.73777.49635a4.8842,4.8842,0,0,0-.1534-1.163,4.6491,4.6491,0,0,0-.50871-1.2507,3.03082,3.03082,0,0,0-.93853-.99918,2.61045,2.61045,0,0,0-1.4428-.40862,2.65512,2.65512,0,0,0-1.46422.42751,2.88637,2.88637,0,0,0-1.00507,1.15171,3.75755,3.75755,0,0,0-.37339,1.67914,3.994,3.994,0,0,0,.32828,1.55219,3.32973,3.32973,0,0,0,1.01408,1.33815,2.81115,2.81115,0,0,0,1.74174.56907,2.73437,2.73437,0,0,0,2.03387-.82487,2.963,2.963,0,0,0,.76815-2.07136Z"/><path class="cls-3" d="M127.35076,66.37475V69.392a.57394.57394,0,0,0,.44224.60327,2.88717,2.88717,0,0,0,.36207-.0268v.14745a2.41611,2.41611,0,0,1-.32147.0268c-.08577-.00283-.22565-.01409-.42081-.03356q-.291-.0292-.5313-.03356c-.11054.00283-.25042.01409-.41849.03356s-.3012.03073-.39933.03356a1.4167,1.4167,0,0,1-.32146-.0268v-.161a2.17291,2.17291,0,0,0,.28086.02709,2.56954,2.56954,0,0,0,.32262-.02709.99163.99163,0,0,0,.238-.34515,1.42531,1.42531,0,0,0,.05642-.48618v-5.189a.96844.96844,0,0,0-.07219-.434q-.08463-.20809-.42306-.22276c-.10148.00422-.19516.00872-.282.01323V63.1302c.07219-.00676.12746-.0104.16581-.01184.03719-.00167.10263-.002.19625-.00167.07785.00167.20642.00843.38691.02.18049.01183.3057.0186.3768.02027l1.05924-.04031c.18609-.00451.36433-.009.5369-.01328a2.37624,2.37624,0,0,1,1.54659.48423,1.58992,1.58992,0,0,1,.5719,1.25862,1.46885,1.46885,0,0,1-.537,1.12976,2.57047,2.57047,0,0,1-1.542.54654c.16807.18666.308.35393.42191.50167q.16921.22083.3824.56121.21147.33969.59107.97521.21321.36333.44559.70474a2.80329,2.80329,0,0,0,.49746.56543.90878.90878,0,0,0,.57195.23154.71933.71933,0,0,0,.21318-.02847c.05753-.01894.12521-.04517.20192-.079v.10748a1.37828,1.37828,0,0,1-.3.097,2.55383,2.55383,0,0,1-.49069.037,1.40385,1.40385,0,0,1-.70953-.15456,2.08406,2.08406,0,0,1-.63739-.61619,14.49269,14.49269,0,0,1-.82568-1.30766q-.12189-.209-.33845-.55249t-.43092-.64242a1.62169,1.62169,0,0,0-.32938-.37368,2.52291,2.52291,0,0,0-.27411-.0871,1.811,1.811,0,0,1-.26285-.08744Zm0-2.61456V66.1201a2.12655,2.12655,0,0,0,.39707.18442,1.94689,1.94689,0,0,0,.60915.08375,1.70758,1.70758,0,0,0,.69151-.15282,1.47788,1.47788,0,0,0,.59673-.48053,1.42708,1.42708,0,0,0,.25378-.84156,1.71411,1.71411,0,0,0-.1184-.59136,1.47434,1.47434,0,0,0-.50536-.663,1.86341,1.86341,0,0,0-1.12018-.31419,1.26182,1.26182,0,0,0-.70386.1221.3183.3183,0,0,0-.10044.29328Z"/><path class="cls-3" d="M133.61029,70.10179v-.174a1.39766,1.39766,0,0,0,.42866.05354.30934.30934,0,0,0,.12071-.01323.85239.85239,0,0,0,.27411-.47776,2.59155,2.59155,0,0,0,.07445-.64889V66.49517l-1.78344-2.77558a1.7073,1.7073,0,0,0-.42866-.44218c-.12856-.00058-.21768.00029-.2707.00144-.05192.00167-.10494.00531-.15906.01184v-.1478a3.41636,3.41636,0,0,1,.38916-.0268c.10829.00254.23691.01126.38356.0268.14774.01605.2651.02455.35422.0268q.34177-.02625.76365-.0536c.10494,0,.19066.00341.25609.01017a1.46054,1.46054,0,0,1,.18609.03015v.18782a1.09,1.09,0,0,0-.37449-.06682.42746.42746,0,0,0-.26845.08011.305.305,0,0,0-.06769.17453.50694.50694,0,0,0,.088.20111c.05192.08207.09478.14889.12747.201l1.48791,2.29273,1.19347-1.85026c.06093-.095.12972-.21687.20757-.36519a1.0021,1.0021,0,0,0,.12747-.38581.54017.54017,0,0,0-.10719-.32147,2.73839,2.73839,0,0,0-.335-.0268,1.56474,1.56474,0,0,0-.25493.01328v-.16108q.07606-.00971.13874-.01155c.04285-.00167.09928-.002.16922-.002.14664.00254.28647.01126.42074.0268.13422.01605.23125.02455.28988.0268.06994-.00225.17263-.01075.30686-.0268.13533-.01554.24818-.02426.33729-.0268a1.1994,1.1994,0,0,1,.20076.01184.41668.41668,0,0,1,.12071.04176v.14774a.62257.62257,0,0,0-.22785-.04.54732.54732,0,0,0-.2245.04511.60035.60035,0,0,0-.12406.07531.95575.95575,0,0,0-.1929.17257,3.86557,3.86557,0,0,0-.38356.52454l-1.60861,2.49412v2.48056a1.20366,1.20366,0,0,0,.12521.55475.83313.83313,0,0,0,.317.34376.26689.26689,0,0,0,.09247.01155q.07451.00207.12186.00167c.05412-.00225.13422-.01127.24136-.0268v.16079c-.13422.01548-.26845.02478-.40267.0268-.15346-.002-.31477-.01132-.48168-.0268q-.2521-.0233-.40273-.0268c-.09928.00225-.22559.01126-.38014.0268s-.30455.02478-.4512.0268a2.27942,2.27942,0,0,1-.41514-.04038Z"/><path class="cls-2" d="M52.69537,75.77336A86.36444,86.36444,0,0,0,73.723,76.0201c7.4795-.69515,10.75282-1.13623,21.15564.17512A83.56373,83.56373,0,0,0,115.918,76.442a83.19741,83.19741,0,0,1,21.16661.17483,81.75814,81.75814,0,0,0,19.70135.19683c-8.01139.84687-14.03064,1.14865-19.5107.36635a92.3384,92.3384,0,0,0-21.16777-.17483,83.53732,83.53732,0,0,1-21.03775-.24708c-10.40311-1.31077-13.67614-.87-21.157-.17454-9.68965,1.02822-15.48129-.06683-21.21738-.8102Z"/><path class="cls-2" d="M60.79332,78.23388a69.07358,69.07358,0,0,0,16.82112.198,75.86035,75.86035,0,0,1,19.04195.16045,66.84567,66.84567,0,0,0,16.8307.198,84.5841,84.5841,0,0,1,19.05044.16073,65.39565,65.39565,0,0,0,15.76106.15767c-6.40732.67736-11.224.91878-15.60766.29242a93.74635,93.74635,0,0,0-19.05044-.16073,66.77949,66.77949,0,0,1-16.831-.198A75.8719,75.8719,0,0,0,77.76785,78.882c-7.75275.82319-12.38506-.05273-16.97452-.64808Z"/><path class="cls-4" d="M16.26652,85.06a.32688.32688,0,0,1,.097.26306.75775.75775,0,0,1-.06512.23859,1.51347,1.51347,0,0,1-.27893.43005l-.06909-.04932a1.41814,1.41814,0,0,0,.117-.15143c.03333-.04993.06012-.08911.07983-.11731v-.07983c-.00787-.19092-.05841-.30713-.15259-.34851a.53471.53471,0,0,0-.27014-.05h-.59a.70929.70929,0,0,0-.3432.05243c-.06793.03845-.10126.12073-.09924.24652v4.07794a.50688.50688,0,0,0,.06262.25824.57564.57564,0,0,0,.1438.16327c.03638.00513.07666.00958.12042.01361q.066.00586.10571.00586a.332.332,0,0,0,.17682-.03894v.11768a.45146.45146,0,0,1-.20612.0296q-.34222-.01483-.72784-.0296c-.04041.00055-.10583.00305-.19659.00787-.09082.00452-.18024.00928-.26874.0141s-.14978.00732-.18365.00763a.8976.8976,0,0,1-.13281-.00739,1.04166,1.04166,0,0,1-.10321-.02222v-.11768a1.23259,1.23259,0,0,0,.26569.02936,1.67415,1.67415,0,0,0,.26538-.02936.67569.67569,0,0,0,.11786-.26,1.95844,1.95844,0,0,0,.0296-.40717V85.4243a.21408.21408,0,0,0-.06879-.15424.22951.22951,0,0,0-.15741-.06488h-.76672a.52406.52406,0,0,0-.17206.0719,1.31073,1.31073,0,0,0-.29865.238,1.36663,1.36663,0,0,0-.27667.43713l-.04932-.00989a1.0084,1.0084,0,0,1,.04425-.20612,2.07345,2.07345,0,0,1,.12128-.27045q.088-.17093.26733-.49664a6.39063,6.39063,0,0,0,1.09113.06879q.13074-.00037.42078-.00757.28976-.00769.63507-.017.34552-.0097.641-.01691.29572-.00723.43713-.00763A.35907.35907,0,0,1,16.26652,85.06Zm5.16,4.98029a.30926.30926,0,0,1-.21631-.13.64167.64167,0,0,1-.128-.41058v-3.048a.50706.50706,0,0,1,.04425-.22021.76958.76958,0,0,1,.10321-.15369,2.22639,2.22639,0,0,1,.23608-.01978,1.39912,1.39912,0,0,1,.19684.00989v-.09839a.36592.36592,0,0,0-.10205-.0257c-.03357-.00287-.09454-.00421-.18335-.00336-.11481.00165-.23663.01013-.36493.02448-.1286.01416-.22308.02228-.284.02429q-.06931-.003-.23834-.02429a2.89022,2.89022,0,0,0-.31213-.02448.65509.65509,0,0,0-.12183.00812c-.03021.00629-.06824.01636-.11426.03076v.08856c.0257-.00085.07025-.004.134-.00989.06366-.00531.11084-.00873.14124-.00952q.26138-.01282.31842.38824a10.26244,10.26244,0,0,1,.04541,1.36188H18.211V86.40232a.43036.43036,0,0,1,.06769-.21039.30307.30307,0,0,1,.26678-.14349c.0545-.00061.09314.00024.11536.0022.02258.00226.05615.00793.101.01721v-.08856a1.34132,1.34132,0,0,0-.35394-.03888,2.39555,2.39555,0,0,0-.27185.02448,2.52789,2.52789,0,0,1-.27893.02429,1.824,1.824,0,0,1-.25067-.02429,1.658,1.658,0,0,0-.22113-.02448,1.38094,1.38094,0,0,0-.26562.02905v.09839q.06894-.0098.22614-.01941a.94891.94891,0,0,1,.17706.00952.25288.25288,0,0,1,.12268.13062.51722.51722,0,0,1,.06409.23352v3.13647a.75632.75632,0,0,1-.04175.30853q-.052.14429-.29272.15369a2.07046,2.07046,0,0,1-.23578-.01971v.108l.187.01019q.04523-.00128.16583-.01276.121-.01218.24475-.02368.124-.01218.17944-.01263.0499.00037.17535.01263.12524.01144.25183.02368.12689.01144.18225.01276a2.03613,2.03613,0,0,0,.27545-.01978v-.09839a2.40451,2.40451,0,0,1-.26562.01971.27886.27886,0,0,1-.23975-.1745.88007.88007,0,0,1-.0849-.39569V87.97538h2.36981v1.40613a2.17731,2.17731,0,0,1-.0116.26.65063.65063,0,0,1-.08148.26648.24819.24819,0,0,1-.22144.12268l-.30481-.0296v.108c.03973.00482.07562.00793.108.00879.03241.0011.088.0014.16724.0014q.07782-.003.27155-.02484c.12915-.0141.22223-.02252.27893-.02423.03717.00024.10181.00452.19318.01263q.13705.01144.27606.02368.1387.01144.19971.01276c.05048,0,.08911-.00031.1153-.0014.02625-.00085.05981-.004.10071-.00879v-.08826q-.03726.00128-.12268.00989C21.49253,90.03636,21.45133,90.03971,21.42649,90.04026Zm4.15942-.328a1.83928,1.83928,0,0,1-.66248.18585,5.13137,5.13137,0,0,1-.608.02679,1.04643,1.04643,0,0,1-.32294-.027c-.07306-.02252-.10944-.08545-.10968-.18951V87.9683a7.42422,7.42422,0,0,1,.77832.02484.75749.75749,0,0,1,.407.13678.6013.6013,0,0,1,.18164.33984h.06879v-.13794a1.574,1.574,0,0,0-.07507-.25806,2.22564,2.22564,0,0,1-.08234-.27271,1.60511,1.60511,0,0,1-.011-.21149,1.00234,1.00234,0,0,0-.01862-.21149.32856.32856,0,0,0-.07843-.157l-.06879.01965a.7021.7021,0,0,1,.059.23578.23928.23928,0,0,1-.18079.24963,1.28276,1.28276,0,0,1-.37988.03552h-.59979v-1.4552a.43844.43844,0,0,1,.04907-.14746.72266.72266,0,0,1,.1463-.05786.78722.78722,0,0,1,.198-.02081,3.07967,3.07967,0,0,1,.44415.033,1.70554,1.70554,0,0,1,.59955.19006.6137.6137,0,0,1,.33282.48474h.059a1.07628,1.07628,0,0,0-.01947-.25543c-.00256-.00934-.02142-.06036-.05731-.15375-.03552-.093-.073-.19147-.11163-.29553q-.05841-.15646-.077-.21942c-.108.01642-.20337.02856-.28571.037-.08264.009-.19257.01434-.32965.01746-.13708.00336-.3418.00452-.61365.00452q-.1062-.00037-.36859-.00476t-.528-.00708q-.26559-.00211-.38184.00226l-.14752.00958v.11792l.27527-.01978a.27.27,0,0,1,.26056.11707.63988.63988,0,0,1,.0542.3158v3.02856a.72082.72082,0,0,1-.07477.38831c-.0567.09869-.18213.14972-.37732.15259a1.2089,1.2089,0,0,1-.187-.01978v.108a.98443.98443,0,0,0,.10577.00879c.03638.0011.106.00134.209.0011q.26523-.0097.531-.01978.49155.01025.98309.01978.14731,0,.36267.0011c.14355.0011.25214.00427.32568.00873q.14511.01236.30463.03955a1.114,1.114,0,0,1,.08124-.16248q.04266-.06812.15485-.22113a2.10111,2.10111,0,0,0,.19678-.30853.67779.67779,0,0,0,.04913-.27155h-.06885A.73168.73168,0,0,1,25.58592,89.71226Zm5.65125.28259c.00677.02454.01324.05383.01965.08826a.912.912,0,0,1-.188.04541,2.47976,2.47976,0,0,1-.37225.02344,1.03469,1.03469,0,0,1-.456-.075,1.30525,1.30525,0,0,1-.53723-.52454l-.826-1.30829a1.55758,1.55758,0,0,0-.12152-.14862.60876.60876,0,0,0-.14386-.12659,1.34943,1.34943,0,0,0-.161-.03412,1.0243,1.0243,0,0,1-.15369-.03442v1.39594a1.80433,1.80433,0,0,0,.04791.52484.29251.29251,0,0,0,.306.22253c.06567-.00311.1311-.00653.19678-.00989v.09845c-.06116.00928-.10376.01514-.128.01715-.024.002-.04712.00281-.06879.00256q-.05887-.00256-.17682-.01971c-.03247-.00482-.07587-.00989-.13031-.01471-.05444-.00507-.13257-.00989-.23352-.01465q-.07654.00046-.1734.00592-.09641.00632-.18079.01355-.14264.0173-.22589.01971a2.234,2.234,0,0,1-.27557-.00983v-.09845a1.41806,1.41806,0,0,0,.19659.00989.69858.69858,0,0,0,.23633-.03925.48211.48211,0,0,0,.12018-.19794,1.07624,1.07624,0,0,0,.01715-.26428V86.50389c-.00787-.22113-.06061-.359-.157-.4129a.46808.46808,0,0,0-.16754-.04315,1.28347,1.28347,0,0,0-.13733-.00592.34011.34011,0,0,0-.12781.01941v-.08826a.50958.50958,0,0,1,.12781-.02c.07587.00287.17743.01215.30487.02856a2.25213,2.25213,0,0,0,.33417.02081l.5014-.02936q.15738-.00842.337-.01825c.11963-.00677.20728-.01074.26288-.01135a2.1574,2.1574,0,0,1,.43738.03925,1.11244,1.11244,0,0,1,.54456.26086.911.911,0,0,1,.26678.698.87.87,0,0,1-.33044.70306,1.652,1.652,0,0,1-.89856.31439v.01978a.49425.49425,0,0,1,.097.0578.447.447,0,0,1,.08966.10938l.90466,1.37653A1.31991,1.31991,0,0,0,30.63,89.943a.77326.77326,0,0,0,.4007.11053.4398.4398,0,0,0,.1145-.01831A.32784.32784,0,0,0,31.23716,89.99485Zm-1.70343-2.37732a.84436.84436,0,0,0,.055-1.23523,1.0627,1.0627,0,0,0-.52814-.22052,3.11388,3.11388,0,0,0-.51752-.03131.3068.3068,0,0,0-.1709.04034.18228.18228,0,0,0-.075.16461v1.398a2.21427,2.21427,0,0,0,.22614.06262,1.40953,1.40953,0,0,0,.28516.02533A1.20653,1.20653,0,0,0,29.53373,87.61753Zm6.4054,2.39087a.77181.77181,0,0,1,.086-.01471v.108a1.07328,1.07328,0,0,1-.19653.01978c-.05-.0014-.13226-.00818-.24713-.01978-.115-.01129-.22949-.018-.3429-.01941q-.3468.01941-.56061.03918a1.09091,1.09091,0,0,1-.17712-.00989v-.108a1.22413,1.22413,0,0,0,.17712.01978.75689.75689,0,0,0,.14746-.01978.13568.13568,0,0,0,.07758-.064.28629.28629,0,0,0,.04059-.15234.60286.60286,0,0,0-.04932-.22644l-.53107-1.31726h-1.229l-.43262,1.16016a1.06161,1.06161,0,0,0-.06879.32465.38354.38354,0,0,0,.05273.20386.21561.21561,0,0,0,.19287.10071l.20679-.00958v.08826a.87073.87073,0,0,1-.1673.00989q-.12268-.00092-.269-.00989c-.09784-.00562-.185-.00873-.262-.00989q-.28253.01025-.43256.01978a.7256.7256,0,0,1-.167-.00989v-.08826l.14752.00958a.857.857,0,0,0,.09332-.00616.18054.18054,0,0,0,.06372-.01361q.0152-.01218.07867-.06006a.48478.48478,0,0,0,.07867-.06769c.0415-.06061.084-.126.12775-.19513a1.11148,1.11148,0,0,0,.09845-.18835l1.36688-3.61823h.108l1.36688,3.45123q.11343.28473.18048.41772a1.85882,1.85882,0,0,0,.14386.241.16361.16361,0,0,0,.08374.02234c.046.00476.0838.00732.11285.00732A.63134.63134,0,0,0,35.93913,90.0084ZM34.3043,88.08622l-.57025-1.416-.52118,1.416Zm5.31952-1.91742a.77179.77179,0,0,1,.34326.68585,1.06066,1.06066,0,0,1-.38977.81873,1.51917,1.51917,0,0,1-.987.3316,1.45945,1.45945,0,0,1-.36609-.04285,1.64948,1.64948,0,0,1-.26312-.09479v1.70142a.47083.47083,0,0,0,.06512.26282.748.748,0,0,0,.19037.18921,1.72368,1.72368,0,0,0,.35425-.01971v.09839a1.06,1.06,0,0,1-.14526.01721c-.0459.002-.10883.00281-.18921.00256a2.60778,2.60778,0,0,1-.30853-.02484c-.10352-.0141-.18414-.02252-.24194-.02423-.07141.00171-.165.01013-.28033.02423q-.17349.02161-.28033.02484-.14-.005-.236-.01019v-.108a1.32771,1.32771,0,0,0,.19684.01971.88643.88643,0,0,0,.13-.01239.639.639,0,0,0,.1156-.02679.46932.46932,0,0,0,.09735-.17572,1.17446,1.17446,0,0,0,.03046-.3161V86.62852a1.00349,1.00349,0,0,0-.05786-.41064q-.068-.17935-.34521-.1889a1.28806,1.28806,0,0,0-.187.01947V85.95a1.44239,1.44239,0,0,1,.246-.00958c.07074.00165.17255.01013.30481.02448q.19839.02124.27527.02429c.1283-.00055.27979-.004.45343-.00989q.261-.00842.66754-.00983A1.46866,1.46866,0,0,1,39.62382,86.1688Zm-.18774.79419a.79817.79817,0,0,0-.21411-.57306,1.059,1.059,0,0,0-.78906-.26288,1.0188,1.0188,0,0,0-.32825.03925.18953.18953,0,0,0-.14355.187v1.32745a1.0739,1.0739,0,0,0,.22223.10321,1.16518,1.16518,0,0,0,.348.04425.87315.87315,0,0,0,.71777-.28906A.91085.91085,0,0,0,39.43608,86.963Zm4.95288-.99811c-.10681.01135-.18524.01782-.23456.01947q-.06738-.00247-.23242-.01947-.165-.01776-.23944-.01965a1.05955,1.05955,0,0,0-.187.02924V86.073c.04034-.00482.07019-.00763.08966-.00879.01947-.00079.05194-.0011.09729-.0011a.23859.23859,0,0,1,.12781.02448c.04254.02032.06543.07788.06879.17206a.44884.44884,0,0,1-.04065.17706,1.60373,1.60373,0,0,1-.07751.14752l-.78656,1.21918-.9538-1.396a.42741.42741,0,0,1-.06879-.20642.15334.15334,0,0,1,.04913-.1134.23873.23873,0,0,1,.16718-.05414.88031.88031,0,0,1,.167.01978v-.07874a.4612.4612,0,0,0-.216-.02924l-.51129.03912a1.36394,1.36394,0,0,1-.17828-.00562c-.08508-.00671-.17059-.01355-.2569-.02112-.086-.00763-.14746-.0119-.18439-.01239l-.15741.00983V86.073l.21631-.00989a.24194.24194,0,0,1,.12885.0282.603.603,0,0,1,.19574.19794l1.15033,1.67151v1.5141a.94652.94652,0,0,1-.05414.37762.39774.39774,0,0,1-.1424.16357c-.10272,0-.17542-.00031-.21747-.0014-.04254-.00116-.088-.004-.13678-.00879v.09845a1.00644,1.00644,0,0,0,.11816.01721c.02966.0022.07867.00281.14752.0025q.07828-.00293.27667-.02454.19794-.02161.28369-.02448.05621.00073.19568.01263.13962.0119.28064.02344.14127.01227.20221.01294a.93181.93181,0,0,0,.09723-.0025.20948.20948,0,0,0,.06006-.01721v-.09845c-.04449.00623-.07837.01129-.10205.01611A.42488.42488,0,0,1,43.407,90.016a.35147.35147,0,0,1-.30371-.15509.56878.56878,0,0,1-.08966-.317V88.03965l.93433-1.45544a1.6556,1.6556,0,0,1,.3418-.42273.44506.44506,0,0,1,.29718-.09839.64038.64038,0,0,1,.13794.00989v-.09851a.30331.30331,0,0,0-.10828-.02924Q44.54969,85.94725,44.389,85.96488Zm10.95056-.3q-.02289-.055-.08295-.19061-.0596-.13577-.11957-.27808t-.08289-.21716a1.94886,1.94886,0,0,1-.26172.03442c-.07782.00421-.158.00568-.23969.00482l-1.18-.00989q-.08377.00421-.29047-.00342-.20728-.00677-.4151-.01605-.20856-.00879-.29724-.00989a1.16368,1.16368,0,0,0-.28516.02936v.10828c.04041-.00452.07251-.00763.09595-.00848.02313-.0011.06006-.00165.11053-.0014q.28381.009.35394.17737a.89252.89252,0,0,1,.0592.39032v3.64081a1.06759,1.06759,0,0,1-.08569.49127.34911.34911,0,0,1-.23212.18134,1.388,1.388,0,0,1-.34125.02533v.10834a1.33383,1.33383,0,0,0,.19653.00983q.0618-.00082.21326-.0127l.30481-.02368q.15308-.01172.21973-.01263c.03357.00049.093.00482.17792.01263s.17065.01581.2569.02368q.129.0119.18445.0127a.786.786,0,0,0,.12921-.00873,1.135,1.135,0,0,0,.13647-.0307v-.11768a.77545.77545,0,0,1-.21661.03894q-.28931-.01483-.35254-.19037a.78651.78651,0,0,1-.05048-.33044v-1.9668q.6828-.00586,1.0155.0246a.62149.62149,0,0,1,.44336.1709.81681.81681,0,0,1,.12408.46356h.079a2.39571,2.39571,0,0,0-.01868-.2865.80688.80688,0,0,0-.06989-.20532,1.35242,1.35242,0,0,1-.07391-.21124.98626.98626,0,0,1-.01465-.21118c.00085-.02765.004-.07867.00989-.154.00562-.07532.009-.12885.00983-.161a.518.518,0,0,0-.069-.2558l-.07843.03979a.76824.76824,0,0,1,.03918.20642.3012.3012,0,0,1-.27411.34406,6.158,6.158,0,0,1-1.12213.04907V85.36259a.16731.16731,0,0,1,.13654-.15967.73752.73752,0,0,1,.21741-.0274,3.94955,3.94955,0,0,1,.73944.06885,1.86278,1.86278,0,0,1,.68445.25891.63888.63888,0,0,1,.30682.52765h.07867a1.07993,1.07993,0,0,0-.00873-.17346A.86778.86778,0,0,0,55.33952,85.66484Zm2.49664.288q-.12057.00934-.24451.01892t-.17938.01007c-.02991-.00018-.08459-.0036-.163-.01007q-.118-.0098-.23743-.01892c-.07983-.00653-.13647-.00983-.16974-.01044a1.73687,1.73687,0,0,0-.17572.00763c-.04565.00507-.09192.01215-.139.022v.0885a1.62248,1.62248,0,0,1,.20667-.00989,1.84138,1.84138,0,0,1,.226.00989.5254.5254,0,0,1,.16614.21631,1.08659,1.08659,0,0,1,.04028.36407v2.73328a1.46872,1.46872,0,0,1-.04028.429.47109.47109,0,0,1-.13654.20044,1.271,1.271,0,0,1-.19653.00958,1.53452,1.53452,0,0,1-.21631-.00958v.09814a1.15671,1.15671,0,0,0,.18665.01978c.03357-.00031.09308-.004.17822-.01019.0849-.00616.17035-.01263.25665-.01886.086-.00623.14777-.00964.18475-.01013q.05621.00073.20074.01013c.09644.00623.19434.0127.29279.01886.099.00623.17029.00989.21429.01019.0462.00055.07922-.00031.09845-.00226a.30617.30617,0,0,0,.06879-.01752v-.09814a1.47141,1.47141,0,0,1-.20673.01978,1.3353,1.3353,0,0,1-.19653-.01978.64727.64727,0,0,1-.12268-.16974.59914.59914,0,0,1-.06409-.273v-3.097a.448.448,0,0,1,.09454-.29865.35281.35281,0,0,1,.27917-.1145c.05078,0,.08911.00031.11536.0014.02649.00116.06006.004.101.00848V85.972a2.1864,2.1864,0,0,0-.2558-.02966C57.97209,85.943,57.91679,85.94627,57.83616,85.9528Zm4.36292-.09143-.52112.04944c-.08234.00476-.18329.00958-.30341.01349-.12042.00372-.20929.00592-.26678.00592q-.19464-.00082-.47577-.011t-.43884-.01831c-.03412-.00061-.09045-.00513-.17029-.01276q-.11975-.01172-.22961-.02393c-.07324-.00763-.1167-.01184-.1311-.01263a.46827.46827,0,0,0-.108.00977c-.03442.09167-.07391.1839-.11816.27557q-.03177.06894-.10944.20447c-.05188.09052-.11029.19287-.17572.30792l.059.04944a1.18314,1.18314,0,0,1,.33081-.39435,1.3399,1.3399,0,0,1,.80994-.21686q.2753-.00412.33557.07648a.48571.48571,0,0,1,.04791.29834v2.70081a1.63812,1.63812,0,0,1-.06146.54828.90553.90553,0,0,1-.19427.28961,1.37583,1.37583,0,0,1-.19659.00983,1.185,1.185,0,0,1-.187-.00983v.108h.33447c.0434-.0014.12128-.00812.23352-.01947q.16827-.0173.27777-.01941.10785.00211.29126.01941c.12219.01135.22168.01807.29865.01947q.08679.00046.13287-.0011c.03046-.00085.08459-.00391.16217-.00848v-.09839l-.2558.00983a.27092.27092,0,0,1-.21521-.12067.81927.81927,0,0,1-.119-.49042V86.28477a.14642.14642,0,0,1,.04657-.13062.50374.50374,0,0,1,.29749-.0567,2.40455,2.40455,0,0,1,.55072.037.25429.25429,0,0,1,.2262.25861.33934.33934,0,0,1-.03943.16046,2.12588,2.12588,0,0,1-.12775.20441l.06879.02966q.36127-.429.35388-.59174a.31421.31421,0,0,0-.08459-.25177A.48867.48867,0,0,0,62.19908,85.86137Zm5.76074.10077a1.1095,1.1095,0,0,1-.187.02478,1.34969,1.34969,0,0,1-.22-.02478,1.44113,1.44113,0,0,0-.242-.02429,1.18352,1.18352,0,0,0-.25574.01978v.08826a1.03168,1.03168,0,0,1,.17706-.00958,1.27,1.27,0,0,1,.19659.00958.61254.61254,0,0,1,.18188.32684,1.7854,1.7854,0,0,1,.03436.4007v2.645l-2.9007-3.284a.52837.52837,0,0,0-.28369-.165,1.72257,1.72257,0,0,0-.39453-.03162,2.20617,2.20617,0,0,0-.45233.03918v.09821a1.623,1.623,0,0,1,.21625-.01947.39407.39407,0,0,1,.1991.04059.64143.64143,0,0,1,.15485.13647l.09845.108v2.86133c.001.0166-.00256.08069-.01129.192a1.8533,1.8533,0,0,1-.066.3537.4814.4814,0,0,1-.16864.27069.56509.56509,0,0,1-.09955.01331c-.051.00391-.08661.00586-.10687.00616a1.37809,1.37809,0,0,1-.21625-.01947v.09814c.0318.00507.064.00958.09583.01355a1.22662,1.22662,0,0,0,.13989.00592q.15985-.01941.51154-.03925a2.04833,2.04833,0,0,1,.29474.01978,1.38249,1.38249,0,0,0,.17712.01947,2.14589,2.14589,0,0,0,.26563-.01947v-.09814a1.23447,1.23447,0,0,1-.1969.01947.38677.38677,0,0,1-.35754-.21521.77566.77566,0,0,1-.08459-.355V86.52787l3.14642,3.58881c.04089.04431.077.064.108.05865a.15891.15891,0,0,0,.07758-.01807.07737.07737,0,0,0,.04059-.07013V86.695a1.11391,1.11391,0,0,1,.06744-.46838.43656.43656,0,0,1,.17822-.18079c.09723-.00031.16583.00055.20526.00256a1.1611,1.1611,0,0,1,.1391.01715V85.9672a1.13688,1.13688,0,0,0-.27527-.02936A1.106,1.106,0,0,0,67.95982,85.96214Zm4.35645,3.75012a1.83723,1.83723,0,0,1-.66241.18585,5.125,5.125,0,0,1-.60773.02679,1.04816,1.04816,0,0,1-.32318-.027c-.07275-.02252-.10913-.08545-.10944-.18951V87.9683a7.42618,7.42618,0,0,1,.77838.02484.75652.75652,0,0,1,.40668.13678.59875.59875,0,0,1,.18158.33984h.06879v-.13794a1.54047,1.54047,0,0,0-.075-.25806,2.27114,2.27114,0,0,1-.08234-.27271,1.55714,1.55714,0,0,1-.01074-.21149,1.00234,1.00234,0,0,0-.01862-.21149.32579.32579,0,0,0-.07867-.157l-.06879.01965a.68929.68929,0,0,1,.059.23578.23934.23934,0,0,1-.18048.24963,1.28479,1.28479,0,0,1-.37988.03552H70.6135v-1.4552a.43178.43178,0,0,1,.04907-.14746.7162.7162,0,0,1,.14636-.05786.78425.78425,0,0,1,.19769-.02081,3.081,3.081,0,0,1,.44446.033,1.70989,1.70989,0,0,1,.59955.19006.61417.61417,0,0,1,.33276.48474h.059a1.0572,1.0572,0,0,0-.01978-.25543c-.00226-.00934-.02142-.06036-.05695-.15375q-.05374-.13953-.112-.29553-.05832-.15646-.07666-.21942c-.108.01642-.20331.02856-.28595.037-.0827.009-.19238.01434-.32971.01746-.137.00336-.34149.00452-.61365.00452q-.10611-.00037-.36829-.00476-.26266-.0043-.5282-.00708-.26569-.00211-.38159.00226l-.14752.00958v.11792l.27527-.01978a.27036.27036,0,0,1,.26062.11707.64025.64025,0,0,1,.05383.3158v3.02856a.72084.72084,0,0,1-.07471.38831q-.08459.148-.37738.15259a1.19954,1.19954,0,0,1-.18665-.01978v.108a.98261.98261,0,0,0,.10547.00879c.03638.0011.106.00134.20892.0011q.26532-.0097.53107-.01978.49155.01025.9834.01978.14713,0,.36261.0011c.14331.0011.25214.00427.32544.00873q.14511.01236.30487.03955a1.09,1.09,0,0,1,.08124-.16248q.0423-.06812.15479-.22113a2.09757,2.09757,0,0,0,.19666-.30853.68285.68285,0,0,0,.04932-.27155H72.708A.733.733,0,0,1,72.31626,89.71226Zm3.04828-2.23688a5.16778,5.16778,0,0,1-.54822-.49664.63419.63419,0,0,1-.17938-.43768.42714.42714,0,0,1,.18188-.36237.71715.71715,0,0,1,.418-.11932.72544.72544,0,0,1,.47662.16418.87416.87416,0,0,1,.23633.32367.71711.71711,0,0,1,.06372.23016.547.547,0,0,1-.059.20642l.07867.02936a.80138.80138,0,0,0,.05273-.1402.60644.60644,0,0,0,.01605-.15485l-.00989-.32428c-.00049-.05383.00061-.09644.00256-.12689s.00763-.08008.01721-.14862l-.24591-.0885a2.32538,2.32538,0,0,0-.36011-.10071,1.64851,1.64851,0,0,0-.30853-.027.99441.99441,0,0,0-.65564.19965.78486.78486,0,0,0-.24908.38745.9379.9379,0,0,0-.03918.2583.80162.80162,0,0,0,.08179.38159,1.43814,1.43814,0,0,0,.29834.368q.21323.20132.59338.51886a4.35939,4.35939,0,0,1,.61084.57166.90545.90545,0,0,1-.01465,1.165.85611.85611,0,0,1-.6554.26929,1.12424,1.12424,0,0,1-.63367-.19714,1.39823,1.39823,0,0,1-.40411-.42187.83322.83322,0,0,1-.14215-.39374.74191.74191,0,0,1,.04932-.25543l-.07867-.01019a.73174.73174,0,0,0-.05164.19067,2.9654,2.9654,0,0,0-.00726.30115q-.00256.07617.06848.58008.44128.16882.658.24457a2.00778,2.00778,0,0,0,.3429.09448,1.89293,1.89293,0,0,0,.2973.01489,1.40986,1.40986,0,0,0,.546-.1156,1.18378,1.18378,0,0,0,.47827-.36493,1.03955,1.03955,0,0,0,.20477-.64044,1.12072,1.12072,0,0,0-.24084-.72028A5.4909,5.4909,0,0,0,75.36454,87.47538Zm3.852,0a5.15549,5.15549,0,0,1-.54822-.49664.63557.63557,0,0,1-.17938-.43768.42838.42838,0,0,1,.18195-.36237.717.717,0,0,1,.41791-.11932.72514.72514,0,0,1,.47656.16418.87436.87436,0,0,1,.23639.32367.70646.70646,0,0,1,.06366.23016.54462.54462,0,0,1-.0589.20642l.07867.02936a.7965.7965,0,0,0,.05273-.1402.60616.60616,0,0,0,.01611-.15485l-.00989-.32428c-.00055-.05383.00031-.09644.00256-.12689.002-.0304.00757-.08008.01721-.14862l-.24591-.0885a2.3369,2.3369,0,0,0-.35992-.10071,1.65175,1.65175,0,0,0-.30872-.027.99313.99313,0,0,0-.65546.19965.78165.78165,0,0,0-.24933.38745.93688.93688,0,0,0-.03912.2583.79739.79739,0,0,0,.082.38159,1.42857,1.42857,0,0,0,.2981.368q.21323.20132.59332.51886a4.32843,4.32843,0,0,1,.61084.57166.90445.90445,0,0,1-.01465,1.165A.85637.85637,0,0,1,79.02,90.022a1.12524,1.12524,0,0,1-.634-.19714,1.40492,1.40492,0,0,1-.40411-.42187.83727.83727,0,0,1-.14215-.39374.74052.74052,0,0,1,.04938-.25543l-.07874-.01019a.7266.7266,0,0,0-.05157.19067,2.94171,2.94171,0,0,0-.00732.30115q-.00256.07617.06879.58008.44119.16882.65765.24457a2.00628,2.00628,0,0,0,.3429.09448,1.89252,1.89252,0,0,0,.2973.01489,1.40986,1.40986,0,0,0,.546-.1156,1.18337,1.18337,0,0,0,.47827-.36493,1.03914,1.03914,0,0,0,.20471-.64044,1.12038,1.12038,0,0,0-.24084-.72028A5.48733,5.48733,0,0,0,79.21653,87.47538Zm12.92151,2.548a.71975.71975,0,0,0,.14716-.01019v.09845c-.03076.00342-.06714.00653-.108.00989-.01263-.00031-.06818-.004-.16608-.01019s-.20135-.01263-.31018-.01886-.1861-.00964-.23157-.01013c-.03693.00049-.09863.00391-.18469.01013s-.17175.0127-.25665.01886c-.08514.00623-.14465.00989-.17822.01019-.05524.00024-.09479,0-.11816-.0011-.02307-.00116-.05273-.004-.08826-.00879v-.108a1.47323,1.47323,0,0,0,.16467.01581c.04144.0011.10126-.00085.17938-.00623a.39183.39183,0,0,0,.123-.09442.20719.20719,0,0,0,.03436-.13147.73512.73512,0,0,0-.03949-.24591l-.66864-1.71094H88.84385l-.52118,1.32745a2.42514,2.42514,0,0,0-.07867.24341,1.24979,1.24979,0,0,0-.04907.2876.38731.38731,0,0,0,.12775.30481.54832.54832,0,0,0,.20642.02966h.17712v.08826a.57466.57466,0,0,1-.07135.00879c-.02118.0011-.05981.00134-.11536.0011-.05048-.0014-.13647-.00818-.25806-.01978-.12183-.01129-.21289-.018-.27295-.01941-.08856.0014-.18219.00812-.28143.01941-.0993.0116-.176.01837-.22986.01978-.05133.00024-.08661,0-.10577-.0011a.40137.40137,0,0,1-.06146-.00879v-.108a.52274.52274,0,0,0,.10938.01581c.03357.0011.092-.00085.17572-.00623a.98987.98987,0,0,0,.19659-.17822,1.35535,1.35535,0,0,0,.22644-.39172l1.73047-4.4837a.09846.09846,0,0,1,.03943-.04932h.07843a.176.176,0,0,1,.04932.06879l1.78937,4.61151a1.52724,1.52724,0,0,0,.1142.25208.79142.79142,0,0,0,.12183.1413A.411.411,0,0,0,92.138,90.02336Zm-1.76038-2.36975-.73743-1.85846-.7276,1.85846Zm5.59454,2.05865a1.83881,1.83881,0,0,1-.66272.18585,5.12194,5.12194,0,0,1-.60773.02679,1.04837,1.04837,0,0,1-.32318-.027c-.07275-.02252-.10913-.08545-.10913-.18951V87.9683a7.4224,7.4224,0,0,1,.77808.02484.75769.75769,0,0,1,.407.13678.60234.60234,0,0,1,.18158.33984h.06879v-.13794a1.59775,1.59775,0,0,0-.075-.25806,2.16072,2.16072,0,0,1-.08234-.27271,1.56344,1.56344,0,0,1-.011-.21149,1.01589,1.01589,0,0,0-.01831-.21149.33125.33125,0,0,0-.07861-.157l-.06915.01965a.697.697,0,0,1,.05927.23578.23957.23957,0,0,1-.18079.24963,1.28276,1.28276,0,0,1-.37988.03552h-.59955v-1.4552a.42984.42984,0,0,1,.04883-.14746.72125.72125,0,0,1,.1463-.05786.78688.78688,0,0,1,.198-.02081,3.07967,3.07967,0,0,1,.44415.033,1.70751,1.70751,0,0,1,.59955.19006.6137.6137,0,0,1,.33282.48474h.0589a1.0731,1.0731,0,0,0-.01947-.25543c-.00256-.00934-.02173-.06036-.05725-.15375q-.05328-.13953-.11194-.29553-.058-.15646-.07672-.21942c-.108.01642-.20331.02856-.28564.037-.08289.009-.19263.01434-.33.01746-.13678.00336-.34155.00452-.6134.00452q-.1062-.00037-.36859-.00476-.26221-.0043-.5282-.00708-.26523-.00211-.38159.00226l-.1474.00958v.11792L93.453,86.021a.27.27,0,0,1,.26056.11707.63925.63925,0,0,1,.05414.3158v3.02856a.7179.7179,0,0,1-.075.38831q-.08414.148-.37708.15259a1.2034,1.2034,0,0,1-.187-.01978v.108a.98312.98312,0,0,0,.10577.00879c.03638.0011.106.00134.20892.0011q.26532-.0097.53082-.01978.49146.01025.98334.01978.14676,0,.36267.0011c.14355.0011.25214.00427.32574.00873q.14465.01236.3045.03955a1.11387,1.11387,0,0,1,.0813-.16248c.02844-.04541.07971-.11926.15479-.22113a2.11359,2.11359,0,0,0,.19684-.30853.68649.68649,0,0,0,.04907-.27155h-.06879A.73241.73241,0,0,1,95.97221,89.71226Zm3.048-2.23688a5.15549,5.15549,0,0,1-.54822-.49664.63536.63536,0,0,1-.17944-.43768.42853.42853,0,0,1,.18195-.36237.71682.71682,0,0,1,.41791-.11932.7263.7263,0,0,1,.47693.16418.87655.87655,0,0,1,.236.32367.71881.71881,0,0,1,.064.23016.5531.5531,0,0,1-.0592.20642l.07867.02936a.80632.80632,0,0,0,.05273-.1402.62222.62222,0,0,0,.0163-.15485l-.01013-.32428c-.00024-.05383.00055-.09644.00256-.12689s.00787-.08008.01715-.14862l-.24591-.0885a2.332,2.332,0,0,0-.3598-.10071,1.65348,1.65348,0,0,0-.30884-.027.99361.99361,0,0,0-.65533.19965.78047.78047,0,0,0-.249.38745.95076.95076,0,0,0-.03949.2583.79739.79739,0,0,0,.082.38159,1.43423,1.43423,0,0,0,.29816.368q.213.20132.59332.51886a4.33084,4.33084,0,0,1,.61078.57166.90445.90445,0,0,1-.01465,1.165.85584.85584,0,0,1-.65515.26929,1.12419,1.12419,0,0,1-.63361-.19714,1.40314,1.40314,0,0,1-.40442-.42187.83659.83659,0,0,1-.14215-.39374.74912.74912,0,0,1,.04932-.25543l-.07861-.01019a.728.728,0,0,0-.05139.19067,2.95738,2.95738,0,0,0-.00757.30115q-.00256.07617.06879.58008.44128.16882.65771.24457a2.00033,2.00033,0,0,0,.34314.09448,1.88886,1.88886,0,0,0,.297.01489,1.41243,1.41243,0,0,0,.54626-.1156,1.18245,1.18245,0,0,0,.478-.36493,1.03968,1.03968,0,0,0,.20508-.64044,1.12278,1.12278,0,0,0-.24115-.72028A5.48994,5.48994,0,0,0,99.02024,87.47538Zm5.15741-1.614-.52118.04944c-.0824.00476-.18335.00958-.30347.01349-.12042.00372-.20923.00592-.26709.00592q-.19409-.00082-.4754-.011t-.43884-.01831c-.03387-.00061-.09052-.00513-.17035-.01276q-.11966-.01172-.22925-.02393c-.07361-.00763-.117-.01184-.13141-.01263a.47186.47186,0,0,0-.10828.00977c-.03442.09167-.07367.1839-.11792.27557-.02081.046-.0575.11426-.10944.20447-.05157.09052-.11023.19287-.17566.30792l.059.04944a1.18286,1.18286,0,0,1,.33075-.39435,1.34025,1.34025,0,0,1,.81-.21686c.18359-.00275.29578.02258.33551.07648a.48607.48607,0,0,1,.048.29834v2.70081a1.63976,1.63976,0,0,1-.06146.54828.91057.91057,0,0,1-.19427.28961,1.37668,1.37668,0,0,1-.19659.00983,1.185,1.185,0,0,1-.187-.00983v.108h.33441c.04346-.0014.12134-.00812.23352-.01947q.16837-.0173.27783-.01941.10785.00211.29132.01941c.12238.01135.22186.01807.29865.01947q.08661.00046.13275-.0011c.03052-.00085.0849-.00391.16223-.00848v-.09839l-.25586.00983a.27105.27105,0,0,1-.21509-.12067.81958.81958,0,0,1-.11908-.49042V86.28477a.14658.14658,0,0,1,.04657-.13062.50455.50455,0,0,1,.29779-.0567,2.40392,2.40392,0,0,1,.55048.037.2538.2538,0,0,1,.2262.25861.33586.33586,0,0,1-.03949.16046,2.15092,2.15092,0,0,1-.12775.20441l.06879.02966q.36127-.429.35394-.59174a.31421.31421,0,0,0-.08459-.25177A.48859.48859,0,0,0,104.17765,85.86137Zm5.77081,4.17889a.30786.30786,0,0,1-.21661-.13.64314.64314,0,0,1-.12744-.41058v-3.048a.5021.5021,0,0,1,.04395-.22021.75688.75688,0,0,1,.10266-.15369,2.2169,2.2169,0,0,1,.23688-.01978,1.39136,1.39136,0,0,1,.19629.00989v-.09839a.36984.36984,0,0,0-.10266-.0257c-.03271-.00287-.09363-.00421-.18274-.00336-.11505.00165-.23688.01013-.36548.02448-.1275.01416-.22217.02228-.28314.02429-.04626-.002-.12634-.01013-.23914-.02429a2.866,2.866,0,0,0-.31134-.02448.65927.65927,0,0,0-.12183.00812c-.03046.00629-.06879.01636-.11505.03076v.08856c.02594-.00085.071-.004.13422-.00989.06433-.00531.11169-.00873.14215-.00952q.26056-.01282.31812.38824a10.33143,10.33143,0,0,1,.0451,1.36188H106.733V86.40232a.42547.42547,0,0,1,.06738-.21039.30307.30307,0,0,1,.26678-.14349c.05438-.00061.093.00024.1156.0022q.03351.00339.10071.01721v-.08856a1.34016,1.34016,0,0,0-.35394-.03888,2.38359,2.38359,0,0,0-.27155.02448,2.5379,2.5379,0,0,1-.27924.02429,1.82494,1.82494,0,0,1-.25067-.02429,1.65165,1.65165,0,0,0-.22113-.02448,1.38253,1.38253,0,0,0-.26569.02905v.09839q.069-.0098.2262-.01941a.94959.94959,0,0,1,.17712.00952.25334.25334,0,0,1,.12268.13062.51793.51793,0,0,1,.064.23352v3.13647a.75117.75117,0,0,1-.04175.30853c-.035.09619-.1322.14722-.29248.15369a2.07109,2.07109,0,0,1-.236-.01971v.108l.18671.01019c.03015-.00085.08575-.00513.16614-.01276q.12094-.01218.24475-.02368.124-.01218.17932-.01263c.03333.00024.092.00452.17548.01263q.12515.01144.25183.02368c.08459.00763.14545.0119.18213.01276a2.02525,2.02525,0,0,0,.27527-.01978v-.09839a2.39466,2.39466,0,0,1-.26538.01971.27835.27835,0,0,1-.23969-.1745.87523.87523,0,0,1-.08459-.39569V87.97538h2.36945v1.40613a2.22261,2.22261,0,0,1-.01129.26.65125.65125,0,0,1-.08234.26648.24711.24711,0,0,1-.22113.12268l-.3045-.0296v.108c.03943.00482.07556.00793.10828.00879.03271.0011.088.0014.16693.0014.05188-.002.14215-.01044.27185-.02484.1286-.0141.22223-.02252.27863-.02423q.05585.00037.19287.01263c.09137.00763.1839.01556.27637.02368q.13879.01144.19965.01276c.05078,0,.08911-.00031.11511-.0014.027-.00085.05981-.004.1015-.00879v-.08826c-.02594.00085-.06653.00421-.12292.00989C110.01383,90.03636,109.97325,90.03971,109.94847,90.04026Zm4.15906-.328a1.84225,1.84225,0,0,1-.66211.18585,5.14039,5.14039,0,0,1-.60809.02679,1.05207,1.05207,0,0,1-.32373-.027c-.07214-.02252-.10828-.08545-.10944-.18951V87.9683a7.41951,7.41951,0,0,1,.77838.02484.75515.75515,0,0,1,.40723.13678.59839.59839,0,0,1,.18158.33984h.06879v-.13794a1.50723,1.50723,0,0,0-.0744-.25806,2.34857,2.34857,0,0,1-.0835-.27271,1.52551,1.52551,0,0,1-.01013-.21149,1.00013,1.00013,0,0,0-.01917-.21149.32658.32658,0,0,0-.07782-.157c-.02374.00647-.04626.01294-.06885.01965a.72086.72086,0,0,1,.05865.23578.239.239,0,0,1-.18048.24963,1.28443,1.28443,0,0,1-.38013.03552h-.60016v-1.4552a.44556.44556,0,0,1,.04968-.14746.69859.69859,0,0,1,.14667-.05786.78129.78129,0,0,1,.19739-.02081,3.08191,3.08191,0,0,1,.4444.033,1.70829,1.70829,0,0,1,.599.19006.612.612,0,0,1,.33282.48474h.05975a1.10488,1.10488,0,0,0-.02032-.25543c-.00226-.00934-.02142-.06036-.0564-.15375-.03607-.093-.0733-.19147-.11279-.29553-.03833-.10431-.06433-.17737-.07666-.21942-.10724.01642-.20306.02856-.28546.037-.08234.009-.19287.01434-.32935.01746-.13763.00336-.3418.00452-.61365.00452q-.10657-.00037-.3689-.00476t-.52789-.00708c-.17712-.0014-.30463-.00085-.38135.00226l-.14777.00958v.11792l.27527-.01978a.27114.27114,0,0,1,.26056.11707.63311.63311,0,0,1,.05414.3158v3.02856a.7149.7149,0,0,1-.07556.38831c-.0564.09869-.18164.14972-.37677.15259a1.21121,1.21121,0,0,1-.18726-.01978v.108a1.00108,1.00108,0,0,0,.106.00879c.03613.0011.10608.00134.20868.0011q.26578-.0097.53137-.01978c.32715.00684.65533.01331.98248.01978.09814,0,.22.00024.36322.0011.14331.0011.25269.00427.326.00873q.14383.01236.30457.03955a1.10794,1.10794,0,0,1,.08124-.16248c.0282-.04541.08008-.11926.15448-.22113a2.01258,2.01258,0,0,0,.19635-.30853.66663.66663,0,0,0,.04962-.27155h-.06885A.73233.73233,0,0,1,114.10752,89.71226Zm4.35309-3.85089-.52112.04944c-.08234.00476-.18274.00958-.30347.01349-.12067.00372-.20868.00592-.26617.00592-.1297-.00055-.28876-.00421-.476-.011s-.334-.0127-.43884-.01831c-.03387-.00061-.09027-.00513-.17035-.01276-.08008-.00781-.1568-.01575-.229-.02393q-.11-.01144-.132-.01263a.47692.47692,0,0,0-.10828.00977c-.03387.09167-.07336.1839-.11737.27557-.02142.046-.0575.11426-.10937.20447-.05194.09052-.11053.19287-.176.30792l.05865.04944a1.19293,1.19293,0,0,1,.33167-.39435,1.3367,1.3367,0,0,1,.80988-.21686c.18274-.00275.29553.02258.335.07648a.48664.48664,0,0,1,.04852.29834v2.70081a1.63765,1.63765,0,0,1-.062.54828.91375.91375,0,0,1-.194.28961,1.3818,1.3818,0,0,1-.19629.00983,1.18158,1.18158,0,0,1-.18726-.00983v.108h.33392c.044-.0014.12177-.00812.23346-.01947.11279-.01154.20532-.018.27863-.01941q.10666.00211.291.01941c.12189.01135.22113.01807.299.01947q.08633.00046.132-.0011c.0304-.00085.08459-.00391.16241-.00848v-.09839l-.256.00983a.26916.26916,0,0,1-.21436-.12067.80851.80851,0,0,1-.11957-.49042V86.28477a.14653.14653,0,0,1,.04626-.13062.507.507,0,0,1,.29779-.0567,2.40011,2.40011,0,0,1,.55048.037.25452.25452,0,0,1,.22675.25861.349.349,0,0,1-.03949.16046c-.027.051-.06995.119-.12744.20441l.06885.02966c.24023-.286.3587-.48315.353-.59174a.31234.31234,0,0,0-.08459-.25177A.48878.48878,0,0,0,118.46061,85.86137Zm2.79309.09143c-.08124.00623-.16248.01239-.24475.01892q-.12534.0097-.17944.01007c-.0304-.00018-.08459-.0036-.16351-.01007s-.1579-.0127-.23688-.01892c-.08014-.00653-.13654-.00983-.17041-.01044a1.7564,1.7564,0,0,0-.176.00763c-.0451.00507-.09137.01215-.13873.022v.0885a1.63054,1.63054,0,0,1,.20642-.00989,1.85376,1.85376,0,0,1,.22675.00989.53186.53186,0,0,1,.16583.21631,1.12147,1.12147,0,0,1,.04059.36407v2.73328a1.51287,1.51287,0,0,1-.04059.429.47534.47534,0,0,1-.13647.20044,1.26642,1.26642,0,0,1-.19629.00958,1.54087,1.54087,0,0,1-.21661-.00958v.09814a1.15514,1.15514,0,0,0,.18616.01978c.03381-.00031.09363-.004.17822-.01019.08569-.00616.17151-.01263.2572-.01886s.14777-.00964.185-.01013c.03723.00049.10376.00391.20081.01013.09589.00623.194.0127.29211.01886.0993.00623.17041.00989.21436.01019.04626.00055.079-.00031.09814-.00226a.295.295,0,0,0,.06885-.01752v-.09814a1.468,1.468,0,0,1-.20642.01978,1.32871,1.32871,0,0,1-.19635-.01978.66453.66453,0,0,1-.12292-.16974.5993.5993,0,0,1-.06317-.273v-3.097a.44476.44476,0,0,1,.09363-.29865.35494.35494,0,0,1,.27979-.1145c.05072,0,.08911.00031.11505.0014s.05975.004.1004.00848V85.972a2.16671,2.16671,0,0,0-.25494-.02966C121.38908,85.943,121.33378,85.94627,121.2537,85.9528Zm5.52625,3.6673a1.77087,1.77087,0,0,1-.51544.25317,2.91141,2.91141,0,0,1-.92053.15009,1.67274,1.67274,0,0,1-1.64581-1.08832,2.34207,2.34207,0,0,1-.17261-.88831,2.12679,2.12679,0,0,1,.4873-1.44165,1.61622,1.61622,0,0,1,1.233-.53467,1.97283,1.97283,0,0,1,.71973.13617,1.47815,1.47815,0,0,1,.4895.30627,2.10235,2.10235,0,0,1,.22675.30377.91546.91546,0,0,1,.10834.20752q.00174.16241-.01019.295h.08911a.65214.65214,0,0,0,.026-.10828,1.20126,1.20126,0,0,0,.01239-.19659c0-.0448,0-.10486-.0011-.17932s-.00342-.12946-.00793-.16473c-.009-.04993-.02594-.12946-.053-.23828a1.517,1.517,0,0,1-.04626-.31219h-.07776a.68283.68283,0,0,1-.22675.03925,1.8992,1.8992,0,0,1-.52118-.13794,2.521,2.521,0,0,0-.81555-.13733,2.19165,2.19165,0,0,0-1.13367.313,2.27332,2.27332,0,0,0-1.09875,1.94836,2.07048,2.07048,0,0,0,.23126.9707,1.81033,1.81033,0,0,0,.75012.75269,2.81844,2.81844,0,0,0,1.35815.30237,3.18006,3.18006,0,0,0,1.14948-.183,1.32435,1.32435,0,0,0,.46368-.27948,1.50213,1.50213,0,0,0,.26508-.39313l-.07782-.059A1.06474,1.06474,0,0,1,126.77995,89.6201Zm2.84045-2.14471a5.27468,5.27468,0,0,1-.54822-.49664.63945.63945,0,0,1-.17938-.43768.429.429,0,0,1,.1828-.36237.7138.7138,0,0,1,.4173-.11932.72626.72626,0,0,1,.47717.16418.8716.8716,0,0,1,.23578.32367.71983.71983,0,0,1,.06427.23016.573.573,0,0,1-.05859.20642l.07782.02936a.79919.79919,0,0,0,.053-.1402.60754.60754,0,0,0,.01581-.15485l-.01013-.32428c0-.05383.0011-.09644.00336-.12689s.00787-.08008.01691-.14862l-.24585-.0885a2.31948,2.31948,0,0,0-.35986-.10071,1.652,1.652,0,0,0-.30908-.027.99355.99355,0,0,0-.6554.19965.78334.78334,0,0,0-.24933.38745.92722.92722,0,0,0-.03839.2583.7908.7908,0,0,0,.0813.38159,1.468,1.468,0,0,0,.29779.368c.14215.13422.34064.30707.59332.51886a4.33748,4.33748,0,0,1,.61139.57166.90445.90445,0,0,1-.01465,1.165.85515.85515,0,0,1-.6554.26929,1.12539,1.12539,0,0,1-.634-.19714,1.40821,1.40821,0,0,1-.40381-.42187.83727.83727,0,0,1-.14215-.39374.74212.74212,0,0,1,.04962-.25543l-.079-.01019a.763.763,0,0,0-.05182.19067c-.00568.05664-.00793.15735-.00677.30115-.00226.05078.02142.244.06879.58008.29327.11255.51324.19434.65765.24457a1.99289,1.99289,0,0,0,.3429.09448,1.88439,1.88439,0,0,0,.29669.01489,1.40872,1.40872,0,0,0,.546-.1156,1.17729,1.17729,0,0,0,.47827-.36493,1.039,1.039,0,0,0,.20532-.64044,1.121,1.121,0,0,0-.24139-.72028A5.44556,5.44556,0,0,0,129.6204,87.47538Zm12.92175,2.548a.72538.72538,0,0,0,.14777-.01019v.09845c-.03162.00342-.06769.00653-.10828.00989-.01245-.00031-.06769-.004-.16583-.01019s-.2019-.01263-.31018-.01886c-.1095-.00623-.18616-.00964-.23236-.01013-.03613.00049-.09821.00391-.1839.01013-.08691.00623-.17151.0127-.2572.01886-.08459.00623-.14441.00989-.17822.01019-.0553.00024-.09479,0-.11731-.0011-.02368-.00116-.053-.004-.08911-.00879v-.108a1.49572,1.49572,0,0,0,.16467.01581c.04175.0011.1015-.00085.17938-.00623a.38644.38644,0,0,0,.12292-.09442.2126.2126,0,0,0,.035-.13147.73845.73845,0,0,0-.03949-.24591l-.66895-1.71094h-1.59283l-.52112,1.32745c-.02258.05554-.04852.13678-.07892.24341a1.23015,1.23015,0,0,0-.04852.2876.38352.38352,0,0,0,.12744.30481.54988.54988,0,0,0,.20642.02966h.17712v.08826a.56483.56483,0,0,1-.071.00879c-.02142.0011-.05981.00134-.11621.0011-.04962-.0014-.13531-.00818-.2572-.01978-.12183-.01129-.2132-.018-.27295-.01941-.08911.0014-.18274.00812-.282.01941-.09924.0116-.176.01837-.23016.01978-.05072.00024-.08569,0-.10486-.0011a.40269.40269,0,0,1-.062-.00879v-.108a.53014.53014,0,0,0,.10938.01581c.03381.0011.09253-.00085.176-.00623a.99681.99681,0,0,0,.19635-.17822,1.3693,1.3693,0,0,0,.22668-.39172l1.73041-4.4837a.09762.09762,0,0,1,.03949-.04932h.079a.18339.18339,0,0,1,.04852.06879l1.79016,4.61151a1.49086,1.49086,0,0,0,.114.25208.80151.80151,0,0,0,.12183.1413A.40828.40828,0,0,0,142.54215,90.02336Zm-1.75977-2.36975-.73773-1.85846-.7276,1.85846Zm6.71637,1.96649a1.74516,1.74516,0,0,1-.51434.25317,2.92237,2.92237,0,0,1-.92053.15009A1.67562,1.67562,0,0,1,144.417,88.935a2.38508,2.38508,0,0,1-.17261-.88831,2.12724,2.12724,0,0,1,.4884-1.44165,1.61468,1.61468,0,0,1,1.233-.53467,1.96615,1.96615,0,0,1,.71851.13617,1.47271,1.47271,0,0,1,.49072.30627,2.10534,2.10534,0,0,1,.22565.30377.82331.82331,0,0,1,.10828.20752,2.42288,2.42288,0,0,1-.01019.295h.08917a.64.64,0,0,0,.027-.10828,1.34054,1.34054,0,0,0,.01239-.19659c0-.0448,0-.10486-.0011-.17932a1.5998,1.5998,0,0,0-.009-.16473c-.00787-.04993-.02594-.12946-.053-.23828a1.50414,1.50414,0,0,1-.04517-.31219h-.079a.66931.66931,0,0,1-.22559.03925,1.88857,1.88857,0,0,1-.52112-.13794,2.53483,2.53483,0,0,0-.81677-.13733,2.192,2.192,0,0,0-1.13367.313,2.2689,2.2689,0,0,0-1.0976,1.94836,2.0694,2.0694,0,0,0,.23016.9707,1.81967,1.81967,0,0,0,.75122.75269,2.81524,2.81524,0,0,0,1.35822.30237,3.18451,3.18451,0,0,0,1.14941-.183,1.34826,1.34826,0,0,0,.46368-.27948,1.53108,1.53108,0,0,0,.26508-.39313l-.079-.059A1.03756,1.03756,0,0,1,147.49876,89.6201Zm4.14673-3.75873-.52118.04944c-.08234.00476-.18274.00958-.30347.01349-.12067.00372-.20868.00592-.26617.00592-.12976-.00055-.28882-.00421-.476-.011s-.33392-.0127-.43884-.01831c-.03387-.00061-.09021-.00513-.17035-.01276q-.12012-.01172-.2301-.02393c-.0722-.00763-.11621-.01184-.13086-.01263a.4772.4772,0,0,0-.10828.00977c-.03387.09167-.07336.1839-.11731.27557-.02142.046-.05756.11426-.10944.20447-.05188.09052-.1106.19287-.176.30792l.05872.04944a1.20193,1.20193,0,0,1,.33051-.39435,1.34194,1.34194,0,0,1,.80994-.21686c.1839-.00275.29669.02258.33612.07648a.48065.48065,0,0,1,.04742.29834v2.70081a1.61441,1.61441,0,0,1-.06091.54828.91477.91477,0,0,1-.194.28961,1.38959,1.38959,0,0,1-.19739.00983,1.17462,1.17462,0,0,1-.18616-.00983v.108h.33386c.044-.0014.12189-.00812.23352-.01947q.16919-.0173.27753-.01941c.0722.0014.16925.00787.29218.01941.12183.01135.22113.01807.29779.01947.05865.00031.10266,0,.13306-.0011.03052-.00085.08466-.00391.16248-.00848v-.09839l-.256.00983a.26916.26916,0,0,1-.21436-.12067.80895.80895,0,0,1-.11957-.49042V86.28477a.14637.14637,0,0,1,.04626-.13062.507.507,0,0,1,.29779-.0567,2.40011,2.40011,0,0,1,.55048.037.25447.25447,0,0,1,.22675.25861.34893.34893,0,0,1-.03943.16046,2.27489,2.27489,0,0,1-.1286.20441l.06989.02966c.2403-.286.35876-.48315.35309-.59174a.31214.31214,0,0,0-.08459-.25177A.48859.48859,0,0,0,151.64549,85.86137Zm2.79193.09143q-.12021.00934-.24371.01892-.12515.0097-.17938.01007c-.0304-.00018-.08453-.0036-.16357-.01007s-.1579-.0127-.23682-.01892c-.08014-.00653-.13647-.00983-.17035-.01044a1.75462,1.75462,0,0,0-.176.00763c-.04517.00507-.09137.01215-.13879.022v.0885a1.631,1.631,0,0,1,.20648-.00989,1.85329,1.85329,0,0,1,.22668.00989.53079.53079,0,0,1,.16583.21631,1.12112,1.12112,0,0,1,.04065.36407v2.73328a1.51224,1.51224,0,0,1-.04065.429.47535.47535,0,0,1-.13647.20044,1.266,1.266,0,0,1-.19629.00958,1.54041,1.54041,0,0,1-.21655-.00958v.09814a1.15294,1.15294,0,0,0,.1861.01978c.03381-.00031.09369-.004.17822-.01019.08575-.00616.17035-.01263.2572-.01886.08575-.00623.14777-.00964.18506-.01013.03717.00049.1037.00391.20074.01013.09589.00623.194.0127.29218.01886.0993.00623.17035.00989.21436.01019.0462.00055.07892-.00031.09808-.00226a.29533.29533,0,0,0,.06879-.01752v-.09814a1.46627,1.46627,0,0,1-.20642.01978,1.32709,1.32709,0,0,1-.19623-.01978.63664.63664,0,0,1-.123-.16974.61432.61432,0,0,1-.06433-.273v-3.097a.44519.44519,0,0,1,.09479-.29865.35326.35326,0,0,1,.27979-.1145c.05078,0,.08911.00031.11505.0014s.05975.004.10034.00848V85.972a2.16062,2.16062,0,0,0-.25494-.02966C154.57389,85.943,154.51859,85.94627,154.43742,85.9528Zm5.1416-.00757a2.11732,2.11732,0,0,1-.21771.02423c-.04626-.00116-.114-.00793-.20306-.01947s-.15906-.01807-.20984-.01978a.636.636,0,0,0-.09473.01129.38991.38991,0,0,0-.0722.01837v.07867c.04742-.00342.09924-.00647.1568-.00958.0722.00311.12518.00616.158.00958.027.00812.05634.0434.08685.106a.52365.52365,0,0,1,.05078.20923,1.15043,1.15043,0,0,1-.0993.48279l-1.11115,2.64166-1.33673-2.93719c-.03381-.07953-.0575-.137-.06989-.17255a.31068.31068,0,0,1-.01923-.1131.248.248,0,0,1,.04175-.15289.1926.1926,0,0,1,.16583-.064c.02594.00024.06091.002.10492.00586.044.00427.08459.00879.12067.01385v-.08881a2.00373,2.00373,0,0,0-.3045-.03925q-.06271.00256-.20306.01978a2.36568,2.36568,0,0,1-.2392.01947,2.72947,2.72947,0,0,1-.29663-.01947c-.09595-.0116-.167-.01807-.21552-.01978a.579.579,0,0,0-.12744.01978v.08856a.627.627,0,0,1,.22223.03833.41487.41487,0,0,1,.16919.17627,4.56736,4.56736,0,0,1,.22791.46558l1.53412,3.44958h.10828L159.42,86.53117a1.02264,1.02264,0,0,1,.30908-.44836c.09363-.05328.15454-.07446.18274-.064a.35226.35226,0,0,1,.09814.01019v-.09875a1.5971,1.5971,0,0,0-.20642-.00958A1.98,1.98,0,0,0,159.579,85.94523Zm4.02032,3.767a1.82976,1.82976,0,0,1-.66211.18585,5.12117,5.12117,0,0,1-.60809.02679,1.044,1.044,0,0,1-.32257-.027c-.0733-.02252-.10944-.08545-.10944-.18951V87.9683a7.42956,7.42956,0,0,1,.77832.02484.75442.75442,0,0,1,.40613.13678.5921.5921,0,0,1,.18164.33984h.06885v-.13794a1.52332,1.52332,0,0,0-.07452-.25806,2.2828,2.2828,0,0,1-.08234-.27271,1.70122,1.70122,0,0,1-.01129-.21149,1.00484,1.00484,0,0,0-.018-.21149.32571.32571,0,0,0-.079-.157l-.06885.01965a.66849.66849,0,0,1,.05872.23578.23909.23909,0,0,1-.18054.24963,1.28443,1.28443,0,0,1-.38013.03552h-.599v-1.4552a.44247.44247,0,0,1,.04852-.14746.72432.72432,0,0,1,.14667-.05786.78163.78163,0,0,1,.19739-.02081,3.07348,3.07348,0,0,1,.44446.033,1.70635,1.70635,0,0,1,.6001.19006.61444.61444,0,0,1,.33276.48474h.05865a1.10612,1.10612,0,0,0-.01917-.25543c-.00226-.00934-.02142-.06036-.0575-.15375q-.0542-.13953-.11169-.29553c-.03949-.10431-.06433-.17737-.07672-.21942-.10828.01642-.20306.02856-.28656.037-.08234.009-.19171.01434-.32935.01746-.13647.00336-.3418.00452-.61365.00452-.071-.00024-.19293-.00165-.36774-.00476-.176-.00287-.352-.00513-.52905-.00708-.17712-.0014-.30347-.00085-.38129.00226l-.14777.00958v.11792l.27521-.01978c.13422.00165.22107.04028.26062.11707a.63317.63317,0,0,1,.05408.3158v3.02856a.71536.71536,0,0,1-.0744.38831c-.0564.09869-.18274.14972-.37793.15259a1.19731,1.19731,0,0,1-.1861-.01978v.108a.97883.97883,0,0,0,.10492.00879c.03723.0011.106.00134.20978.0011.176-.00647.35309-.01294.53021-.01978.32825.00684.6554.01331.98364.01978q.14722,0,.36206.0011c.14441.0011.25269.00427.326.00873q.14557.01236.30457.03955a1.114,1.114,0,0,1,.08124-.16248q.0423-.06812.15564-.22113a2.20953,2.20953,0,0,0,.19629-.30853.68659.68659,0,0,0,.04968-.27155h-.06995A.72951.72951,0,0,1,163.59934,89.71226Zm3.17432-1.99011h-1.42584c-.062.08374-.12518.17517-.18719.27411a1.521,1.521,0,0,0-.1275.23749h.09814q.049-.07883.09814-.1571c.11951-.015.22449-.02515.31586-.03076.09137-.00623.18945-.009.29443-.009h1.40546l.18732-.35364c-.07336.01013-.17261.01892-.29669.02679S166.891,87.72184,166.77366,87.72215Zm6.184,2.30121a.73076.73076,0,0,0,.14777-.01019v.09845c-.03162.00342-.06769.00653-.10828.00989-.01355-.00031-.06879-.004-.16693-.01019-.097-.00616-.20081-.01263-.31024-.01886-.10828-.00623-.1861-.00964-.2312-.01013-.03729.00049-.09821.00391-.185.01013-.08575.00623-.17151.0127-.2561.01886-.08569.00623-.14441.00989-.17822.01019-.0553.00024-.09479,0-.11847-.0011-.02252-.00116-.053-.004-.088-.00879v-.108a1.47193,1.47193,0,0,0,.16467.01581c.04175.0011.1015-.00085.17938-.00623a.39887.39887,0,0,0,.12292-.09442.20571.20571,0,0,0,.03387-.13147.72593.72593,0,0,0-.03839-.24591l-.66888-1.71094h-1.5929l-.52112,1.32745a2.27989,2.27989,0,0,0-.07892.24341,1.30186,1.30186,0,0,0-.04968.2876.38746.38746,0,0,0,.1286.30481.54411.54411,0,0,0,.20642.02966h.17712v.08826a.60626.60626,0,0,1-.07214.00879c-.02032.0011-.05988.00134-.11511.0011-.05072-.0014-.13647-.00818-.2583-.01978-.12189-.01129-.2121-.018-.273-.01941-.088.0014-.18158.00812-.28088.01941-.09924.0116-.176.01837-.2301.01978-.05072.00024-.08685,0-.106-.0011a.38965.38965,0,0,1-.06091-.00879v-.108a.5205.5205,0,0,0,.10938.01581c.03381.0011.09143-.00085.176-.00623a.99681.99681,0,0,0,.19635-.17822,1.36926,1.36926,0,0,0,.22675-.39172l1.73041-4.4837a.1012.1012,0,0,1,.03833-.04932h.079a.17427.17427,0,0,1,.04962.06879l1.78906,4.61151a1.472,1.472,0,0,0,.11505.25208.749.749,0,0,0,.12073.1413A.41444.41444,0,0,0,172.95762,90.02336Zm-1.75977-2.36975-.73767-1.85846-.7276,1.85846Zm6.72882.59961c-.12415.01154-.21326.018-.26959.01965-.05078-.00165-.13873-.00812-.26172-.01965-.12408-.01135-.21326-.01782-.26959-.01947a1.00853,1.00853,0,0,0-.12518.00586c-.0271.004-.0542.00879-.0813.01361v.10828a.74461.74461,0,0,1,.20648-.02966.39647.39647,0,0,1,.203.04315c.07446.03473.11505.12494.12189.27161v.64886a.63467.63467,0,0,1-.361.52991,1.61025,1.61025,0,0,1-.78961.198,1.53831,1.53831,0,0,1-.99945-.35022,2.00592,2.00592,0,0,1-.56964-.801,2.34764,2.34764,0,0,1-.18048-.87451,2.16806,2.16806,0,0,1,.28082-1.14636,1.554,1.554,0,0,1,.67011-.60468,1.866,1.866,0,0,1,.79864-.17621,1.63066,1.63066,0,0,1,.75012.18469,1.66908,1.66908,0,0,1,.50879.4007.68535.68535,0,0,1,.1861.38806.71229.71229,0,0,1-.03833.20642h.088a1.00181,1.00181,0,0,0,.04956-.33417,2.19648,2.19648,0,0,0-.06427-.42639,2.1979,2.1979,0,0,1-.06427-.41931h-.02936c-.02258.04089-.08459.06738-.1861.07867a2.285,2.285,0,0,1-.54376-.13287,2.64687,2.64687,0,0,0-.76477-.13251,2.24983,2.24983,0,0,0-1.99554,1.25861,2.1517,2.1517,0,0,0-.1297.36017,2.19306,2.19306,0,0,0-.07672.57416,2.13748,2.13748,0,0,0,.23352.958,2.00924,2.00924,0,0,0,.73212.8009,2.37973,2.37973,0,0,0,1.27576.33533,2.64681,2.64681,0,0,0,1.14386-.22766,2.52879,2.52879,0,0,0,.60687-.41144,1.37031,1.37031,0,0,1-.0293-.23633v-.32428a1.76831,1.76831,0,0,1,.03156-.40808.24557.24557,0,0,1,.22339-.23126.76881.76881,0,0,1,.21655.02966V88.263a.8688.8688,0,0,0-.23578-.0293C178.13651,88.23539,178.0496,88.24186,177.92668,88.25322Zm4.35876,1.459a1.82973,1.82973,0,0,1-.66217.18585,5.12981,5.12981,0,0,1-.608.02679,1.04427,1.04427,0,0,1-.32263-.027c-.0733-.02252-.10937-.08545-.10937-.18951V87.9683a7.44487,7.44487,0,0,1,.77838.02484.75438.75438,0,0,1,.40607.13678.5991.5991,0,0,1,.18158.33984h.06885v-.13794a1.52723,1.52723,0,0,0-.07446-.25806,2.25957,2.25957,0,0,1-.08234-.27271,1.68951,1.68951,0,0,1-.01129-.21149,1.00866,1.00866,0,0,0-.01807-.21149.32571.32571,0,0,0-.079-.157l-.06885.01965a.66849.66849,0,0,1,.05872.23578.239.239,0,0,1-.18048.24963,1.28485,1.28485,0,0,1-.38019.03552h-.59894v-1.4552a.42.42,0,0,1,.04846-.14746.72432.72432,0,0,1,.14667-.05786.782.782,0,0,1,.19739-.02081,3.073,3.073,0,0,1,.44446.033,1.70706,1.70706,0,0,1,.60016.19006.61411.61411,0,0,1,.3327.48474h.05872a1.09935,1.09935,0,0,0-.01923-.25543c-.00336-.00934-.02142-.06036-.0575-.15375q-.05411-.13953-.11169-.29553c-.03943-.10431-.06427-.17737-.07672-.21942-.10828.01642-.20416.02856-.2865.037-.08234.009-.19177.01434-.32941.01746-.13647.00336-.3418.00452-.61365.00452-.071-.00024-.19293-.00165-.3689-.00476q-.26221-.0043-.52789-.00708c-.17712-.0014-.30341-.00085-.38129.00226l-.14777.00958v.11792l.27527-.01978c.13422.00165.22107.04028.26056.11707a.6344.6344,0,0,1,.0542.3158v3.02856a.71643.71643,0,0,1-.07452.38831c-.0564.09869-.18274.14972-.37787.15259a1.19574,1.19574,0,0,1-.1861-.01978v.108a.97768.97768,0,0,0,.10486.00879c.03723.0011.106.00134.20984.0011.176-.00647.353-.01294.53021-.01978.32819.00684.65533.01331.98364.01978q.14713,0,.36212.0011c.14435.0011.25269.00427.32593.00873q.14557.01236.30463.03955a1.10793,1.10793,0,0,1,.08124-.16248c.02814-.04541.08-.11926.15454-.22113a2.14627,2.14627,0,0,0,.19739-.30853.66836.66836,0,0,0,.04846-.27155h-.06879A.72944.72944,0,0,1,182.28544,89.71226Zm2.9295-3.75946c-.08118.00623-.16241.01239-.24475.01892-.0835.00647-.14215.00989-.17938.01007-.03046-.00018-.08459-.0036-.16357-.01007-.07782-.00653-.1579-.0127-.23688-.01892-.08008-.00653-.13647-.00983-.17029-.01044a1.756,1.756,0,0,0-.176.00763c-.04511.00507-.09137.01215-.13879.022v.0885a1.63147,1.63147,0,0,1,.20648-.00989,1.85276,1.85276,0,0,1,.22668.00989.53151.53151,0,0,1,.16589.21631,1.063,1.063,0,0,1,.04059.36407v2.73328a1.47231,1.47231,0,0,1-.04059.429.46573.46573,0,0,1-.13654.20044,1.26564,1.26564,0,0,1-.19623.00958,1.54087,1.54087,0,0,1-.21661-.00958v.09814a1.154,1.154,0,0,0,.18726.01978c.03265-.00031.09253-.004.17706-.01019.08575-.00616.17151-.01263.25726-.01886s.14777-.00964.185-.01013c.03717.00049.10376.00391.20074.01013s.194.0127.29218.01886c.0993.00623.17035.00989.21436.01019.04626.00055.07892-.00031.0993-.00226a.309.309,0,0,0,.06873-.01752v-.09814a1.48082,1.48082,0,0,1-.20752.01978,1.3279,1.3279,0,0,1-.19629-.01978.66162.66162,0,0,1-.12292-.16974.59851.59851,0,0,1-.06323-.273v-3.097a.45091.45091,0,0,1,.09363-.29865.35494.35494,0,0,1,.27979-.1145c.05078,0,.08911.00031.11505.0014s.05975.004.1015.00848V85.972a2.2109,2.2109,0,0,0-.256-.02966C185.35032,85.943,185.295,85.94627,185.21494,85.9528Zm5.90643.00934a1.11467,1.11467,0,0,1-.18719.02478,1.35722,1.35722,0,0,1-.22-.02478,1.436,1.436,0,0,0-.24249-.02429,1.17981,1.17981,0,0,0-.25494.01978v.08826a1.032,1.032,0,0,1,.17706-.00958,1.26721,1.26721,0,0,1,.19635.00958.61246.61246,0,0,1,.18158.32684,1.72322,1.72322,0,0,1,.035.4007v2.645l-2.90137-3.284a.52827.52827,0,0,0-.28308-.165,1.72535,1.72535,0,0,0-.39484-.03162,2.21039,2.21039,0,0,0-.45233.03918v.09821a1.63212,1.63212,0,0,1,.21655-.01947.39122.39122,0,0,1,.19855.04059.63426.63426,0,0,1,.1557.13647l.09814.108v2.86133c.0011.0166-.00232.08069-.01129.192a1.88057,1.88057,0,0,1-.06659.3537.48376.48376,0,0,1-.16809.27069.56873.56873,0,0,1-.09924.01331c-.05188.00391-.08685.00586-.10718.00616a1.37528,1.37528,0,0,1-.21655-.01947v.09814c.03156.00507.06427.00958.09583.01355a1.22662,1.22662,0,0,0,.13989.00592q.16077-.01941.511-.03925a2.05838,2.05838,0,0,1,.29553.01978,1.37251,1.37251,0,0,0,.17706.01947,2.14572,2.14572,0,0,0,.26514-.01947v-.09814a1.23813,1.23813,0,0,1-.19629.01947.38587.38587,0,0,1-.35761-.21521.77645.77645,0,0,1-.08459-.355V86.52787l3.14612,3.58881c.04059.04431.07672.064.10828.05865a.16305.16305,0,0,0,.07788-.01807.07852.07852,0,0,0,.04059-.07013V86.695a1.10371,1.10371,0,0,1,.06653-.46838.43728.43728,0,0,1,.17822-.18079c.09814-.00031.16583.00055.20532.00256a1.17071,1.17071,0,0,1,.13989.01715V85.9672a1.14433,1.14433,0,0,0-.27637-.02936A1.11337,1.11337,0,0,0,191.12138,85.96214Zm5.75305,2.27161c-.05188.00165-.13873.00812-.26172.01947-.124.01154-.2132.018-.26959.01965-.05078-.00165-.13873-.00812-.26172-.01965-.12408-.01135-.2132-.01782-.26959-.01947a1.00993,1.00993,0,0,0-.12518.00586c-.0271.004-.0542.00879-.08124.01361v.10828a.74386.74386,0,0,1,.20642-.02966.39611.39611,0,0,1,.203.04315c.07452.03473.11511.12494.12189.27161v.64886a.6346.6346,0,0,1-.361.52991,1.61066,1.61066,0,0,1-.78967.198,1.54077,1.54077,0,0,1-.99945-.35022,2.00711,2.00711,0,0,1-.56964-.801,2.37089,2.37089,0,0,1-.18048-.87451,2.16861,2.16861,0,0,1,.28088-1.14636,1.56,1.56,0,0,1,.67-.60468,1.86638,1.86638,0,0,1,.79864-.17621,1.63924,1.63924,0,0,1,.75128.18469,1.67678,1.67678,0,0,1,.50763.4007.68535.68535,0,0,1,.1861.38806.67743.67743,0,0,1-.03833.20642h.088a1.00162,1.00162,0,0,0,.04962-.33417,2.20117,2.20117,0,0,0-.06427-.42639,2.19351,2.19351,0,0,1-.06433-.41931h-.0293c-.02258.04089-.08466.06738-.18616.07867a2.2963,2.2963,0,0,1-.5437-.13287,2.6473,2.6473,0,0,0-.76483-.13251,2.25337,2.25337,0,0,0-1.99548,1.25861,2.15072,2.15072,0,0,0-.12976.36017,2.24311,2.24311,0,0,0-.07672.57416,2.13829,2.13829,0,0,0,.23352.958,2.01811,2.01811,0,0,0,.73212.8009,2.38011,2.38011,0,0,0,1.27582.33533,2.64651,2.64651,0,0,0,1.1438-.22766,2.52808,2.52808,0,0,0,.60693-.41144,1.3637,1.3637,0,0,1-.02936-.23633v-.32428a1.76848,1.76848,0,0,1,.03162-.40808.24641.24641,0,0,1,.22333-.23126.763.763,0,0,1,.21655.02966V88.263A.86866.86866,0,0,0,196.87443,88.23374ZM48.36192,87.14427a.6272.6272,0,1,0,.62726.6275A.62745.62745,0,0,0,48.36192,87.14427Zm35.97906,0a.6272.6272,0,1,0,.6272.6275A.62745.62745,0,0,0,84.341,87.14427Zm50.28119,0a.6272.6272,0,1,0,.62714.6275A.62745.62745,0,0,0,134.62217,87.14427Z"/><rect class="cls-5" width="209.4816" height="95.3131"/></g></g></svg>